
<svg xmlns="http://www.w3.org/2000/svg" xmlns:xlink="http://www.w3.org/1999/xlink" fill="#152F68" viewBox="0 0 1920 496">
  <defs>
    <path id="i" fill="#fff" d="M0 0h6370v102H0z"/>
    <path id="j" fill="#fff" d="M0 0h100v100H0z"/>
  </defs>
  <g clip-path="url(#a)">
    <g clip-path="url(#b)">
      <path fill-rule="evenodd" d="m364.27 39.52 15.62 3.76-3.38 15.64-.79.36c-4.4 2.06-10.43 2.23-14.47-1.79l-.68-.67 3.7-17.3Zm2.67 4.24-2.53 11.86c2.45 1.88 5.95 2.01 9.05.82l2.28-10.56-8.8-2.12Z" clip-rule="evenodd"/>
      <path fill-rule="evenodd" d="m412.73 6.63 12.13 14.24-9.59 1.5-28.76 20.52-3.81 17.18 19.72 11.46 10.45 1.07-10.21 13.8-5.07-6.69-23.5-13.74a14.72 14.72 0 0 1-6.08.96c-1.99-.16-4.1-.83-6.74-2.08l-7.56 17.93.05 10.7-19-8.03 8.94-5.87 10.4-24.2 3.96-17.7-6.94-14.24L373.61 6.8l25.56.35-14.99 14.44-8.66-4.05-.24.18c-1.11.84-2.46 1.86-3.83 3.76-1.68 2.32-3.3 5.93-3.54 11.73l12.3 3 29.35-21.04 3.17-8.55Zm-38 3.7-19.19 14.19 6.2 12.73-4.3 19.22-10.94 25.46-4.35 2.85 8.09 3.42-.03-6.12 9.3-22.05 1.68.87c3.35 1.72 5.41 2.4 7.1 2.54 1.65.14 3.13-.23 5.41-1.03l.77-.27 25.48 14.9 2.67 3.52 3.78-5.1-5.08-.52-22.6-13.13 4.67-20.99 30.53-21.79 4.22-.65-4.2-4.93-1.47 3.95L380.94 40l-16.57-4.04v-1.38c.05-7.27 1.96-11.99 4.24-15.14a22.14 22.14 0 0 1 4.9-4.77c.27-.2.48-.36.6-.47l.86-.77 8.51 3.98 7.13-6.87-15.87-.21Zm173.54-5.55 32.6 32.74.18 13.3-2.84-2.1c-4.01-2.96-9.72-8.82-15.71-15.26-2.29-2.45-4.62-5-6.94-7.53-3.83-4.18-7.61-8.3-11.07-11.9l-.9-.94 4.68-8.3Zm.78 5.75-1.14 2.01c3.24 3.4 6.75 7.23 10.28 11.08 2.31 2.52 4.63 5.05 6.87 7.46 4.65 5 8.96 9.46 12.39 12.5l-.07-4.6-28.33-28.45Zm-.82 10.77 9.78 11.41-.68 1.1c-2.1 3.32-4.36 6.83-6.67 10.4-2.78 4.3-5.62 8.68-8.28 12.97-4.74 7.64-8.62 14.5-10.1 19.03l1.85 18-27.49-19.17 13.87-3.42.37-.56C533 52.8 543.3 37.26 547.3 24.33l.93-3.04Zm1.4 7.02c-4.67 12.78-14.55 27.66-25.58 44.3l-1 1.5-.38.57-7.69 1.9 14.89 10.38-1.15-11.11.1-.34c1.56-5.05 5.77-12.43 10.59-20.18 2.63-4.24 5.54-8.74 8.36-13.11 2.07-3.19 4.08-6.3 5.9-9.2l-4.03-4.71ZM724.86 5.8l18.33 4.58-8.23 9.87-4.87 29.53.33 1.64c1.4 6.98 3.18 15.93 3.87 23.97l6.88 8.13-18.36 3.57 2.02-10.2c-.87-8.91-2.8-18.13-4.36-23.8l-21.08-5.12-12.61 5.76 9.12-25.18 5.27 10.98 19.18 4 6.12-25.84-1.62-11.89Zm4.16 4.65 1 7.42-7.05 29.79-24.2-5.06-2.42-5.02-3.44 9.5 6.13-2.8 24.24 5.88.28.98a154.68 154.68 0 0 1 4.78 25.66l.02.26-1.1 5.6 7.38-1.43-3.75-4.44-.04-.56c-.64-7.96-2.44-16.96-3.87-24.15l-.38-1.93-.07-.3 5.13-31.1 5.27-6.32-7.91-1.98Z" clip-rule="evenodd"/>
      <path fill-rule="evenodd" d="m712.01 53.43 5.67 8.2-19.39 12.72-6.86-7.72L712 53.43Zm-15.25 13.94 2.14 2.4 13.86-9.1-1.7-2.47-14.3 9.17Zm-6 2.6.3 1.46c.86 4.17.4 8.33-.02 12.17l-.08.75-.34 3.12-2.48-1.94a83.94 83.94 0 0 1-12.55-12.1l-2.27-2.71 17.44-.75Zm-10.1 3.93a81.47 81.47 0 0 0 7.16 6.86c.23-2.47.35-4.83.05-7.16l-7.2.3Zm865.8-56.38 3.12.85 2.1 16.03c6.66 3.55 14.21 10.52 14.1 21.4a31.97 31.97 0 0 1-5.91 17.5c-3.86 5.36-9.69 9.53-17.37 9.51l-14.95-.03-.1-10.3 1.79.02c6.11.07 12.26-1.12 16.82-3.77 4.48-2.6 7.4-6.57 7.41-12.33.01-5.71-2.87-9.63-6.7-12.12-3.9-2.53-8.7-3.5-12.1-3.22l-1.47.12-1.26-4.99 14.52-18.67Zm-10.58 20-.13-.53 10.9-14.01 1.8 13.7.83.42c6.32 3.14 13.1 9.28 13 18.66a28.44 28.44 0 0 1-5.25 15.49c-3.39 4.72-8.27 8.08-14.53 8.06l-11.48-.02-.04-3.3c5.96-.16 12.04-1.44 16.84-4.23 5.36-3.11 9.13-8.14 9.15-15.35.01-7.12-3.67-12.06-8.3-15.06a24.5 24.5 0 0 0-12.79-3.84Zm-24.83 15.39 12.63 25.22h-27.28l14.65-25.22Zm-8.57 21.72h15.53l-7.19-14.36-8.34 14.36ZM888.5 15l15.58 3.81-10.2 11.14-31.8 3.3.04 40.21 17.16-15.26 28.86-1.86-3.65 8.42 4.54 9.3-24.28-5.21-28.42 21.61-17.14-35.85 14.72-30.78 30.96-1.72 3.63-7.1Zm1.86 4.06-3.29 6.44-30.9 1.7-13.1 27.41 14.57 30.46L883.9 65.1l18.81 4.04-2.09-4.29 2.02-4.64-21.94 1.41-19.18 17.05-2.9-1.3-.05-47.26 33.62-3.49 5.31-5.8-7.15-1.75Zm335.67-2.23 10.26 24.68-27.02-4.4 16.76-20.28Zm-10.17 17.8 14.78 2.42-5.61-13.51-9.17 11.1Zm-22.58 13.67 9.62 27.14-26.74-2.26 17.12-24.87Zm-10.82 21.9 15.33 1.3-5.51-15.56-9.82 14.26Zm193.28-58.17 33.28 1.36 4.35 21.99-9.13 6.76a19.67 19.67 0 0 1-.63 4.25c-.22.86-.51 1.7-.88 2.45a5.92 5.92 0 0 1-1.53 2.02l-1.6 1.3-7.78-13.7 10.47-6.95-1.86-8.31-14.62.04c-.34 13.85-3.78 26.66-10.49 36.19-6.7 9.5-16.6 15.66-29.63 16.3l2.72 16.08-19.74.13.78-2.32c6.41-19.25 6.25-31.8 5.65-36.73l-6.28-9.16 26.22 1.55-10.15 9.14.12 11a25.5 25.5 0 0 0 19.43-9.26c6.31-7.42 11.15-20.41 11.29-42.31l.01-1.82Zm3.47 3.65c-.4 21.28-5.25 34.68-12.1 42.75-7.1 8.35-16.14 10.76-23.9 10.48l-1.66-.06-.18-15.98 5.1-4.6-10.72-.63 2.71 3.96.05.4c.7 5.02.99 17.46-4.99 36.4l10.75-.06-2.71-16.04h2.06c12.86-.07 22.41-5.77 28.84-14.89 6.46-9.18 9.8-21.9 9.88-35.92l.01-1.74 20.88-.06 3 13.4-9.75 6.49 3.62 6.38.13-.45c.36-1.4.54-2.97.53-4.24l-.02-.9 8.77-6.49-3.39-17.1-26.91-1.1ZM1074.88 28.7l14.02 10.1-8.27 3.31-14.3 16.2-19.73-.94-3.38 4.44-17.51-11.71-20.95 14.07-3.07 9.24-11.3-14.98 9.41-1.21 23.64-15.87 30.32.99-2.44 6.13 11.4 1.05 10.52-12.49 1.64-8.34Zm2.38 6.03-.76 3.87-12.28 14.58-17.87-1.65 2.32-5.86-24.21-.79-23.4 15.7-4.24.55 3.65 4.85 1.35-4.05 23.88-16.05 16.73 11.19 2.5-3.29 19.89.95 13.74-15.56 3.13-1.25-4.43-3.2Z" clip-rule="evenodd"/>
      <g clip-path="url(#c)">
        <path fill-rule="evenodd" d="m1827.85 66.75 3.69-29.84 6.84-6.76-.65 27.68-9.88 8.92Zm4.63-8.9 1.79-1.61.37-15.94-2.16 17.56Z" clip-rule="evenodd"/>
        <path d="m1879.96 94.01.16-.72h-.04l-.12.72Zm.07-.76h.01"/>
        <path fill-rule="evenodd" d="M1879.89 93.25h-.1a2.67 2.67 0 0 0-.09 0h-.01.01a1.6 1.6 0 0 1 .11 0h.01-.09v.01h-.05l-.11.03-.07.02.33 1.2.01.05-.01.05-.44-1.26-.1.04-.04.02-.04.02h-.03l-.05.04.69 1.14h-.07l-.11-.12-.72-.88-.04.05h-.02l-.01.02.01-.02-.02.02-.03.03m.92-.44.12 1.16-.18-1.15.06-.01Z" clip-rule="evenodd"/>
        <path d="m1879.6 94.6-1-.61-.04.07-.02.03-.01.03-.03.06 1.03.42h.07Zm-.18 0-.94-.34-.02.05.95.28h.01Zm.05.01.02.01h-.02Zm.44-.41.11-.93h-.08l-.03.93Zm-.08.42v.01l-.01-.01h.01Zm-.09 0 .06.06h-.03l-.09-.06h.06Zm-.12 0h-.06l.12.04h.03l-.09-.04Zm.23.05-.01-.04v.02l.01.02Zm-.03.01-.06-.06Zm.05-.35-.05-1.07a.6.6 0 0 1 .03 0h.02v1.07Zm-.63.25-.79-.2-.02.06.81.14Zm.59.03h-.01m.03-.05-.02-.04-.26-1.22"/>
        <path fill-rule="evenodd" d="m1819.03 83.27 6.02-49.77 19.9-21.15-.13 41.97 10.47-.13 18.58-8.55 4.06 10 9.66 6.71 11.74-4.34-2.97-34.41-21.57-1.21-2.78-18.47 33.74 10.31 4.99 51.37-23.25 9.48-19.6-12.22-1.31.27 3.72 12.04 6.17.06 4.8 16.37c.19.65.35 1.21.45 1.69.1.42.19.9.19 1.34v.1l-.01.1-.01.18-.01.03v.02a1.6 1.6 0 0 1-.06.22.2.2 0 0 1-.02.08.18.18 0 0 0-.02.07l-.02.04-.01.03c-.04.1-.1.22-.17.32l-.02.05-.03.04-.07.1-.04.04-.05.05-.02.03-.06.06-.02.01-.03.03-.02.03a.17.17 0 0 0-.03.02l-.05.04-.1.08-.11.07c-.04.02-.2.12-.38.18l-.06.02-.05.02-.14.03-.09.01a2.39 2.39 0 0 1-.26.02h-.14a1.78 1.78 0 0 1-.43-.04h-.02l-.03-.01c-.41-.1-.81-.31-1.09-.47-.33-.19-.69-.42-1.08-.67l-21.93-14.41c-.92-.6-1.78-1.2-2.28-1.72l-.01-.01-.01-.01a2.87 2.87 0 0 1-.69-1.33l-.01-.05v-.06l-.01-.23v-.11l.01-.1.02-.14.01-.07.02-.06c.03-.13.08-.22.11-.3l.03-.06.04-.07.02-.05.04-.05.07-.11.05-.07.07-.07.04-.05c.08-.08.21-.22.37-.33l.03-.02.03-.02.11-.06a.28.28 0 0 1 .06-.04l.06-.03a5 5 0 0 1 1.62-.4c.56-.05 1.25-.08 2.05-.1l4.04-.03-3.54-10.74-15.4.06-23.15 18.55Zm34.39-7.34Zm26.46 20.82c.01 0 0 0 0 0Zm1.99-2.06Zm-58.34-19.52 17.42-13.95 19.16-.07 5.83 17.7-7.72.08 19.43 12.76-3.81-12.98-6.14-.07-5.59-18.15 6.44-1.35 19.27 12.03 19.19-7.83-4.51-46.45-26.2-8 1.53 10.16 21.75 1.23 3.47 40.09-15.95 5.9-12.03-8.35-3.07-7.56-15.92 7.32-14.77.19.11-36.66-13.03 13.85-4.86 40.11Zm54.88 19.42v.15-.19h.01v.03l-.01.01Zm.59-.01-.58-.03.01-.06.57.09Zm-.59.01.79.02Zm.79.02.32.04.27.08h.02l-.06.27.06-.26.03.02-.03.24.04-.23.02.02.01.21v-.2h.01l.02.2-.01-.19.04.19-.03-.16.06.16-.05-.16.11.13-.06-.11.09.08-.11-.12.14.09-.17-.13-.01-.01.22.07-.22-.08.22.05-.23-.07-.01-.03.27.04-.27-.05v-.08h.27-.27l.01-.17.02-.13.25-1.02c.03 0 .05.02.05.02l-.03-.02a8.8 8.8 0 0 1-1.1-.67l-.41-.27.91-.27m-.89 1.75-.04.06.88.62-.84-.68Zm.1-.12Zm.03-.02.02-.02.01-.01.78.82.1.12m-24.24-17.64Z" clip-rule="evenodd"/>
      </g>
      <path fill-rule="evenodd" d="m1687.67 54.01-10.35-2.98 6.43-27.38 3.92 30.36Zm-4.92-10.78-1.26 5.36 2.03.58-.77-5.94Z" clip-rule="evenodd"/>
      <path fill-rule="evenodd" d="m1720.8 81.71-18.9 12.7-.32-12.15-12.6-20.64-19.53-4.7 11.51-47.3a5.9 5.9 0 0 1 1.09-2.37 3.02 3.02 0 0 1 2.36-1.2c1.06.02 1.85.64 2.33 1.32s.76 1.54.9 2.47l6.13 40.95 15.88 25.6 11.15 5.32Zm-7.04.52-6.54-3.12-16.8-27.09-6.17-41.15-10.57 43.46 17.53 4.23 13.84 22.68.18 6.72 8.53-5.73Z" clip-rule="evenodd"/>
      <path fill-rule="evenodd" d="m1709.39 55.05-8.36 1.8-6.21-24.35 8.28-2.33 6.29 24.88Zm-8.8-20.54-1.53.43 4.53 17.78 1.52-.33-4.52-17.88ZM50 14.71a8.56 8.56 0 0 0-8.57 8.54A8.56 8.56 0 0 0 50 31.79a8.56 8.56 0 0 0 8.57-8.54A8.56 8.56 0 0 0 50 14.7Zm-4.9 8.54a4.89 4.89 0 1 1 9.78.02 4.89 4.89 0 0 1-9.78-.02Z" clip-rule="evenodd"/>
      <path fill-rule="evenodd" d="M65.3 23.25c0 7.24-5.06 13.3-11.85 14.86L94 92H55.48l10.18-15.15L50 57.37 34.34 76.85 44.52 92H6l40.55-53.89A15.27 15.27 0 0 1 34.7 23.25C34.7 14.83 41.55 8 50 8s15.3 6.83 15.3 15.25ZM50 11.66a11.61 11.61 0 0 0-11.63 11.59c0 6.4 5.2 11.59 11.63 11.59a11.6 11.6 0 1 0 0-23.18Zm0 27.97L13.35 88.34h24.29l-7.85-11.69L50 51.52l20.2 25.13-7.84 11.69h24.3L50 39.64ZM205.1 17.6l27.96 1.8-9.5 24.34-18.94-.26.48-25.88Zm3.43 3.73-.34 18.7 13 .17 6.87-17.6-19.53-1.27Z" clip-rule="evenodd"/>
      <path fill-rule="evenodd" d="m197.33 9.85 47.22 3.16-12.74 33.08 12.92 21.76-.37 14.7 6.42 8.3-23.89-.22 6.3-8.91.09-9.76-11.61-20.4-16.74-.03-7.61 14.43 3.49 11.64 1.94 14.43-24.34-.04 10.9-10.25-5.28-18.47 12.36-18.85.94-34.57Zm3.4 3.74-.87 31.92-12.02 18.34 5.42 18.98-6.04 5.68 11.53.02-1.37-10.2-3.82-12.73 9.26-17.57 20.89.03 13.07 22.98-.1 11.8-3.07 4.35 9.98.09-2.76-3.58.38-14.93-13.27-22.36 11.64-30.23-38.85-2.6Z" clip-rule="evenodd"/>
    </g>
    <g clip-path="url(#d)">
      <path fill-rule="evenodd" d="M946.1 151.24h.44c1.75.01 3.51.5 5.16 1.03l1.65.55c1.13.38 2.23.76 3.41 1.07 3.36.9 6.81 1.13 10.67-1.12l1.12-.66 27.38 25.41 9.12 1.56-14 13.42-1.85-8.79-19.4-17.42-3.69 8.83 2.6 17.47-14.88 4.37 4.24-11.69-1.13-10.32 3.06-10.98c-4.7.14-7.2-.61-9.04-1.59-.62-.34-1.08-.62-1.45-.85-.82-.52-1.25-.78-2.23-.79l-9.2 5.31 3.73 2.41.1 16.82-16.1 16.34-3.58 7.97-10.68-13.48 8.44-2.33 12.91-12-.4-7.95-13.55-8.35 27.15-14.24Zm.83 3.51-20.9 10.97 9.88 6.1.57 11.43-14.73 13.67-4.18 1.16 3.82 4.82 1.48-3.29 15.53-15.75-.08-13.49-6.93-4.49 14.89-8.6.42-.03a7.95 7.95 0 0 1 5.1 1.55l.81.5c1.35.71 3.64 1.53 9.6 1.03l2.5-.21-4.22 15.13 1.14 10.45-2.15 5.96 5.33-1.57-2.3-15.42 5.96-14.27 23.91 21.47.8 3.75 4.44-4.26-3.3-.56-26.28-24.39c-4.5 2.21-8.6 1.81-12.18.86-1.3-.34-2.6-.78-3.77-1.18l-1.46-.5a16.05 16.05 0 0 0-3.7-.84ZM110.54 175.8l6.89-30-2.76-11.97L132.5 137l-5.2 9.16-4.41 23.71 31.71 13.91 10.08-5.8 2.3 21.85-12.14-3.7-28 14.87-6.8 10.8-8.07-23.26 12.54 2.76 19.83-10.8-33.8-14.7Zm4.06-2.05 37.71 16.4-27.26 14.84-7.7-1.7 3.63 10.47 3.4-5.42 30.11-16 8.47 2.59-1.18-11.24-6.95 4-35.88-15.74 5.03-27.02 3.04-5.36-7.75-1.37 1.75 7.6-6.42 27.95Zm368.29-26.5 3.46 16.9-.56 38.33-2.8-2.32c-14.4-11.86-28.27-23.4-39.75-34.23l-1.99-1.87 41.64-16.81Zm-35.25 18c10.22 9.49 22.2 19.53 34.76 29.9l.44-30.67-2.54-12.41-32.66 13.18Z" clip-rule="evenodd"/>
      <path fill-rule="evenodd" d="m487.56 136.96 6.41 24.42-.87 44.67 5.66 7.48-14.56 7.3-3.1-11.14c-8.73-8.2-16.51-15.04-23.3-21.01l-4.1-3.62c-7.36-6.5-13.42-11.99-17.96-17.12l-8.9 2.36-4.41-8.66 1.93-.64c21.75-7.23 43.28-14.66 61.3-23.15l1.9-.9Zm-60.17 26.72 1.28 2.51 8.29-2.2.71.84c4.44 5.16 10.56 10.74 18.35 17.61l4.08 3.6a901.32 901.32 0 0 1 23.75 21.44l.36.33 2.22 7.98 7-3.5-3.85-5.1.88-45.39-5.21-19.9c-17.3 7.98-37.52 15-57.86 21.78Zm340.3-10.63 24.83 9.6-14.17 7.46-14.6 19.86 55.4 4.83-2.42-27.38 20.99 6.64-7.81 13.7 3 19.83-88.56-9.34 25.12-32.62-1.78-12.58Zm4.3 5.41 1.15 8.14-22.2 28.82 77.83 8.22-2.5-16.56 6.26-10.99-11.86-3.75 2.33 26.3-65.76-5.72L776 167.38l8.08-4.24-12.1-4.68Zm-505.65-12.38 21 4.53-8.3 7.96-4.4 40.08 2.45-.66 46.44-4.71 9.75-7.28 4.47 22.8-14.73-4.64-45.03 5.15-16.99 5.4 6.83-57.5-1.49-11.13Zm4.13 4.47.89 6.62-6.24 52.56 12.14-3.86 46.1-5.28 9.82 3.1-2.27-11.56-6.06 4.53-47.13 4.79-7.11 1.9 5.1-46.42 4.46-4.29-9.7-2.1Z" clip-rule="evenodd"/>
      <path fill-rule="evenodd" d="m303.3 159.12 22.87 13.3-25.02 8.52 2.16-21.82Zm2.95 5.76-1.08 11 12.6-4.3-11.51-6.7Zm321.95-19.85c.37.47.68 1.06.97 1.67 1.73 3.67 4.21 9.42 4.36 31.17.88 2.38 2.02 5.11 3.18 7.89.61 1.46 1.23 2.94 1.81 4.38.86 2.1 1.64 4.13 2.21 5.86.54 1.65.97 3.28.95 4.48l-.03 1.73-24.88-.22-3.71-16.17 5.92-37.13 3.64-3.12c.55-.48 1.1-.91 1.61-1.22.5-.29 1.23-.61 2.09-.5.9.13 1.5.69 1.88 1.18Zm-2.5 2.55c-.2.15-.47.36-.8.64l-2.67 2.29-5.6 35.2 2.93 12.81 18.32.16c-.12-.46-.28-.98-.48-1.59a93.62 93.62 0 0 0-2.12-5.64c-.55-1.36-1.15-2.8-1.76-4.24a224.66 224.66 0 0 1-3.38-8.42l-.1-.29v-.3c-.13-21.7-2.6-26.94-4.04-30.01l-.3-.61Z" clip-rule="evenodd"/>
      <path fill-rule="evenodd" d="m628.13 133.15 10.3 19.7 2.19 21.5 8.3 21.5.54 13.83-17.1 11.37-22.83-15.55-3.18-21.11 7.13-39.95 14.65-11.3Zm-11.44 13.24-6.8 38.05 2.87 19.03 19.62 13.36 13.5-8.98-.43-11.28-8.27-21.4-2.16-21.3-8.06-15.4-10.27 7.92Z" clip-rule="evenodd"/>
      <g clip-path="url(#e)">
        <path fill-rule="evenodd" d="m-70.15 194.75 3.69-29.84 6.84-6.76-.65 27.67-9.88 8.93Zm4.63-8.9 1.79-1.61.37-15.94-2.16 17.55Z" clip-rule="evenodd"/>
        <path d="m-18.04 222.01.16-.72a.4.4 0 0 0-.04 0l-.12.72Zm.07-.76"/>
        <path fill-rule="evenodd" d="M-18.11 221.25h-.2.07a.9.9 0 0 1 .05 0h.01-.09v.01a2.49 2.49 0 0 1-.16.03.96.96 0 0 0-.07.03l.33 1.2.01.04v.05l-.45-1.26a1.34 1.34 0 0 0-.18.08h-.03l-.05.04.69 1.14h-.07l-.11-.12-.72-.88c-.02.02-.03.04-.05.04v.02h-.02.01l-.02.01-.03.03m.92-.44.12 1.16-.18-1.15.06-.01Z" clip-rule="evenodd"/>
        <path d="m-18.4 222.6-1-.61a1.48 1.48 0 0 0-.07.13l-.03.06 1.03.42h.07Zm-.18 0-.94-.34-.02.05.95.28h.01Zm.05.01.02.01h-.02Zm.43-.41.12-.93h-.08l-.03.93Zm-.07.42v.01l-.01-.01h.01Zm-.09 0 .06.06h-.03l-.09-.06h.06Zm-.12 0h-.06l.12.04h.03l-.09-.04Zm.23.05-.01-.04v.02l.01.02Zm-.03.01-.06-.06Zm.05-.35-.05-1.07h.05v1.07Zm-.63.25-.8-.2v.06l.8.14Zm.59.03h-.01m.03-.05-.02-.05-.26-1.21"/>
        <path fill-rule="evenodd" d="m-78.97 211.27 6.02-49.77 19.9-21.15-.13 41.97 10.47-.13 18.58-8.55 4.06 10 9.66 6.72L1.33 186l-2.97-34.41-21.57-1.21-2.78-18.47 33.74 10.31 5 51.37-23.26 9.48-19.6-12.22-1.3.27 3.7 12.04 6.18.06 4.8 16.37c.2.65.35 1.21.45 1.69.1.42.19.9.19 1.34a2.66 2.66 0 0 1-.02.38v.03l-.01.02a1.78 1.78 0 0 1-.1.37l-.02.03-.01.04c-.04.1-.1.22-.17.32l-.02.05-.03.04a1.87 1.87 0 0 1-.16.2l-.02.02-.06.06-.02.01a.58.58 0 0 1-.05.06l-.03.02-.05.04-.1.08-.1.07c-.05.02-.2.12-.4.18l-.05.02-.05.02a2.04 2.04 0 0 1-.5.06h-.3a2.1 2.1 0 0 1-.26-.04h-.02l-.03-.01c-.41-.1-.8-.31-1.1-.47l-1.07-.67-21.93-14.41c-.92-.6-1.78-1.2-2.28-1.72v-.01l-.02-.01a2.85 2.85 0 0 1-.69-1.33v-.05l-.01-.06-.01-.23v-.01a1.89 1.89 0 0 1 .03-.34l.01-.07.02-.06c.03-.13.08-.22.11-.3l.03-.06.04-.07.02-.05.04-.05a1.92 1.92 0 0 1 .12-.18l.07-.07.04-.05c.08-.08.2-.22.37-.33l.03-.02.03-.02.1-.06a1.95 1.95 0 0 1 .13-.07 5 5 0 0 1 1.62-.4 22.1 22.1 0 0 1 2.05-.1l4.04-.03-3.54-10.74-15.4.06-23.15 18.55Zm34.39-7.34Zm26.46 20.82Zm1.99-2.06Zm-58.34-19.52 17.42-13.95 19.16-.07 5.83 17.7-7.72.08 19.43 12.76-3.8-12.98-6.15-.07-5.6-18.15 6.45-1.35 19.27 12.03 19.19-7.83L4.5 144.9l-26.2-8 1.53 10.15 21.75 1.23 3.47 40.09-15.95 5.9-12.03-8.35-3.07-7.56-15.92 7.32-14.77.19.11-36.66-13.03 13.85-4.86 40.11Zm54.88 19.42a1.93 1.93 0 0 0 0 .12v.03-.04a2.2 2.2 0 0 1 0-.15v.04Zm.6-.01-.6-.03.02-.06.57.09Zm-.6.01.79.02Zm.79.02.32.04.27.08h.02l-.06.27.06-.26.03.02-.03.24.04-.24.02.03v.21l.01-.2.03.2-.01-.19.04.19-.03-.16.06.16-.05-.16.11.13-.06-.11.1.08-.12-.12.14.09-.17-.13-.01-.01.21.07-.2-.08.2.05-.22-.07v-.03l.26.04-.27-.05v-.08h.27-.27v-.17l.03-.13.25-1.02c.03 0 .05.02.05.02l-.03-.02a17.12 17.12 0 0 1-1.1-.67l-.41-.27.91-.27m-.89 1.75c0 .02-.02.04-.04.06l.88.61-.84-.67Zm.1-.12Zm.03-.02.02-.02.01-.01.78.82.1.12m-24.24-17.64Z" clip-rule="evenodd"/>
      </g>
      <path fill-rule="evenodd" d="m1306.36 135.6 19.65 7.82-7.75 7.4-13.58 42.62.63 9.14-41.86 15.46-15.35-24.2 43.29-.02 17.54-48.14-2.57-10.08Zm5.09 5.79 1.13 4.48-18.74 51.44-39.38.02 10.43 16.44 36.75-13.57-.5-7.2 14.06-44.1 4.45-4.25-8.2-3.26Zm459.51 17.79 24.7 38.72-27.05 5.07 2.35-43.79Zm2.91 11.07-1.52 28.46 17.57-3.3-16.05-25.16Z" clip-rule="evenodd"/>
      <path fill-rule="evenodd" d="m1764.27 133.83 49.08 71.46-54.23 10.12 5.15-81.58Zm2.85 10.34-4.22 66.98 44.52-8.31-40.3-58.67Zm-162.55-13.07 1.95 13.92 3.31 3.54-2.18 6.6 8.35 22.4-2.29 4.68 2.85 12.57 3.04-.06-1.82-25.47 16.3 4.03-6.77 9.02 4.48 40.15-2.98 1.43-21.35-21.34-3.55-18.8-4.04-5.07 2.02-5.36-2.81-15.98-3.81-4.85 1.18-6.9-6.35-10.57 14.47-3.95Zm-9.09 6.1 4.64 7.73-1.14 6.64 3.39 4.32 3.13 17.78-1.65 4.4 3.34 4.2 3.51 18.6 17.06 17.04-4.09-36.57 4.44-5.9-6.49-1.6 1.74 24.33-9.59.2-3.75-16.56 2.18-4.44-8.26-22.14 1.91-5.8-2.64-2.83-1.55-11.09-6.18 1.7Zm376.07-7.2 17.84 14.03-9.47 3.27-26.97 24.1-21.63 41.62.75 13.14-18.53-12.53 8.59-5.92 19.94-41.3 29.3-25.7.18-10.7Zm3.38 7.12-.09 5.2-29.93 26.25-20.03 41.5-5.13 3.53 8.42 5.7-.4-7.04 22.37-43.04 27.98-25 4.07-1.4-7.26-5.7Zm-514.85-4.84 9.3 7.8-.05 10.43-4.36.52.11 3.37c.31 9.82.6 18.58 3.23 27.28 3.04 10.03 9.25 20.05 22.61 31.16l4.55 3.79-5.87-.7c-13.84-1.65-29.07-2.22-43.84-2.77-5-.18-9.94-.37-14.77-.6l-4.71 5.18-15.76-11.39 33.21-8.49-5.02 5.64 31.65 1.21c-6.8-8.88-10.42-14.99-12.41-22.3-1.99-7.29-2.34-15.72-2.89-29.15l-.15-3.44-4.73-5.83 9.9-11.71Zm-26.58 71.81-14.87 3.8 7.17 5.18 3.72-4.07.82.03c5 .24 10.17.43 15.42.63 12.88.48 26.24.98 38.7 2.2-10.97-10.08-16.58-19.53-19.5-29.17-2.78-9.17-3.07-18.45-3.38-28.24l-.17-4.9-.06-1.62 4.5-.53.02-5.69-5.37-4.5-5.78 6.83 3.64 4.47.03.58.16 3.84c.56 13.67.9 21.67 2.77 28.56 2.02 7.38 5.84 13.54 14.1 24.03l2.35 2.98-46.6-1.78 2.33-2.63Zm-279.66-65.23 13.09 3.25-5.34 5.6-2.76 14-36.88 11.28-6.85.86 8.31 9.94 34.35-7.1 1.89-14.59 9.81 3.98-6.43 16.58L1152 185l-2.89 4.79-25.2 1.37-14.9 21.09-2.49 7.84-11.31-12.16 8.24-1.27 12.67-18.9L1105.8 175l-9.91.12 7.16-11.32 12.49 2.33 36.63-10.43 1.94-8.16-.27-8.67Zm2.6 3.27.18 5.67-2.36 9.95-38.61 10.99-11.41-2.13-3.73 5.9 6.46-.08 12.27 15.2-14.34 21.4-4.58.7 5.12 5.5 1.31-4.14 15.83-22.4 25.09-1.37 2.77-4.58 10.76-2.3 5.02-12.93-4.51-1.83-1.71 13.15-37.54 7.75-12.28-14.67 11.25-1.43 35.25-10.78 2.6-13.23 2.81-2.94-5.65-1.4Zm-77.15 39.22 7.7 11.33-12.32 4.5 4.62-15.83Zm.91 5.82-1.72 5.9 4.6-1.67-2.88-4.23Z" clip-rule="evenodd"/>
    </g>
    <g fill-rule="evenodd" clip-path="url(#f)" clip-rule="evenodd">
      <path d="m81.55 258 17.84 14.03-9.47 3.27-26.97 24.1-21.63 41.62.75 13.14-18.53-12.54 8.59-5.9 19.94-41.32 29.3-25.7.18-10.7Zm3.38 7.12-.09 5.2-29.93 26.25-20.03 41.5-5.13 3.53 8.42 5.7-.4-7.04 22.37-43.04 27.98-25 4.07-1.4-7.26-5.7ZM742.2 277.2l1 22.36-11.05-5.82-28.8 3.5-14.5 5.6.26 16.56 21.18 6.79 13.07.07-5.47 16.6-7.96-7.72-30.05-9.38-.54-23.11-5.41-5.73 16.65-16.2 17.27 6.34 24.7-2.84 9.66-7.01Zm-3.2 6.66-5.15 3.73-26.43 3.04-15.98-5.86-12.6 12.25 3.97 4.2.51 21.95 28.45 8.88 4.55 4.4 2.21-6.71-8.8-.05-24.07-7.72-.36-21.5 17.19-6.65 30.32-3.69 6.63 3.5-.44-9.77Zm9.5 19.87 15.36 8.83-14.7 10.55-.66-19.38Zm3.7 6.17.23 6.55 4.98-3.57-5.2-2.98Zm88.25-29.05 8.75 6.22 8.71-2.28 16.17 9.35 5.73 13.36 3.6-.28 3.87-8.04 27.69 11.89 2.94 16.26 7.5 9.7-14.83.38-2.74-19.72-19.09-2.93-14.36 4.44-5.45-10.71-5.01 2.56-6.76-10.34 3.32-1.65-4.87-2.36-3.07 5.56-7.21-5.22-5.1-.15.21-16.04Zm3.41 6.72-.08 5.92 2.74.08 4.88 3.53 2.76-5 14.25 6.9-6.16 3.09 2.88 4.42 5.33-2.73 5.71 11.2 12.32-3.8 22.46 3.44 2.66 19.2 4.8-.12-3.79-4.9-2.76-15.26-22.88-9.83-3.3 6.85-8.1.62-6.26-14.6-13.91-8.04-8.9 2.33-4.65-3.3Zm-605.51-19.78 2.38 2.17c-2.7 7.67-2.62 15.2-1.02 20.35l12.2 39.22-23.07-4.6.75-1.94c.52-1.36.91-4 1.12-7.52.2-3.45.2-7.54.05-11.64-.15-4.1-.45-8.2-.88-11.69a55.9 55.9 0 0 0-1.02-6.05l-9.57 3.5-11.48 18.63-2.64 21.94.89 4.1 4.96 3.74c.32.25.7.62.9 1.14.24.59.21 1.21-.03 1.75-.4.9-1.27 1.37-1.81 1.6-1.25.53-3.08.79-4.98.72-3.74-.14-8.88-1.66-10.93-6.59l-.18-.43 3.87-30.4 8.55-13.2.34-10.34 31.6-14.46Zm-28.17 16.74-.3 9.15-8.64 13.33-3.66 28.66c1.39 2.76 4.58 3.93 7.66 4.04.79.03 1.5-.02 2.1-.1l-4.43-3.35-1.29-5.94 2.8-23.28 12.53-20.31 14.08-5.16.6 1.62c.72 1.9 1.3 5 1.73 8.53a148.98 148.98 0 0 1 .84 23.95 44.6 44.6 0 0 1-.78 6.6l13.4 2.68-10.45-33.6c-1.57-5.05-1.81-11.78-.07-18.77l-26.12 11.95Zm-1.27 56.27Zm0-1.64a.2.2 0 0 1 .02 0h-.02Zm383.89-53.13 3.69 18.32-9.43-1.86-23.57 1.72c7.8 3.53 17.32 6.36 30.57 6.99l1.66.08.06 13.62-10.39-4.64c-8.28-.17-17.87-2.73-25.94-5.8a95.63 95.63 0 0 1-10.9-4.88 35.2 35.2 0 0 1-6.13-3.96l-26.28 2.72-7.76 5.87-2.4-17.94 9.69 2.99c13.46-2.48 40.25-4.66 69.16-6.79l7.98-6.44Zm-2.29 6.35-4.33 3.5-.55.04c-29.51 2.17-56.58 4.38-69.74 6.85l-.43.08-5.28-1.62.88 6.57 3.75-2.84 28.88-2.99.59.6c.95.96 2.99 2.35 5.92 3.92a92.3 92.3 0 0 0 10.5 4.7c8 3.04 17.32 5.49 25.1 5.58h.36l6.1 2.72-.03-4.89c-16.32-1.02-27.15-5.33-36.08-10.12l-5.3-2.85 36.43-2.67 4.75.94-1.52-7.52Zm623.63-21.99-3.83 33.62L1179.3 293l34.84-22.6Zm-26.98 21.68 20.17 7.17 2.49-21.88-22.66 14.7Zm26.02 16.57 30.65 10.9-34.41 22.11 3.76-33Zm2.98 4.78-2.43 21.3 22.21-14.27-19.78-7.03Z"/>
      <path d="m1222.64 256.64-5.26 46.18 42.02 14.91-58.49 37.55 5.2-45.44-42.31-15 58.84-38.2Zm-50.98 37.27 38.25 13.56-4.68 40.88 46.27-29.7-37.92-13.47 4.74-41.57-46.66 30.3Zm355.57-5.41 46.83 29.66-11.29 16.16-46.45-31.17 10.91-14.65Zm.87 4.69-6.78 9.1 40.55 27.2 7.22-10.34-40.99-25.96Z"/>
      <path d="m1535.07 277.4-1.77 7.65 40.73 26.94 8.74-4.86-.15 12.05-4.91 1.75-2.22 12.37-6.54 2.36-6.48 5.74-45.67-30.92-5.01 10.98-14.59-10.31 10.39-4.23 14.46-20.88-1.26-8.23 14.28-.4Zm-10.22 3.8.87 5.7-15.85 22.87-5.43 2.2 5.92 4.2 4.98-10.9 46.84 31.7 4.95-4.38 5.27-1.9 2.22-12.37 4.53-1.62.04-3.58-5.32 2.96-44.53-29.45 1.3-5.6-5.79.16Zm156.18-8.05 21.84 19.27 7.07 2.33-8 9.18-3.59-6.35-15.8-12.79-1.29-.05-4.18 4.47-9.73-.74 1.42-9.35 12.26-5.97Zm-9.53 7.98-.7 4.6 5.08.38 4.13-4.42 3.65.14 17.02 13.78 1.78 3.15 2.25-2.57-3.37-1.11-20.79-18.36-9.05 4.4Zm25.73 25.28 2.47 1.14.12 14.31-2.56 1.07-8.96-9.03 8.93-7.49Zm-4.51 7.7 4.07 4.1-.06-7.46-4.01 3.35Zm10.94 2.99 7.35 5.18-5.2 6.6-6.69-5.83 4.54-5.95Zm.64 4.11-1.09 1.43 2.19 1.91 1.3-1.64-2.4-1.7Zm21.85-1.23 6.77 11.27 14.14-.07.34 11.05-19.96-.15-.28-7.02-4.81-5.52-1.86.82-8.09 7.9-2.55-1.03-.34-12.85 16.64-4.4Zm-13.58 6.7.19 7.03 6.02-5.88 4.39-1.93 6.94 7.98.22 5.22 13.98.1-.16-5-12.92.05-6.49-10.8-12.17 3.23Zm111.74-48.63 23.42 4.33.21.1c8.88 4.3 17.81 8.78 25.84 14.5l.29.2 16.02 25.66 17.66 1.81 7.87-5.37 1.23 15.12-13.05-.28-11.34-3.19-8.91 1.46-.53-1.29c-5.91-14.5-13.66-24.1-22.76-30.2-9.1-6.1-19.71-8.77-31.52-9.17l-1.35-.05-3.08-13.63Zm4.59 4.4 1.31 5.84c11.75.56 22.57 3.4 32 9.7 9.51 6.37 17.46 16.2 23.52 30.5l6.93-1.14 11.66 3.28 8.73.18-.43-5.24-3.95 2.7-20.64-2.13-16.56-26.51c-7.63-5.4-16.14-9.67-24.84-13.9l-17.73-3.28Zm-475.18-21.32 10.17 11.85 7.32 1.7 10.06 34.56 35.65-.07-3.64 23.4.04 8.76 3.2 8.55-17.61-.1 4.21-9.16 1.77-20.45-68.4-5.07-2.14-24.46 33.01 18.77 2.51-.05-9.34-26.44-6.37-6.6-9.47-1.19 9.03-14Zm.4 5.84-3.47 5.38 5.17.65 7.76 8.04 11.2 31.73-8.32.16-28.04-15.95 1.29 14.85 68.98 5.1-2.13 24.6-2.2 4.78 7.1.04-1.64-4.37-.04-9.67 3.05-19.63-34.18.06-10.23-35.12-6.44-1.5-7.86-9.15ZM1079.98 283l7.02 7.15-5.21 4.39-1.33 31.76 3.49 4.81-8.34 4.47-2.71-6.89-17.77-8.6 5.17-5.78 12.99 6.27.38-22.87-17.72 5.93-.5-8.14 19.4-6.58 5.13-5.92Zm.12 3.69-3.81 4.38-18.23 6.18.19 2.98 17.97-6-.5 30.3-14.82-7.15-1.7 1.9 15.67 7.59 2.04 5.18 3.34-1.79-2.32-3.2 1.41-33.73 3.99-3.35-3.23-3.3Zm-64.86-.06 3.01 5.71 13.57 4.4 11.45.56.72 7.34-12.1-.65-12.54-4.04.56 14.94 12.44-4.55 14.24-.03-.1 7.25h-14.05l-12.07 5-5.89 4.74-7.78-5.16 5.92-5.2-.38-20.09-5.67-5.44 8.67-4.78Zm-4.49 5.33 3.97 3.8.42 22.3-4.33 3.8 3.53 2.34 4.74-3.82 12.87-5.32h12.07l.03-2.25-11.26.03-15.25 5.58-.82-21.94 15.63 5.03 8.87.48-.23-2.3-9.63-.48-14.85-4.8-2.3-4.36-3.46 1.91Zm38.07 3.3-.06-.01h-.4.46l-.6.03-.03.01c-3.55.57-4.79 4.52-2.59 6.85h.01c.78.82 1.91 1.3 3.31 1.3h.09l.08-.02a5.41 5.41 0 0 0 3.25-1.55 3.68 3.68 0 0 0 .97-2.89c-.22-2.01-2.01-3.59-4.49-3.72Zm-.19 2.5c-1.69.23-1.98 1.84-1.22 2.66.26.26.69.5 1.41.52a2.87 2.87 0 0 0 1.68-.77c.27-.3.35-.62.32-.92-.06-.57-.65-1.44-2.19-1.5Z"/>
      <path d="M1051.54 303.31h-.08l-.04-.01h-.3l-.06.01-.05.01-.06.01c-2.16.26-3.88 1.6-3.93 3.48-.03.97.44 1.86 1.25 2.47.79.6 1.87.91 3.15.94a5.41 5.41 0 0 0 3.35-.89 2.94 2.94 0 0 0 1.24-2.6c-.15-1.96-2.08-3.3-4.47-3.42Zm-.2 2.5c1.77.05 2.16.92 2.18 1.12.01.08-.01.23-.24.4-.25.18-.8.4-1.81.39m-.13-1.91c-1.54.14-1.81.91-1.82 1.07 0 .08.02.23.25.4a3 3 0 0 0 1.7.44m3.25 9.51a3.9 3.9 0 0 1-3.02 1.27c-2.62.02-4.31-1.75-4.53-3.7-.11-.97.14-1.99.84-2.78a4 4 0 0 1 3.05-1.27c2.62-.03 4.28 1.77 4.49 3.7a3.6 3.6 0 0 1-.83 2.78Zm-1.65-2.5c-.08-.69-.67-1.5-1.98-1.48-.7 0-1.04.24-1.21.42-.17.2-.27.5-.23.84.08.67.67 1.5 2.03 1.49.67 0 1-.23 1.15-.41.18-.2.28-.5.24-.86Zm-687.75-10.98 25.7 3.44 4.44 21.4-1.8.3a59.54 59.54 0 0 0-16.66 5.46l-1.84.91-9.84-31.51Zm4.98 4.2 6.99 22.38a63.21 63.21 0 0 1 14-4.57l-3.2-15.43-17.79-2.39Z"/>
      <path d="M401.35 265.38h15.13l-3.06 7.46c.56 13.47-3.26 26.25-13.98 37.64l5.16 24.25-2 .14c-12.96.93-23.02 3.9-29.05 8.4l-1.98 1.48-15.5-49.07 37.95 4.67c5.87-6.03 10.16-13.9 9.74-27.45l-2.4-7.52Zm4.8 3.5 1.1 3.42v.24c.53 15.2-4.5 24.11-11.36 30.9l-.6.59-34.24-4.21 12.4 39.28c6.48-4.04 15.78-6.57 26.9-7.56l-4.73-22.15.65-.67c10.6-10.92 14.26-23.1 13.64-36.1l-.02-.4 1.38-3.35h-5.12Z"/>
    </g>
    <g fill-rule="evenodd" clip-path="url(#g)" clip-rule="evenodd">
      <path d="m171.46 420.2 6.7 7.14c7.79 1.65 15.8 3.52 23.57 8 7.95 4.58 15.53 11.84 22.47 24.17l8.87 11.64-17 .04-.45-9.14a38.26 38.26 0 0 0-16.08-17.74c-7.5-4.28-17.31-6.77-29.91-7.06l-2.16-.05 3.99-17Zm1.91 7.16-1.51 6.46c12 .52 21.73 3.07 29.41 7.45a41.81 41.81 0 0 1 17.68 19.63l.14.3.3 6.48 6.62-.01-4.75-6.24-.06-.1c-6.69-11.92-13.86-18.72-21.22-22.97-7.4-4.27-15.1-6.03-23.08-7.71l-.54-.11-2.99-3.18Zm74.77 1.24 13.89 11.6-18.17 3.16 4.28-14.77Zm1.87 6.12-1.23 4.23 5.21-.9-3.98-3.33Zm467.06-32.98 21.67 71.48 8.22 2.9-.93 1.8a21.09 21.09 0 0 1-5.13 6.03c-.98.82-2 1.54-2.95 2.07-.9.5-1.92.95-2.86 1.03l-1.5.13-2.33-10.14-19.55-59.81-10.57 9.56 12.99 29.86 6.71 8.44-14.64 3.79.6-9.37-12.61-26.57-12.39 1.79-13.8-15.5 10.03-13.72 9.44 19 4.49.17c.48-2.88 1.37-6 4.17-9.37 3.24-3.9 8.93-8.02 19.12-12.73l1.82-.84Zm-18.25 15.8c-2.68 3.24-3.2 6.09-3.63 9.18l-.21 1.57-9.72-.36-7.8-15.7-4.97 6.79 10.67 11.97 13.08-1.88 14.1 29.72-.34 5.45 4.75-1.23-3.65-4.58-14.17-32.59 16.44-14.86 21.26 65.08 1.58 6.88.02-.01a20.55 20.55 0 0 0 5.58-4.95l-5.9-2.09-21.02-69.31c-8.8 4.24-13.48 7.82-16.07 10.93Zm-124.22-5.2 9.16-7.7 2.83.96 3.99 18.19-2.32 2.01-11.67-4.35c-27.77 8.88-48.19 25.12-63.49 45.23l.3 10.49-2.74 1.5-14.59-10.01.28-3.05 9.07-4.04c14.54-20.08 32.84-38.66 69.18-49.23Zm9.2-3.16-7.52 6.31-.36.1c-35.84 10.35-53.62 28.55-67.94 48.42l-.27.38-7.08 3.15 9.17 6.29-.23-8.28.37-.5c15.83-20.98 37.11-37.96 66.17-47.12l.58-.18 9.78 3.65-2.68-12.22ZM2.31 416.05l23.42 4.33.2.1c8.9 4.3 17.82 8.78 25.85 14.5l.29.2 16.02 25.66 17.66 1.81 7.87-5.37 1.23 15.12-13.05-.28-11.34-3.19-8.91 1.46-.53-1.29c-5.91-14.5-13.66-24.1-22.76-30.2-9.1-6.1-19.71-8.77-31.52-9.17l-1.35-.05-3.08-13.63Zm4.59 4.4 1.31 5.84c11.75.56 22.57 3.4 32 9.7 9.51 6.37 17.46 16.2 23.52 30.5l6.93-1.14 11.66 3.28 8.73.18-.43-5.24-3.96 2.7-20.63-2.13-16.56-26.51c-7.63-5.4-16.14-9.67-24.84-13.9L6.9 420.45Zm328.45-18.42 10.82 8.73 33.1 7.6 10.95-4.76-8.41 22.5-5.8-8.56-31.95-7.8-11.47 2.58 2.76-20.29Zm2.63 6.62-1.24 9.15 7.35-1.66 34.05 8.32 2.76 4.07 3.15-8.44-4.43 1.93L344.6 414l-6.62-5.34Zm54.96 29.25 9.58 14.79-8.12 5.66-9.11-14.15 7.65-6.3Zm-3.02 7.03 5.45 8.47 2.38-1.65-5.61-8.65-2.22 1.82Zm16.03 18.36 18.72 8.82-19.02 15.26.3-24.08Zm3.43 5.48-.14 11.23 8.87-7.11-8.73-4.12Z"/>
    </g>
    <g fill-rule="evenodd" clip-path="url(#h)" clip-rule="evenodd">
      <path d="m1167.27 433.52 15.62 3.76-3.38 15.64-.79.36c-4.39 2.06-10.43 2.23-14.47-1.78l-.68-.68 3.7-17.3Zm2.67 4.24-2.53 11.86c2.46 1.88 5.95 2.01 9.05.82l2.28-10.56-8.8-2.12Z"/>
      <path d="m1215.73 400.63 12.13 14.24-9.59 1.5-28.76 20.52-3.81 17.18 19.72 11.46 10.45 1.07-10.21 13.8-5.07-6.69-23.5-13.73a14.68 14.68 0 0 1-6.08.95c-1.99-.16-4.09-.83-6.74-2.08l-7.56 17.93.05 10.7-19.01-8.03 8.95-5.87 10.4-24.2 3.96-17.7-6.94-14.24 22.49-16.63 25.56.35-14.99 14.44-8.66-4.05-.24.18c-1.11.84-2.46 1.85-3.83 3.76-1.68 2.32-3.29 5.93-3.54 11.73l12.3 3 29.35-21.04 3.17-8.55Zm-37.99 3.7-19.2 14.19 6.2 12.73-4.3 19.22-10.94 25.46-4.35 2.85 8.09 3.42-.03-6.12 9.29-22.05 1.69.87c3.35 1.73 5.41 2.4 7.1 2.54 1.65.14 3.13-.23 5.41-1.03l.77-.27 25.48 14.9 2.67 3.52 3.78-5.1-5.08-.52-22.6-13.13 4.67-20.99 30.52-21.79 4.23-.65-4.2-4.93-1.47 3.95-31.53 22.6-16.57-4.04.01-1.38c.04-7.27 1.95-11.99 4.23-15.14a22.1 22.1 0 0 1 4.89-4.77c.28-.2.49-.36.61-.47l.86-.77 8.51 3.98 7.13-6.87-15.87-.21Zm173.53-5.54 32.6 32.73.18 13.3-2.84-2.1c-4.01-2.96-9.72-8.82-15.71-15.26-2.29-2.45-4.62-5-6.94-7.53-3.83-4.18-7.61-8.3-11.07-11.9l-.9-.94 4.68-8.3Zm.78 5.74-1.14 2.01c3.24 3.4 6.75 7.23 10.28 11.08 2.31 2.52 4.63 5.05 6.87 7.46 4.65 5 8.96 9.46 12.39 12.5l-.06-4.6-28.34-28.45Zm-.82 10.77 9.78 11.41-.68 1.1c-2.09 3.32-4.36 6.83-6.67 10.4-2.78 4.3-5.62 8.68-8.28 12.97-4.74 7.64-8.62 14.5-10.1 19.03l1.85 18-27.49-19.17 13.87-3.42.37-.56c12.11-18.26 22.42-33.8 26.42-46.73l.93-3.03Zm1.41 7.02c-4.68 12.78-14.56 27.67-25.59 44.3l-1 1.5-.37.57-7.7 1.9 14.89 10.38-1.15-11.11.11-.35c1.55-5.03 5.76-12.42 10.58-20.17 2.63-4.24 5.54-8.74 8.36-13.11 2.06-3.19 4.08-6.3 5.91-9.2l-4.04-4.71Zm175.22-22.52 18.33 4.58-8.23 9.88-4.87 29.52.33 1.64c1.39 6.98 3.18 15.93 3.87 23.97l6.88 8.13-18.36 3.57 2.02-10.2c-.87-8.91-2.8-18.13-4.36-23.8l-21.08-5.12-12.61 5.76 9.12-25.18 5.27 10.98 19.18 4 6.12-25.84-1.61-11.89Zm4.16 4.65 1.01 7.42-7.06 29.78-24.2-5.05-2.42-5.03-3.44 9.51 6.13-2.8 24.23 5.88.29.98a154.8 154.8 0 0 1 4.78 25.66l.02.26-1.11 5.6 7.39-1.43-3.75-4.44-.04-.56c-.64-7.96-2.43-16.96-3.87-24.15l-.38-1.93-.07-.3 5.13-31.1 5.27-6.32-7.91-1.98Z"/>
      <path d="m1515.01 447.43 5.67 8.2-19.39 12.73-6.86-7.73 20.58-13.2Zm-15.25 13.94 2.14 2.4 13.86-9.1-1.71-2.47-14.29 9.17Zm-6 2.6.3 1.46c.86 4.18.4 8.33-.02 12.17l-.08.75-.34 3.12-2.48-1.94a84.26 84.26 0 0 1-12.55-12.1l-2.27-2.71 17.44-.75Zm-10.1 3.93a82.64 82.64 0 0 0 7.16 6.86c.23-2.47.35-4.83.05-7.16l-7.21.3ZM1691.5 409l15.58 3.81-10.2 11.14-31.8 3.3.04 40.21 17.16-15.26 28.86-1.86-3.65 8.42 4.54 9.3-24.28-5.21-28.42 21.61-17.14-35.85 14.72-30.78 30.96-1.72 3.63-7.1Zm1.86 4.06-3.29 6.44-30.9 1.7-13.1 27.41 14.57 30.46 26.27-19.98 18.81 4.04-2.09-4.29 2.02-4.64-21.94 1.41-19.18 17.05-2.91-1.3-.04-47.26 33.62-3.49 5.31-5.8-7.15-1.75Zm184.52 9.64 14.02 10.1-8.27 3.31-14.3 16.2-19.73-.94-3.38 4.44-17.51-11.71-20.95 14.07-3.07 9.24-11.29-14.98 9.4-1.21 23.64-15.87 30.32.99-2.44 6.13 11.4 1.05 10.52-12.49 1.64-8.34Zm2.38 6.03-.76 3.87-12.28 14.58-17.87-1.65 2.32-5.85-24.21-.8-23.4 15.7-4.24.55 3.65 4.85 1.35-4.05 23.88-16.05 16.73 11.19 2.5-3.28 19.89.94 13.74-15.56 3.13-1.25-4.43-3.2ZM853 408.71a8.56 8.56 0 0 0-8.57 8.54 8.56 8.56 0 0 0 8.57 8.54 8.56 8.56 0 0 0 8.57-8.54 8.56 8.56 0 0 0-8.57-8.54Zm-4.9 8.54a4.89 4.89 0 1 1 9.78.02 4.89 4.89 0 0 1-9.78-.02Z"/>
      <path d="M868.3 417.25c0 7.24-5.06 13.3-11.85 14.86L897 486h-38.52l10.18-15.15L853 451.37l-15.66 19.48L847.52 486H809l40.55-53.89a15.27 15.27 0 0 1-11.86-14.86c0-8.42 6.85-15.25 15.31-15.25s15.3 6.83 15.3 15.25ZM853 405.66a11.61 11.61 0 0 0-11.63 11.59c0 6.4 5.2 11.59 11.63 11.59a11.6 11.6 0 1 0 0-23.18Zm0 27.97-36.65 48.71h24.29l-7.85-11.69L853 445.52l20.2 25.13-7.84 11.69h24.3L853 433.64Zm155.1-22.03 27.96 1.8-9.5 24.34-18.94-.26.48-25.88Zm3.43 3.73-.34 18.7 13 .17 6.87-17.6-19.53-1.27Z"/>
      <path d="m1000.33 403.85 47.22 3.16-12.74 33.08 12.92 21.76-.37 14.7 6.42 8.3-23.89-.23 6.3-8.9.09-9.76-11.61-20.4-16.74-.03-7.61 14.43 3.49 11.64 1.94 14.44-24.34-.05 10.9-10.25-5.27-18.47 12.35-18.84.94-34.58Zm3.4 3.74-.87 31.92-12.02 18.34 5.42 18.98-6.04 5.68 11.53.02-1.37-10.2-3.82-12.73 9.26-17.57 20.89.03 13.08 22.98-.11 11.8-3.07 4.35 9.99.09-2.77-3.58.38-14.93-13.27-22.36 11.64-30.23-38.85-2.6Z"/>
    </g>
  </g>
  <defs>
    <clipPath id="a">
      <path fill="#fff" d="M0 0h1920v496H0z"/>
    </clipPath>
    <clipPath id="b">
      <use xlink:href="#i"/>
    </clipPath>
    <clipPath id="c">
      <use xlink:href="#j" transform="rotate(-90 957.5 -857.5)"/>
    </clipPath>
    <clipPath id="d">
      <use xlink:href="#i" transform="translate(-1898 128)"/>
    </clipPath>
    <clipPath id="e">
      <use xlink:href="#j" transform="rotate(-90 72.5 155.5)"/>
    </clipPath>
    <clipPath id="f">
      <use xlink:href="#i" transform="translate(-3788 256)"/>
    </clipPath>
    <clipPath id="g">
      <use xlink:href="#i" transform="translate(-5610 394)"/>
    </clipPath>
    <clipPath id="h">
      <use xlink:href="#i" transform="translate(803 394)"/>
    </clipPath>
  </defs>
</svg>
