<svg class="background" width="1920" height="1080" viewBox="0 0 1920 1080" fill="none" xmlns="http://www.w3.org/2000/svg">
<g id="background" clip-path="url(#clip0_0_1)">
<rect width="1920" height="1080" fill="white"/>
<g id="symbols" clip-path="url(#clip1_0_1)">
<rect width="4660" height="100" fill="white"/>
<g id="virgo">
<path id="path1349" fill-rule="evenodd" clip-rule="evenodd" d="M394.89 8.84814L374.172 8.56824L353.333 23.9779L359.897 37.4627L355.767 55.9256L345.098 80.7546L338.453 85.1174L351.998 90.8406L351.963 82.4307L360.383 62.452C367.205 65.9705 369.635 65.6939 374.284 64.0585L398.77 78.3763L402.641 83.477L409.634 74.0278L401.871 73.2352L380.71 60.9401L384.949 41.8547L414.594 20.6996L421.498 19.6258L413.335 10.0389L411.018 16.2942L380.575 38.1166L366.129 34.5898C366.201 20.7001 373.403 17.1758 375.276 15.505L383.833 19.5064L394.89 8.84814ZM365.605 41.6412L377.815 44.5794L374.978 57.6987C370.998 59.5601 365.825 59.5784 362.48 56.2536L365.605 41.6412Z" stroke="black" stroke-width="3.5"/>
</g>
<g id="bo&#195;&#182;tes">
<path id="path1349_2" fill-rule="evenodd" clip-rule="evenodd" d="M548.656 7.65625L545.75 12.8125C556.868 24.3823 571.539 41.6278 579.25 47.3125L579.125 38.25L548.656 7.65625ZM548.969 24.8438C544.798 38.3358 533.956 54.5098 521.594 73.1562L510.812 75.8125L532 90.5938L530.5 76.0312C533.456 66.4551 546.811 47.2696 555.844 32.875L548.969 24.8438Z" stroke="black" stroke-width="3.5"/>
</g>
<g id="centarus">
<path id="path1349_3" fill-rule="evenodd" clip-rule="evenodd" d="M726.938 8.125L728.25 17.7812L721.656 45.5938L699.969 41.0625L696.125 33.0625L689.844 50.4062L699.219 46.125L721.875 51.625C723.517 57.3182 725.677 67.3373 726.594 76.9688L725.031 84.875L737.906 82.375L732.594 76.0938C731.889 67.2719 729.783 57.221 728.312 49.8125L733.312 19.5L740.062 11.4062L726.938 8.125ZM711.531 55.8125L694.094 67L698.594 72.0625L715.219 61.1562L711.531 55.8125ZM689.344 71.7812L676.938 72.3125C680.3 76.3375 684.5 80.4657 689.219 84.1562C689.666 80.0326 690.195 75.9049 689.344 71.7812Z" stroke="black" stroke-width="3.5"/>
</g>
<g id="corona-australis">
<path id="path1349_4" fill-rule="evenodd" clip-rule="evenodd" d="M1547.84 18.5938L1533.84 36.5938L1534.53 39.3125C1542.09 38.6995 1555.24 43.5651 1555.22 56.4062C1555.19 69.3729 1541.84 74.4009 1529.22 74.25L1529.28 81.0312L1542.5 81.0625C1556.44 81.0927 1563.93 66.0181 1564.03 55.7812C1564.14 45.4189 1556.65 38.8082 1550.06 35.5312L1547.84 18.5938ZM1510.94 56.5938L1499.44 76.375H1520.84L1510.94 56.5938Z" stroke="black" stroke-width="3.5" stroke-miterlimit="2.4"/>
</g>
<g id="coupe">
<path id="path1349_5" fill-rule="evenodd" clip-rule="evenodd" d="M199.031 10.7188L198.125 43.9688L185.938 62.5625L191.281 81.2812L182.812 89.25L200.75 89.2812L199.094 76.9688L195.438 64.7812L203.875 48.7812L222.688 48.8125L235.031 70.5L234.938 81.2812L230.25 87.9062L247.188 88.0625L242.594 82.125L242.969 67.3125L229.875 45.25L242.062 13.5938L199.031 10.7188ZM206.812 18.4688L230.562 20L222.375 40.9688L206.406 40.75L206.812 18.4688Z" stroke="black" stroke-width="3.5"/>
</g>
<g id="libra">
<path id="path1349_6" fill-rule="evenodd" clip-rule="evenodd" d="M889.428 17.0334L885.973 23.8039L855.038 25.5185L841.129 54.6134L856.985 87.7677L884.329 66.9684L905.875 71.5956L902.559 64.7994L905.396 58.2737L879.994 59.9064L860.372 77.3562L860.329 31.6772L893.043 28.283L900.797 19.8128L889.428 17.0334Z" stroke="black" stroke-width="3.5" stroke-miterlimit="2.3"/>
</g>
<g id="norma">
<path id="path1349_7" fill-rule="evenodd" clip-rule="evenodd" d="M1225.53 20.1875L1212.56 35.875L1233.47 39.2812L1225.53 20.1875ZM1192.78 52.125L1179.31 71.6875L1200.34 73.4688L1192.78 52.125Z" stroke="black" stroke-width="3.5"/>
</g>
<g id="scorpius">
<path id="path1349_8" fill-rule="evenodd" clip-rule="evenodd" d="M1377.48 13.8564C1377.19 58.095 1357.95 67.6921 1343.28 67.1608L1343.13 53.6449L1350.76 46.779L1332.29 45.6847L1336.78 52.2441C1337.46 57.1662 1337.78 70.1468 1331.11 90.1712L1346.34 90.0743L1343.63 74.0428C1370.53 73.9147 1383.92 50.0262 1384.09 21.4992L1401.83 21.4427L1404.26 32.302L1394.15 39.0209L1400.1 49.5038C1401.71 48.1923 1402.54 44.0891 1402.51 41.2507L1411.44 34.6287L1407.57 15.0832L1377.48 13.8564Z" stroke="black" stroke-width="3.5"/>
</g>
<g id="serpent-captus">
<path id="path1349_9" fill-rule="evenodd" clip-rule="evenodd" d="M1085.29 38.3634L1076.07 31.7085L1074.87 37.8146L1063.47 51.3511L1048.84 50.001L1051.21 44.0073L1023.95 43.1137L1000.43 58.9023L993.608 59.7793L1001.08 69.6931L1003.29 63.0526L1025.71 47.9884L1042.82 59.4359L1045.76 55.5761L1065.57 56.5138L1079.6 40.6409L1085.29 38.3634Z" stroke="black" stroke-width="3.5"/>
</g>
<g id="sagitaruis">
<path id="path1349_10" fill-rule="evenodd" clip-rule="evenodd" d="M1821.28 79.2188L1841.56 62.9688L1858.84 62.9063L1863.53 77.125L1857.09 77.1875C1855.54 77.2035 1854.59 77.3013 1854.19 77.5C1854.17 77.5084 1854.14 77.5226 1854.12 77.5313C1854.09 77.5537 1854.05 77.5999 1854.03 77.625C1854.03 77.6302 1854 77.651 1854 77.6563C1854 77.6617 1854 77.6821 1854 77.6875C1854 77.6931 1853.97 77.7131 1853.97 77.7188C1853.97 77.7246 1853.97 77.7441 1853.97 77.75C1853.97 77.7622 1853.97 77.7999 1853.97 77.8125C1853.97 77.8255 1854 77.8616 1854 77.875C1854.03 77.9707 1854.11 78.0964 1854.22 78.2188C1854.56 78.5742 1855.24 79.0656 1856.19 79.6875L1878.12 94.0938C1878.89 94.5972 1879.42 94.9199 1879.75 95C1879.76 95.0032 1879.8 94.9979 1879.81 95C1879.83 95.0016 1879.86 94.9995 1879.88 95C1879.88 95 1879.9 95.0003 1879.91 95C1879.91 94.9995 1879.93 95.0009 1879.94 95C1879.94 94.9989 1879.96 95.0015 1879.97 95C1879.98 94.9949 1880.02 94.9765 1880.03 94.9688C1880.04 94.9657 1880.06 94.941 1880.06 94.9375C1880.07 94.9335 1880.09 94.9106 1880.09 94.9063C1880.1 94.8924 1880.12 94.8604 1880.12 94.8438C1880.13 94.8379 1880.12 94.8187 1880.12 94.8125C1880.13 94.7996 1880.15 94.7642 1880.16 94.75C1880.16 94.7204 1880.15 94.6598 1880.16 94.625C1880.16 94.1927 1879.96 93.3621 1879.59 92.0938L1875.16 76.9688L1869 76.9063L1864.34 61.8125L1868.22 61L1887.66 73.125L1908.88 64.4688L1904.12 15.5625L1874.16 6.4063L1876.31 20.7188L1897.97 21.9375L1901.19 59.1875L1887.34 64.3125L1876.5 56.7813L1872.94 48L1855.69 55.9375L1843.06 56.0938L1843.19 16.7813L1826.72 34.2813L1821.28 79.2188ZM1830.17 62.3027L1833.2 37.727L1836.53 34.4375L1836 57.0313L1830.17 62.3027Z" stroke="black" stroke-width="3.5"/>
</g>
<g id="scutum">
<path id="path1349_11" fill-rule="evenodd" clip-rule="evenodd" d="M1717.28 81.9688L1708.44 77.75L1692.09 51.4063L1685.91 10.0938C1685.45 7.05994 1683.38 7.04412 1682.66 10.0313L1671.56 55.625L1690.09 60.0938L1703.31 81.75L1703.56 91.1875L1717.28 81.9688ZM1707.25 53.7188L1701.84 32.3438L1696.94 33.7188L1702.31 54.7813L1707.25 53.7188ZM1685.59 51.5938L1679.41 49.8125L1683.25 33.4375L1685.59 51.5938Z" stroke="black" stroke-width="3.5" stroke-miterlimit="6"/>
</g>
<g id="earth">
<g id="path">
<path fill-rule="evenodd" clip-rule="evenodd" d="M50 14.7095C45.2654 14.7095 41.4272 18.5328 41.4272 23.249C41.4272 27.9652 45.2654 31.7884 50 31.7884C54.7346 31.7884 58.5728 27.9652 58.5728 23.249C58.5728 18.5328 54.7346 14.7095 50 14.7095ZM45.1013 23.249C45.1013 20.554 47.2945 18.3693 50 18.3693C52.7055 18.3693 54.8987 20.554 54.8987 23.249C54.8987 25.9439 52.7055 28.1286 50 28.1286C47.2945 28.1286 45.1013 25.9439 45.1013 23.249Z" fill="black"/>
<path fill-rule="evenodd" clip-rule="evenodd" d="M65.3086 23.249C65.3086 30.4903 60.2414 36.5527 53.4465 38.1099L94 92H55.484L65.6576 76.8482L50 57.3715L34.3424 76.8482L44.516 92H6L46.5536 38.1099C39.7586 36.5527 34.6914 30.4903 34.6914 23.249C34.6914 14.8272 41.5453 8 50 8C58.4547 8 65.3086 14.8272 65.3086 23.249ZM50 11.6598C43.5744 11.6598 38.3655 16.8484 38.3655 23.249C38.3655 29.6495 43.5744 34.8382 50 34.8382C56.4256 34.8382 61.6345 29.6495 61.6345 23.249C61.6345 16.8484 56.4256 11.6598 50 11.6598ZM50 39.6318L13.3457 88.3402H37.6386L29.7918 76.6538L50 51.5165L70.2082 76.6538L62.3614 88.3402H86.6543L50 39.6318Z" fill="black"/>
</g>
</g>
</g>
<g id="symbols_2" clip-path="url(#clip2_0_1)">
<rect width="4660" height="100" transform="translate(0 420)" fill="white"/>
<g id="virgo_2">
<path id="path1349_12" fill-rule="evenodd" clip-rule="evenodd" d="M394.89 428.848L374.172 428.568L353.333 443.978L359.897 457.463L355.767 475.926L345.098 500.755L338.453 505.117L351.998 510.841L351.963 502.431L360.383 482.452C367.205 485.971 369.635 485.694 374.284 484.059L398.77 498.376L402.641 503.477L409.634 494.028L401.871 493.235L380.71 480.94L384.949 461.855L414.594 440.7L421.498 439.626L413.335 430.039L411.018 436.294L380.575 458.117L366.129 454.59C366.201 440.7 373.403 437.176 375.276 435.505L383.833 439.506L394.89 428.848ZM365.605 461.641L377.815 464.579L374.978 477.699C370.998 479.56 365.825 479.578 362.48 476.254L365.605 461.641Z" stroke="black" stroke-width="3.5"/>
</g>
<g id="bo&#195;&#182;tes_2">
<path id="path1349_13" fill-rule="evenodd" clip-rule="evenodd" d="M548.656 427.656L545.75 432.812C556.868 444.382 571.539 461.628 579.25 467.312L579.125 458.25L548.656 427.656ZM548.969 444.844C544.798 458.336 533.956 474.51 521.594 493.156L510.812 495.812L532 510.594L530.5 496.031C533.456 486.455 546.811 467.27 555.844 452.875L548.969 444.844Z" stroke="black" stroke-width="3.5"/>
</g>
<g id="centarus_2">
<path id="path1349_14" fill-rule="evenodd" clip-rule="evenodd" d="M726.938 428.125L728.25 437.781L721.656 465.594L699.969 461.062L696.125 453.062L689.844 470.406L699.219 466.125L721.875 471.625C723.517 477.318 725.677 487.337 726.594 496.969L725.031 504.875L737.906 502.375L732.594 496.094C731.889 487.272 729.783 477.221 728.312 469.812L733.312 439.5L740.062 431.406L726.938 428.125ZM711.531 475.812L694.094 487L698.594 492.062L715.219 481.156L711.531 475.812ZM689.344 491.781L676.938 492.312C680.3 496.338 684.5 500.466 689.219 504.156C689.666 500.033 690.195 495.905 689.344 491.781Z" stroke="black" stroke-width="3.5"/>
</g>
<g id="corona-australis_2">
<path id="path1349_15" fill-rule="evenodd" clip-rule="evenodd" d="M1547.84 438.594L1533.84 456.594L1534.53 459.312C1542.09 458.7 1555.24 463.565 1555.22 476.406C1555.19 489.373 1541.84 494.401 1529.22 494.25L1529.28 501.031L1542.5 501.062C1556.44 501.093 1563.93 486.018 1564.03 475.781C1564.14 465.419 1556.65 458.808 1550.06 455.531L1547.84 438.594ZM1510.94 476.594L1499.44 496.375H1520.84L1510.94 476.594Z" stroke="black" stroke-width="3.5" stroke-miterlimit="2.4"/>
</g>
<g id="coupe_2">
<path id="path1349_16" fill-rule="evenodd" clip-rule="evenodd" d="M199.031 430.719L198.125 463.969L185.938 482.562L191.281 501.281L182.812 509.25L200.75 509.281L199.094 496.969L195.438 484.781L203.875 468.781L222.688 468.812L235.031 490.5L234.938 501.281L230.25 507.906L247.188 508.062L242.594 502.125L242.969 487.312L229.875 465.25L242.062 433.594L199.031 430.719ZM206.812 438.469L230.562 440L222.375 460.969L206.406 460.75L206.812 438.469Z" stroke="black" stroke-width="3.5"/>
</g>
<g id="libra_2">
<path id="path1349_17" fill-rule="evenodd" clip-rule="evenodd" d="M889.428 437.033L885.973 443.804L855.038 445.518L841.129 474.613L856.985 507.768L884.329 486.968L905.875 491.595L902.559 484.799L905.396 478.274L879.994 479.906L860.372 497.356L860.329 451.677L893.043 448.283L900.797 439.813L889.428 437.033Z" stroke="black" stroke-width="3.5" stroke-miterlimit="2.3"/>
</g>
<g id="norma_2">
<path id="path1349_18" fill-rule="evenodd" clip-rule="evenodd" d="M1225.53 440.188L1212.56 455.875L1233.47 459.281L1225.53 440.188ZM1192.78 472.125L1179.31 491.688L1200.34 493.469L1192.78 472.125Z" stroke="black" stroke-width="3.5"/>
</g>
<g id="scorpius_2">
<path id="path1349_19" fill-rule="evenodd" clip-rule="evenodd" d="M1377.48 433.857C1377.19 478.095 1357.95 487.692 1343.28 487.161L1343.13 473.645L1350.76 466.779L1332.29 465.685L1336.78 472.244C1337.46 477.166 1337.78 490.147 1331.11 510.171L1346.34 510.074L1343.63 494.043C1370.53 493.915 1383.92 470.026 1384.09 441.499L1401.83 441.443L1404.26 452.302L1394.15 459.021L1400.1 469.504C1401.71 468.192 1402.54 464.089 1402.51 461.251L1411.44 454.629L1407.57 435.083L1377.48 433.857Z" stroke="black" stroke-width="3.5"/>
</g>
<g id="serpent-captus_2">
<path id="path1349_20" fill-rule="evenodd" clip-rule="evenodd" d="M1085.29 458.363L1076.07 451.708L1074.87 457.815L1063.47 471.351L1048.84 470.001L1051.21 464.007L1023.95 463.114L1000.43 478.902L993.608 479.779L1001.08 489.693L1003.29 483.053L1025.71 467.988L1042.82 479.436L1045.76 475.576L1065.57 476.514L1079.6 460.641L1085.29 458.363Z" stroke="black" stroke-width="3.5"/>
</g>
<g id="sagitaruis_2">
<path id="path1349_21" fill-rule="evenodd" clip-rule="evenodd" d="M1821.28 499.219L1841.56 482.969L1858.84 482.906L1863.53 497.125L1857.09 497.187C1855.54 497.203 1854.59 497.301 1854.19 497.5C1854.17 497.508 1854.14 497.522 1854.12 497.531C1854.09 497.554 1854.05 497.6 1854.03 497.625C1854.03 497.63 1854 497.651 1854 497.656C1854 497.662 1854 497.682 1854 497.687C1854 497.693 1853.97 497.713 1853.97 497.719C1853.97 497.725 1853.97 497.744 1853.97 497.75C1853.97 497.762 1853.97 497.8 1853.97 497.812C1853.97 497.825 1854 497.862 1854 497.875C1854.03 497.971 1854.11 498.096 1854.22 498.219C1854.56 498.574 1855.24 499.066 1856.19 499.687L1878.12 514.094C1878.89 514.597 1879.42 514.92 1879.75 515C1879.76 515.003 1879.8 514.998 1879.81 515C1879.83 515.002 1879.86 514.999 1879.88 515C1879.88 515 1879.9 515 1879.91 515C1879.91 514.999 1879.93 515.001 1879.94 515C1879.94 514.999 1879.96 515.001 1879.97 515C1879.98 514.995 1880.02 514.976 1880.03 514.969C1880.04 514.966 1880.06 514.941 1880.06 514.937C1880.07 514.933 1880.09 514.911 1880.09 514.906C1880.1 514.892 1880.12 514.86 1880.12 514.844C1880.13 514.838 1880.12 514.819 1880.12 514.812C1880.13 514.8 1880.15 514.764 1880.16 514.75C1880.16 514.72 1880.15 514.66 1880.16 514.625C1880.16 514.193 1879.96 513.362 1879.59 512.094L1875.16 496.969L1869 496.906L1864.34 481.812L1868.22 481L1887.66 493.125L1908.88 484.469L1904.12 435.562L1874.16 426.406L1876.31 440.719L1897.97 441.937L1901.19 479.187L1887.34 484.312L1876.5 476.781L1872.94 468L1855.69 475.937L1843.06 476.094L1843.19 436.781L1826.72 454.281L1821.28 499.219ZM1830.17 482.303L1833.2 457.727L1836.53 454.437L1836 477.031L1830.17 482.303Z" stroke="black" stroke-width="3.5"/>
</g>
<g id="scutum_2">
<path id="path1349_22" fill-rule="evenodd" clip-rule="evenodd" d="M1717.28 501.969L1708.44 497.75L1692.09 471.406L1685.91 430.094C1685.45 427.06 1683.38 427.044 1682.66 430.031L1671.56 475.625L1690.09 480.094L1703.31 501.75L1703.56 511.187L1717.28 501.969ZM1707.25 473.719L1701.84 452.344L1696.94 453.719L1702.31 474.781L1707.25 473.719ZM1685.59 471.594L1679.41 469.812L1683.25 453.437L1685.59 471.594Z" stroke="black" stroke-width="3.5" stroke-miterlimit="6"/>
</g>
<g id="earth_2">
<g id="path_2">
<path fill-rule="evenodd" clip-rule="evenodd" d="M50 434.71C45.2654 434.71 41.4272 438.533 41.4272 443.249C41.4272 447.965 45.2654 451.788 50 451.788C54.7346 451.788 58.5728 447.965 58.5728 443.249C58.5728 438.533 54.7346 434.71 50 434.71ZM45.1013 443.249C45.1013 440.554 47.2945 438.369 50 438.369C52.7055 438.369 54.8987 440.554 54.8987 443.249C54.8987 445.944 52.7055 448.129 50 448.129C47.2945 448.129 45.1013 445.944 45.1013 443.249Z" fill="black"/>
<path fill-rule="evenodd" clip-rule="evenodd" d="M65.3086 443.249C65.3086 450.49 60.2414 456.553 53.4465 458.11L94 512H55.484L65.6576 496.848L50 477.371L34.3424 496.848L44.516 512H6L46.5536 458.11C39.7586 456.553 34.6914 450.49 34.6914 443.249C34.6914 434.827 41.5453 428 50 428C58.4547 428 65.3086 434.827 65.3086 443.249ZM50 431.66C43.5744 431.66 38.3655 436.848 38.3655 443.249C38.3655 449.65 43.5744 454.838 50 454.838C56.4256 454.838 61.6345 449.65 61.6345 443.249C61.6345 436.848 56.4256 431.66 50 431.66ZM50 459.632L13.3457 508.34H37.6386L29.7918 496.654L50 471.516L70.2082 496.654L62.3614 508.34H86.6543L50 459.632Z" fill="black"/>
</g>
</g>
</g>
<g id="symbols_3" clip-path="url(#clip3_0_1)">
<rect width="4660" height="100" transform="translate(-69 838)" fill="white"/>
<g id="virgo_3">
<path id="path1349_23" fill-rule="evenodd" clip-rule="evenodd" d="M325.89 846.848L305.172 846.568L284.333 861.978L290.897 875.463L286.767 893.926L276.098 918.755L269.453 923.117L282.998 928.841L282.963 920.431L291.383 900.452C298.205 903.971 300.635 903.694 305.284 902.059L329.77 916.376L333.641 921.477L340.634 912.028L332.871 911.235L311.71 898.94L315.949 879.855L345.594 858.7L352.498 857.626L344.335 848.039L342.018 854.294L311.575 876.117L297.129 872.59C297.201 858.7 304.403 855.176 306.276 853.505L314.833 857.506L325.89 846.848ZM296.605 879.641L308.815 882.579L305.978 895.699C301.998 897.56 296.825 897.578 293.48 894.254L296.605 879.641Z" stroke="black" stroke-width="3.5"/>
</g>
<g id="bo&#195;&#182;tes_3">
<path id="path1349_24" fill-rule="evenodd" clip-rule="evenodd" d="M479.656 845.656L476.75 850.812C487.868 862.382 502.539 879.628 510.25 885.312L510.125 876.25L479.656 845.656ZM479.969 862.844C475.798 876.336 464.956 892.51 452.594 911.156L441.812 913.812L463 928.594L461.5 914.031C464.456 904.455 477.811 885.27 486.844 870.875L479.969 862.844Z" stroke="black" stroke-width="3.5"/>
</g>
<g id="centarus_3">
<path id="path1349_25" fill-rule="evenodd" clip-rule="evenodd" d="M657.938 846.125L659.25 855.781L652.656 883.594L630.969 879.062L627.125 871.062L620.844 888.406L630.219 884.125L652.875 889.625C654.517 895.318 656.677 905.337 657.594 914.969L656.031 922.875L668.906 920.375L663.594 914.094C662.889 905.272 660.783 895.221 659.312 887.812L664.312 857.5L671.062 849.406L657.938 846.125ZM642.531 893.812L625.094 905L629.594 910.062L646.219 899.156L642.531 893.812ZM620.344 909.781L607.938 910.312C611.3 914.338 615.5 918.466 620.219 922.156C620.666 918.033 621.195 913.905 620.344 909.781Z" stroke="black" stroke-width="3.5"/>
</g>
<g id="corona-australis_3">
<path id="path1349_26" fill-rule="evenodd" clip-rule="evenodd" d="M1478.84 856.594L1464.84 874.594L1465.53 877.312C1473.09 876.7 1486.24 881.565 1486.22 894.406C1486.19 907.373 1472.84 912.401 1460.22 912.25L1460.28 919.031L1473.5 919.062C1487.44 919.093 1494.93 904.018 1495.03 893.781C1495.14 883.419 1487.65 876.808 1481.06 873.531L1478.84 856.594ZM1441.94 894.594L1430.44 914.375H1451.84L1441.94 894.594Z" stroke="black" stroke-width="3.5" stroke-miterlimit="2.4"/>
</g>
<g id="coupe_3">
<path id="path1349_27" fill-rule="evenodd" clip-rule="evenodd" d="M130.031 848.719L129.125 881.969L116.938 900.562L122.281 919.281L113.812 927.25L131.75 927.281L130.094 914.969L126.438 902.781L134.875 886.781L153.688 886.812L166.031 908.5L165.938 919.281L161.25 925.906L178.188 926.062L173.594 920.125L173.969 905.312L160.875 883.25L173.062 851.594L130.031 848.719ZM137.812 856.469L161.562 858L153.375 878.969L137.406 878.75L137.812 856.469Z" stroke="black" stroke-width="3.5"/>
</g>
<g id="libra_3">
<path id="path1349_28" fill-rule="evenodd" clip-rule="evenodd" d="M820.428 855.033L816.973 861.804L786.038 863.518L772.129 892.613L787.985 925.768L815.329 904.968L836.875 909.596L833.559 902.799L836.396 896.274L810.994 897.906L791.372 915.356L791.329 869.677L824.043 866.283L831.797 857.813L820.428 855.033Z" stroke="black" stroke-width="3.5" stroke-miterlimit="2.3"/>
</g>
<g id="norma_3">
<path id="path1349_29" fill-rule="evenodd" clip-rule="evenodd" d="M1156.53 858.188L1143.56 873.875L1164.47 877.281L1156.53 858.188ZM1123.78 890.125L1110.31 909.688L1131.34 911.469L1123.78 890.125Z" stroke="black" stroke-width="3.5"/>
</g>
<g id="scorpius_3">
<path id="path1349_30" fill-rule="evenodd" clip-rule="evenodd" d="M1308.48 851.857C1308.19 896.095 1288.95 905.692 1274.28 905.161L1274.13 891.645L1281.76 884.779L1263.29 883.685L1267.78 890.244C1268.46 895.166 1268.78 908.147 1262.11 928.171L1277.34 928.074L1274.63 912.043C1301.53 911.915 1314.92 888.026 1315.09 859.499L1332.83 859.443L1335.26 870.302L1325.15 877.021L1331.1 887.504C1332.71 886.192 1333.54 882.089 1333.51 879.251L1342.44 872.629L1338.57 853.083L1308.48 851.857Z" stroke="black" stroke-width="3.5"/>
</g>
<g id="serpent-captus_3">
<path id="path1349_31" fill-rule="evenodd" clip-rule="evenodd" d="M1016.29 876.363L1007.07 869.708L1005.87 875.815L994.469 889.351L979.835 888.001L982.211 882.007L954.949 881.114L931.432 896.902L924.608 897.779L932.079 907.693L934.289 901.053L956.706 885.988L973.824 897.436L976.764 893.576L996.571 894.514L1010.6 878.641L1016.29 876.363Z" stroke="black" stroke-width="3.5"/>
</g>
<g id="sagitaruis_3">
<path id="path1349_32" fill-rule="evenodd" clip-rule="evenodd" d="M1752.28 917.219L1772.56 900.969L1789.84 900.906L1794.53 915.125L1788.09 915.187C1786.54 915.203 1785.59 915.301 1785.19 915.5C1785.17 915.508 1785.14 915.522 1785.12 915.531C1785.09 915.554 1785.05 915.6 1785.03 915.625C1785.03 915.63 1785 915.651 1785 915.656C1785 915.662 1785 915.682 1785 915.687C1785 915.693 1784.97 915.713 1784.97 915.719C1784.97 915.725 1784.97 915.744 1784.97 915.75C1784.97 915.762 1784.97 915.8 1784.97 915.812C1784.97 915.825 1785 915.862 1785 915.875C1785.03 915.971 1785.11 916.096 1785.22 916.219C1785.56 916.574 1786.24 917.066 1787.19 917.687L1809.12 932.094C1809.89 932.597 1810.42 932.92 1810.75 933C1810.76 933.003 1810.8 932.998 1810.81 933C1810.83 933.002 1810.86 932.999 1810.88 933C1810.88 933 1810.9 933 1810.91 933C1810.91 932.999 1810.93 933.001 1810.94 933C1810.94 932.999 1810.96 933.001 1810.97 933C1810.98 932.995 1811.02 932.976 1811.03 932.969C1811.04 932.966 1811.06 932.941 1811.06 932.937C1811.07 932.933 1811.09 932.911 1811.09 932.906C1811.1 932.892 1811.12 932.86 1811.12 932.844C1811.13 932.838 1811.12 932.819 1811.12 932.812C1811.13 932.8 1811.15 932.764 1811.16 932.75C1811.16 932.72 1811.15 932.66 1811.16 932.625C1811.16 932.193 1810.96 931.362 1810.59 930.094L1806.16 914.969L1800 914.906L1795.34 899.812L1799.22 899L1818.66 911.125L1839.88 902.469L1835.12 853.562L1805.16 844.406L1807.31 858.719L1828.97 859.937L1832.19 897.187L1818.34 902.312L1807.5 894.781L1803.94 886L1786.69 893.937L1774.06 894.094L1774.19 854.781L1757.72 872.281L1752.28 917.219ZM1761.17 900.303L1764.2 875.727L1767.53 872.437L1767 895.031L1761.17 900.303Z" stroke="black" stroke-width="3.5"/>
</g>
<g id="scutum_3">
<path id="path1349_33" fill-rule="evenodd" clip-rule="evenodd" d="M1648.28 919.969L1639.44 915.75L1623.09 889.406L1616.91 848.094C1616.45 845.06 1614.38 845.044 1613.66 848.031L1602.56 893.625L1621.09 898.094L1634.31 919.75L1634.56 929.187L1648.28 919.969ZM1638.25 891.719L1632.84 870.344L1627.94 871.719L1633.31 892.781L1638.25 891.719ZM1616.59 889.594L1610.41 887.812L1614.25 871.437L1616.59 889.594Z" stroke="black" stroke-width="3.5" stroke-miterlimit="6"/>
</g>
<g id="earth_3">
<g id="path_3">
<path fill-rule="evenodd" clip-rule="evenodd" d="M-19 852.71C-23.7346 852.71 -27.5728 856.533 -27.5728 861.249C-27.5728 865.965 -23.7346 869.788 -19 869.788C-14.2654 869.788 -10.4272 865.965 -10.4272 861.249C-10.4272 856.533 -14.2654 852.71 -19 852.71ZM-23.8987 861.249C-23.8987 858.554 -21.7055 856.369 -19 856.369C-16.2945 856.369 -14.1013 858.554 -14.1013 861.249C-14.1013 863.944 -16.2945 866.129 -19 866.129C-21.7055 866.129 -23.8987 863.944 -23.8987 861.249Z" fill="black"/>
<path fill-rule="evenodd" clip-rule="evenodd" d="M-3.69143 861.249C-3.69143 868.49 -8.75856 874.553 -15.5535 876.11L25 930H-13.516L-3.34241 914.848L-19 895.371L-34.6576 914.848L-24.484 930H-63L-22.4464 876.11C-29.2414 874.553 -34.3086 868.49 -34.3086 861.249C-34.3086 852.827 -27.4547 846 -19 846C-10.5453 846 -3.69143 852.827 -3.69143 861.249ZM-19 849.66C-25.4256 849.66 -30.6345 854.848 -30.6345 861.249C-30.6345 867.65 -25.4256 872.838 -19 872.838C-12.5744 872.838 -7.36549 867.65 -7.36549 861.249C-7.36549 854.848 -12.5744 849.66 -19 849.66ZM-19 877.632L-55.6543 926.34H-31.3614L-39.2082 914.654L-19 889.516L1.2082 914.654L-6.63859 926.34H17.6543L-19 877.632Z" fill="black"/>
</g>
</g>
</g>
<g id="symbols_4" clip-path="url(#clip4_0_1)">
<rect width="4660" height="100" transform="translate(-1897 140)" fill="white"/>
<g id="aquarius">
<path id="path1349_34" fill-rule="evenodd" clip-rule="evenodd" d="M947.525 164.988L923.488 177.601L935.21 184.819L935.691 194.517L921.868 207.352L915.562 209.097L922.808 218.245L925.334 212.614L941.16 196.569L941.067 181.418L935.738 177.967L947.787 171.002C952.687 170.76 951.031 175.11 963.349 174.075L959.715 187.099L960.85 197.489L957.656 206.31L967.762 203.336L965.31 186.894L970.136 175.345L991.789 194.789L993.115 201.059L1002.34 192.22L996.123 191.16L969.315 166.28C960.501 171.427 953.388 165.035 947.525 164.988Z" stroke="black" stroke-width="3.5"/>
</g>
<g id="aquila">
<path id="path1349_35" fill-rule="evenodd" clip-rule="evenodd" d="M149.33 202.323L125.784 215.145L115.662 212.911L121.518 229.772L126.62 221.664L155.672 206.226L165.976 209.376L164.236 192.826L155.72 197.732L121.924 182.905L126.649 157.539L130.765 150.284L117.966 148.018L120.223 157.797L113.572 186.773L149.33 202.323Z" stroke="black" stroke-width="3.5"/>
</g>
<g id="capricornus">
<path id="path1349_36" fill-rule="evenodd" clip-rule="evenodd" d="M487.406 151.438C469.274 159.977 447.652 167.433 425.906 174.656L428.75 180.25L437.344 177.969C446.393 188.498 462.227 200.605 483.656 220.75L486.312 230.312L497.094 224.906L492.344 218.625L493.219 173.594L487.406 151.438ZM482.594 161.656L485.594 176.312L485.094 210.812C470.691 198.949 456.871 187.436 445.438 176.656L482.594 161.656Z" stroke="black" stroke-width="3.5"/>
</g>
<g id="equuleus">
<path id="path1349_37" fill-rule="evenodd" clip-rule="evenodd" d="M789.301 174.9L770.837 167.755L772.301 178.117L748.649 208.834L831.843 217.615L829.089 199.42L836.126 187.075L819.7 181.881L822.075 208.721L761.491 203.443L778.175 180.746L789.301 174.9Z" stroke="black" stroke-width="3.5"/>
</g>
<g id="microscopium">
<path id="path1349_38" fill-rule="evenodd" clip-rule="evenodd" d="M269.406 160.312L270.594 169.188L264.062 224.219L278.625 219.594L324.188 214.375L336.469 218.25L333.094 201.062L325.188 206.969L278.406 211.719L273.625 213L278.375 169.75L284.75 163.625L269.406 160.312ZM305.781 174L304.156 190.406L322.969 184L305.781 174Z" stroke="black" stroke-width="3.5"/>
</g>
<g id="piscis-austrinus">
<path id="path1349_39" fill-rule="evenodd" clip-rule="evenodd" d="M637.726 165.365L628.547 147.806L616.084 157.414L609.119 196.413L612.144 216.484L633.37 230.94L648.668 220.766L648.184 208.211L639.9 186.768L637.726 165.365ZM624.758 158.896C626.933 157.032 627.48 157.097 628.584 159.442C630.174 162.822 632.657 168.336 632.783 190.189C635.499 197.609 640.994 208.968 640.933 212.448L619.164 212.258L615.84 197.764L621.604 161.6L624.758 158.896Z" stroke="black" stroke-width="3.5"/>
</g>
<g id="sagitaruis_4">
<path id="path1349_40" fill-rule="evenodd" clip-rule="evenodd" d="M-75.7188 219.219L-55.4375 202.969L-38.1562 202.906L-33.4688 217.125L-39.9062 217.187C-41.4551 217.203 -42.4123 217.301 -42.8125 217.5C-42.8279 217.508 -42.8614 217.522 -42.875 217.531C-42.9069 217.554 -42.9479 217.6 -42.9688 217.625C-42.9725 217.63 -42.9967 217.651 -43 217.656C-43.0029 217.662 -42.9976 217.682 -43 217.687C-43.002 217.693 -43.0297 217.713 -43.0312 217.719C-43.0324 217.725 -43.0306 217.744 -43.0312 217.75C-43.0318 217.762 -43.0324 217.8 -43.0312 217.812C-43.0292 217.825 -43.0037 217.862 -43 217.875C-42.968 217.971 -42.8942 218.096 -42.7812 218.219C-42.4424 218.574 -41.7597 219.066 -40.8125 219.687L-18.875 234.094C-18.1084 234.597 -17.578 234.92 -17.25 235C-17.2352 235.003 -17.2015 234.998 -17.1875 235C-17.174 235.002 -17.1377 234.999 -17.125 235C-17.1189 235 -17.0997 235 -17.0938 235C-17.088 234.999 -17.068 235.001 -17.0625 235C-17.0572 234.999 -17.0363 235.001 -17.0312 235C-17.0166 234.995 -16.9815 234.976 -16.9688 234.969C-16.9649 234.966 -16.9411 234.941 -16.9375 234.937C-16.9343 234.933 -16.9093 234.911 -16.9062 234.906C-16.8977 234.892 -16.8818 234.86 -16.875 234.844C-16.8729 234.838 -16.8769 234.819 -16.875 234.812C-16.8716 234.8 -16.8463 234.764 -16.8438 234.75C-16.8393 234.72 -16.8452 234.66 -16.8438 234.625C-16.8358 234.193 -17.0363 233.362 -17.4062 232.094L-21.8438 216.969L-28 216.906L-32.6562 201.812L-28.7812 201L-9.34375 213.125L11.875 204.469L7.125 155.562L-22.8438 146.406L-20.6875 160.719L0.96875 161.937L4.1875 199.187L-9.65625 204.312L-20.5 196.781L-24.0625 188L-41.3125 195.937L-53.9375 196.094L-53.8125 156.781L-70.2812 174.281L-75.7188 219.219ZM-66.8339 202.303L-63.8026 177.727L-60.4688 174.437L-61 197.031L-66.8339 202.303Z" stroke="black" stroke-width="3.5"/>
</g>
<g id="sculptor">
<path id="path1349_41" fill-rule="evenodd" clip-rule="evenodd" d="M1309.91 150.493L1311.76 157.776L1293.61 207.565L1252.28 207.581L1265.17 227.906L1304.47 213.391L1303.91 205.222L1317.73 161.856L1323.83 156.037L1309.91 150.493Z" stroke="black" stroke-width="3.5"/>
</g>
<g id="pegasus">
<path id="path1349_42" fill-rule="evenodd" clip-rule="evenodd" d="M1156.14 152.25L1156.36 159.281L1154.21 168.156L1116.59 178.656L1104.65 176.469L1099.2 184.906L1107.38 184.812L1118.68 198.531L1105.17 218.281L1098.76 219.25L1106.98 227.906L1108.88 222.031L1124.25 200.719L1149.39 199.375L1152.22 194.781L1163.11 192.5L1168.84 178.031L1161.68 175.188L1159.88 188.781L1123.94 196.062L1113.64 184L1122.69 182.875L1158.76 172.062L1161.43 158.719L1165.51 154.531L1156.14 152.25ZM1080.75 195.156L1077.57 205.812L1086.04 202.781L1080.75 195.156Z" stroke="black" stroke-width="2.5"/>
</g>
<g id="triangulum">
<path id="path1349_43" fill-rule="evenodd" clip-rule="evenodd" d="M1766.7 151L1762.01 225.281L1811.39 216.062L1766.7 151ZM1773.42 176.719L1793.79 208.656L1771.48 212.844L1773.42 176.719Z" stroke="black" stroke-width="3.5"/>
</g>
<g id="andromeda">
<path id="path1349_44" fill-rule="evenodd" clip-rule="evenodd" d="M1598.12 164.044L1601.72 168.625L1604.7 185.502L1602.86 190.386L1606.55 195.018L1610.08 213.717L1631.05 234.675L1626.49 193.838L1632.09 186.377L1620.7 183.553L1622.48 208.459L1616.17 208.584L1612.86 194.029L1615.1 189.459L1606.79 167.198L1608.84 160.997L1605.87 157.808L1604.11 145.303L1593.79 148.121L1599.28 157.275L1598.12 164.044Z" stroke="black" stroke-width="3.5" stroke-miterlimit="3"/>
</g>
<g id="aries">
<path id="path1349_45" fill-rule="evenodd" clip-rule="evenodd" d="M1974.11 153.509L1944.49 179.484L1924.5 220.89L1917.65 225.611L1931.12 234.725L1930.54 224.641L1952.55 182.311L1980.02 157.764L1986.79 155.426L1974.24 145.559L1974.11 153.509Z" stroke="black" stroke-width="3.5"/>
</g>
<g id="pisces">
<path id="path1349_46" fill-rule="evenodd" clip-rule="evenodd" d="M1453.45 156.014L1457.64 161.161C1458.99 193.039 1458.47 197.56 1475.05 218.607L1435.94 217.109L1439.61 212.977L1415.57 219.124L1427.04 227.404L1431.25 222.782C1450.45 223.693 1471.94 223.947 1490.8 226.189C1463.64 203.613 1465.07 184.994 1464.16 161.479L1468.59 160.954L1468.63 152.9L1461.29 146.741L1453.45 156.014Z" stroke="black" stroke-width="3.5"/>
</g>
</g>
<g id="symbols_5" clip-path="url(#clip5_0_1)">
<rect width="4660" height="100" transform="translate(-1890 560)" fill="white"/>
<g id="aquarius_2">
<path id="path1349_47" fill-rule="evenodd" clip-rule="evenodd" d="M954.525 584.988L930.488 597.601L942.21 604.819L942.691 614.517L928.868 627.352L922.562 629.097L929.808 638.245L932.334 632.614L948.16 616.569L948.067 601.418L942.738 597.967L954.787 591.002C959.687 590.76 958.031 595.11 970.349 594.075L966.715 607.099L967.85 617.489L964.656 626.31L974.762 623.336L972.31 606.894L977.136 595.345L998.789 614.789L1000.12 621.059L1009.34 612.22L1003.12 611.16L976.315 586.28C967.501 591.427 960.388 585.035 954.525 584.988Z" stroke="black" stroke-width="3.5"/>
</g>
<g id="aquila_2">
<path id="path1349_48" fill-rule="evenodd" clip-rule="evenodd" d="M156.33 622.323L132.784 635.145L122.662 632.911L128.518 649.772L133.62 641.664L162.672 626.226L172.976 629.376L171.236 612.826L162.72 617.732L128.924 602.905L133.649 577.539L137.765 570.284L124.966 568.018L127.223 577.797L120.572 606.773L156.33 622.323Z" stroke="black" stroke-width="3.5"/>
</g>
<g id="capricornus_2">
<path id="path1349_49" fill-rule="evenodd" clip-rule="evenodd" d="M494.406 571.438C476.274 579.977 454.652 587.433 432.906 594.656L435.75 600.25L444.344 597.969C453.393 608.498 469.227 620.605 490.656 640.75L493.312 650.312L504.094 644.906L499.344 638.625L500.219 593.594L494.406 571.438ZM489.594 581.656L492.594 596.312L492.094 630.812C477.691 618.949 463.871 607.436 452.438 596.656L489.594 581.656Z" stroke="black" stroke-width="3.5"/>
</g>
<g id="equuleus_2">
<path id="path1349_50" fill-rule="evenodd" clip-rule="evenodd" d="M796.301 594.9L777.837 587.755L779.301 598.117L755.649 628.834L838.843 637.615L836.089 619.42L843.126 607.075L826.7 601.881L829.075 628.721L768.491 623.443L785.175 600.746L796.301 594.9Z" stroke="black" stroke-width="3.5"/>
</g>
<g id="microscopium_2">
<path id="path1349_51" fill-rule="evenodd" clip-rule="evenodd" d="M276.406 580.312L277.594 589.188L271.062 644.219L285.625 639.594L331.188 634.375L343.469 638.25L340.094 621.062L332.188 626.969L285.406 631.719L280.625 633L285.375 589.75L291.75 583.625L276.406 580.312ZM312.781 594L311.156 610.406L329.969 604L312.781 594Z" stroke="black" stroke-width="3.5"/>
</g>
<g id="piscis-austrinus_2">
<path id="path1349_52" fill-rule="evenodd" clip-rule="evenodd" d="M644.726 585.365L635.547 567.806L623.084 577.414L616.119 616.413L619.144 636.484L640.37 650.94L655.668 640.766L655.184 628.211L646.9 606.768L644.726 585.365ZM631.758 578.896C633.933 577.032 634.48 577.097 635.584 579.442C637.174 582.822 639.657 588.336 639.783 610.189C642.499 617.609 647.994 628.968 647.933 632.448L626.164 632.258L622.84 617.764L628.604 581.6L631.758 578.896Z" stroke="black" stroke-width="3.5"/>
</g>
<g id="sagitaruis_5">
<path id="path1349_53" fill-rule="evenodd" clip-rule="evenodd" d="M-68.7188 639.219L-48.4375 622.969L-31.1562 622.906L-26.4688 637.125L-32.9062 637.187C-34.4551 637.203 -35.4123 637.301 -35.8125 637.5C-35.8279 637.508 -35.8614 637.522 -35.875 637.531C-35.9069 637.554 -35.9479 637.6 -35.9688 637.625C-35.9725 637.63 -35.9967 637.651 -36 637.656C-36.0029 637.662 -35.9976 637.682 -36 637.687C-36.002 637.693 -36.0297 637.713 -36.0312 637.719C-36.0324 637.725 -36.0306 637.744 -36.0312 637.75C-36.0318 637.762 -36.0324 637.8 -36.0312 637.812C-36.0292 637.825 -36.0037 637.862 -36 637.875C-35.968 637.971 -35.8942 638.096 -35.7812 638.219C-35.4424 638.574 -34.7597 639.066 -33.8125 639.687L-11.875 654.094C-11.1084 654.597 -10.578 654.92 -10.25 655C-10.2352 655.003 -10.2015 654.998 -10.1875 655C-10.174 655.002 -10.1377 654.999 -10.125 655C-10.1189 655 -10.0997 655 -10.0938 655C-10.088 654.999 -10.068 655.001 -10.0625 655C-10.0572 654.999 -10.0363 655.001 -10.0312 655C-10.0166 654.995 -9.98151 654.976 -9.96875 654.969C-9.9649 654.966 -9.94114 654.941 -9.9375 654.937C-9.93426 654.933 -9.90929 654.911 -9.90625 654.906C-9.89771 654.892 -9.88177 654.86 -9.875 654.844C-9.87294 654.838 -9.87687 654.819 -9.875 654.812C-9.87165 654.8 -9.84634 654.764 -9.84375 654.75C-9.83934 654.72 -9.84515 654.66 -9.84375 654.625C-9.83582 654.193 -10.0363 653.362 -10.4062 652.094L-14.8438 636.969L-21 636.906L-25.6562 621.812L-21.7812 621L-2.34375 633.125L18.875 624.469L14.125 575.562L-15.8438 566.406L-13.6875 580.719L7.96875 581.937L11.1875 619.187L-2.65625 624.312L-13.5 616.781L-17.0625 608L-34.3125 615.937L-46.9375 616.094L-46.8125 576.781L-63.2812 594.281L-68.7188 639.219ZM-59.8339 622.303L-56.8026 597.727L-53.4688 594.437L-54 617.031L-59.8339 622.303Z" stroke="black" stroke-width="3.5"/>
</g>
<g id="sculptor_2">
<path id="path1349_54" fill-rule="evenodd" clip-rule="evenodd" d="M1316.91 570.493L1318.76 577.776L1300.61 627.565L1259.28 627.581L1272.17 647.906L1311.47 633.391L1310.91 625.222L1324.73 581.856L1330.83 576.037L1316.91 570.493Z" stroke="black" stroke-width="3.5"/>
</g>
<g id="pegasus_2">
<path id="path1349_55" fill-rule="evenodd" clip-rule="evenodd" d="M1163.14 572.25L1163.36 579.281L1161.21 588.156L1123.59 598.656L1111.65 596.469L1106.2 604.906L1114.38 604.812L1125.68 618.531L1112.17 638.281L1105.76 639.25L1113.98 647.906L1115.88 642.031L1131.25 620.719L1156.39 619.375L1159.22 614.781L1170.11 612.5L1175.84 598.031L1168.68 595.188L1166.88 608.781L1130.94 616.062L1120.64 604L1129.69 602.875L1165.76 592.062L1168.43 578.719L1172.51 574.531L1163.14 572.25ZM1087.75 615.156L1084.57 625.812L1093.04 622.781L1087.75 615.156Z" stroke="black" stroke-width="2.5"/>
</g>
<g id="triangulum_2">
<path id="path1349_56" fill-rule="evenodd" clip-rule="evenodd" d="M1773.7 571L1769.01 645.281L1818.39 636.062L1773.7 571ZM1780.42 596.719L1800.79 628.656L1778.48 632.844L1780.42 596.719Z" stroke="black" stroke-width="3.5"/>
</g>
<g id="andromeda_2">
<path id="path1349_57" fill-rule="evenodd" clip-rule="evenodd" d="M1605.12 584.044L1608.72 588.625L1611.7 605.502L1609.86 610.386L1613.55 615.018L1617.08 633.717L1638.05 654.675L1633.49 613.838L1639.09 606.377L1627.7 603.553L1629.48 628.459L1623.17 628.584L1619.86 614.029L1622.1 609.459L1613.79 587.198L1615.84 580.997L1612.87 577.808L1611.11 565.303L1600.79 568.121L1606.28 577.275L1605.12 584.044Z" stroke="black" stroke-width="3.5" stroke-miterlimit="3"/>
</g>
<g id="pisces_2">
<path id="path1349_58" fill-rule="evenodd" clip-rule="evenodd" d="M1460.45 576.014L1464.64 581.161C1465.99 613.039 1465.47 617.56 1482.05 638.607L1442.94 637.109L1446.61 632.976L1422.57 639.124L1434.04 647.404L1438.25 642.782C1457.45 643.693 1478.94 643.947 1497.8 646.189C1470.64 623.613 1472.07 604.994 1471.16 581.479L1475.59 580.954L1475.63 572.9L1468.29 566.741L1460.45 576.014Z" stroke="black" stroke-width="3.5"/>
</g>
</g>
<g id="symbols_6" clip-path="url(#clip6_0_1)">
<rect width="4660" height="100" transform="translate(-1785 978)" fill="white"/>
<g id="aquarius_3">
<path id="path1349_59" fill-rule="evenodd" clip-rule="evenodd" d="M1059.53 1002.99L1035.49 1015.6L1047.21 1022.82L1047.69 1032.52L1033.87 1045.35L1027.56 1047.1L1034.81 1056.24L1037.33 1050.61L1053.16 1034.57L1053.07 1019.42L1047.74 1015.97L1059.79 1009C1064.69 1008.76 1063.03 1013.11 1075.35 1012.07L1071.72 1025.1L1072.85 1035.49L1069.66 1044.31L1079.76 1041.34L1077.31 1024.89L1082.14 1013.35L1103.79 1032.79L1105.12 1039.06L1114.34 1030.22L1108.12 1029.16L1081.31 1004.28C1072.5 1009.43 1065.39 1003.03 1059.53 1002.99Z" stroke="black" stroke-width="3.5"/>
</g>
<g id="aquila_3">
<path id="path1349_60" fill-rule="evenodd" clip-rule="evenodd" d="M261.33 1040.32L237.784 1053.15L227.662 1050.91L233.518 1067.77L238.62 1059.66L267.672 1044.23L277.976 1047.38L276.236 1030.83L267.72 1035.73L233.924 1020.91L238.649 995.539L242.765 988.284L229.966 986.018L232.223 995.797L225.572 1024.77L261.33 1040.32Z" stroke="black" stroke-width="3.5"/>
</g>
<g id="capricornus_3">
<path id="path1349_61" fill-rule="evenodd" clip-rule="evenodd" d="M599.406 989.438C581.274 997.977 559.652 1005.43 537.906 1012.66L540.75 1018.25L549.344 1015.97C558.393 1026.5 574.227 1038.61 595.656 1058.75L598.312 1068.31L609.094 1062.91L604.344 1056.62L605.219 1011.59L599.406 989.438ZM594.594 999.656L597.594 1014.31L597.094 1048.81C582.691 1036.95 568.871 1025.44 557.438 1014.66L594.594 999.656Z" stroke="black" stroke-width="3.5"/>
</g>
<g id="equuleus_3">
<path id="path1349_62" fill-rule="evenodd" clip-rule="evenodd" d="M901.301 1012.9L882.837 1005.76L884.301 1016.12L860.649 1046.83L943.843 1055.62L941.089 1037.42L948.126 1025.07L931.7 1019.88L934.075 1046.72L873.491 1041.44L890.175 1018.75L901.301 1012.9Z" stroke="black" stroke-width="3.5"/>
</g>
<g id="microscopium_3">
<path id="path1349_63" fill-rule="evenodd" clip-rule="evenodd" d="M381.406 998.312L382.594 1007.19L376.062 1062.22L390.625 1057.59L436.188 1052.38L448.469 1056.25L445.094 1039.06L437.188 1044.97L390.406 1049.72L385.625 1051L390.375 1007.75L396.75 1001.62L381.406 998.312ZM417.781 1012L416.156 1028.41L434.969 1022L417.781 1012Z" stroke="black" stroke-width="3.5"/>
</g>
<g id="piscis-austrinus_3">
<path id="path1349_64" fill-rule="evenodd" clip-rule="evenodd" d="M749.726 1003.36L740.547 985.806L728.084 995.414L721.119 1034.41L724.144 1054.48L745.37 1068.94L760.668 1058.77L760.184 1046.21L751.9 1024.77L749.726 1003.36ZM736.758 996.896C738.933 995.032 739.48 995.097 740.584 997.442C742.174 1000.82 744.657 1006.34 744.783 1028.19C747.499 1035.61 752.994 1046.97 752.933 1050.45L731.164 1050.26L727.84 1035.76L733.604 999.6L736.758 996.896Z" stroke="black" stroke-width="3.5"/>
</g>
<g id="sagitaruis_6">
<path id="path1349_65" fill-rule="evenodd" clip-rule="evenodd" d="M36.2812 1057.22L56.5625 1040.97L73.8438 1040.91L78.5312 1055.13L72.0938 1055.19C70.5449 1055.2 69.5877 1055.3 69.1875 1055.5C69.1721 1055.51 69.1386 1055.52 69.125 1055.53C69.0931 1055.55 69.0521 1055.6 69.0312 1055.63C69.0275 1055.63 69.0033 1055.65 69 1055.66C68.9971 1055.66 69.0024 1055.68 69 1055.69C68.998 1055.69 68.9703 1055.71 68.9688 1055.72C68.9676 1055.72 68.9694 1055.74 68.9688 1055.75C68.9682 1055.76 68.9676 1055.8 68.9688 1055.81C68.9708 1055.83 68.9963 1055.86 69 1055.88C69.032 1055.97 69.1058 1056.1 69.2188 1056.22C69.5576 1056.57 70.2403 1057.07 71.1875 1057.69L93.125 1072.09C93.8916 1072.6 94.422 1072.92 94.75 1073C94.7648 1073 94.7985 1073 94.8125 1073C94.826 1073 94.8623 1073 94.875 1073C94.8811 1073 94.9003 1073 94.9062 1073C94.912 1073 94.932 1073 94.9375 1073C94.9428 1073 94.9637 1073 94.9688 1073C94.9834 1072.99 95.0185 1072.98 95.0312 1072.97C95.0351 1072.97 95.0589 1072.94 95.0625 1072.94C95.0657 1072.93 95.0907 1072.91 95.0938 1072.91C95.1023 1072.89 95.1182 1072.86 95.125 1072.84C95.1271 1072.84 95.1231 1072.82 95.125 1072.81C95.1284 1072.8 95.1537 1072.76 95.1562 1072.75C95.1607 1072.72 95.1548 1072.66 95.1562 1072.63C95.1642 1072.19 94.9637 1071.36 94.5938 1070.09L90.1562 1054.97L84 1054.91L79.3438 1039.81L83.2188 1039L102.656 1051.13L123.875 1042.47L119.125 993.562L89.1562 984.406L91.3125 998.719L112.969 999.938L116.188 1037.19L102.344 1042.31L91.5 1034.78L87.9375 1026L70.6875 1033.94L58.0625 1034.09L58.1875 994.781L41.7188 1012.28L36.2812 1057.22ZM45.1661 1040.3L48.1974 1015.73L51.5312 1012.44L51 1035.03L45.1661 1040.3Z" stroke="black" stroke-width="3.5"/>
</g>
<g id="sculptor_3">
<path id="path1349_66" fill-rule="evenodd" clip-rule="evenodd" d="M1421.91 988.493L1423.76 995.776L1405.61 1045.57L1364.28 1045.58L1377.17 1065.91L1416.47 1051.39L1415.91 1043.22L1429.73 999.856L1435.83 994.037L1421.91 988.493Z" stroke="black" stroke-width="3.5"/>
</g>
<g id="pegasus_3">
<path id="path1349_67" fill-rule="evenodd" clip-rule="evenodd" d="M1268.14 990.25L1268.36 997.281L1266.21 1006.16L1228.59 1016.66L1216.65 1014.47L1211.2 1022.91L1219.38 1022.81L1230.68 1036.53L1217.17 1056.28L1210.76 1057.25L1218.98 1065.91L1220.88 1060.03L1236.25 1038.72L1261.39 1037.38L1264.22 1032.78L1275.11 1030.5L1280.84 1016.03L1273.68 1013.19L1271.88 1026.78L1235.94 1034.06L1225.64 1022L1234.69 1020.88L1270.76 1010.06L1273.43 996.719L1277.51 992.531L1268.14 990.25ZM1192.75 1033.16L1189.57 1043.81L1198.04 1040.78L1192.75 1033.16Z" stroke="black" stroke-width="2.5"/>
</g>
<g id="triangulum_3">
<path id="path1349_68" fill-rule="evenodd" clip-rule="evenodd" d="M1878.7 989L1874.01 1063.28L1923.39 1054.06L1878.7 989ZM1885.42 1014.72L1905.79 1046.66L1883.48 1050.84L1885.42 1014.72Z" stroke="black" stroke-width="3.5"/>
</g>
<g id="andromeda_3">
<path id="path1349_69" fill-rule="evenodd" clip-rule="evenodd" d="M1710.12 1002.04L1713.72 1006.63L1716.7 1023.5L1714.86 1028.39L1718.55 1033.02L1722.08 1051.72L1743.05 1072.67L1738.49 1031.84L1744.09 1024.38L1732.7 1021.55L1734.48 1046.46L1728.17 1046.58L1724.86 1032.03L1727.1 1027.46L1718.79 1005.2L1720.84 998.997L1717.87 995.808L1716.11 983.303L1705.79 986.121L1711.28 995.275L1710.12 1002.04Z" stroke="black" stroke-width="3.5" stroke-miterlimit="3"/>
</g>
<g id="pisces_3">
<path id="path1349_70" fill-rule="evenodd" clip-rule="evenodd" d="M1565.45 994.014L1569.64 999.161C1570.99 1031.04 1570.47 1035.56 1587.05 1056.61L1547.94 1055.11L1551.61 1050.98L1527.57 1057.12L1539.04 1065.4L1543.25 1060.78C1562.45 1061.69 1583.94 1061.95 1602.8 1064.19C1575.64 1041.61 1577.07 1022.99 1576.16 999.479L1580.59 998.954L1580.63 990.9L1573.29 984.741L1565.45 994.014Z" stroke="black" stroke-width="3.5"/>
</g>
</g>
<g id="symbols_7" clip-path="url(#clip7_0_1)">
<rect width="4734" height="100" transform="translate(-3791 280)" fill="white"/>
<g id="aries_2">
<path id="path1349_71" fill-rule="evenodd" clip-rule="evenodd" d="M80.1066 293.509L50.4932 319.484L30.5007 360.89L23.6475 365.611L37.1204 374.725L36.5407 364.641L58.5457 322.311L86.0188 297.764L92.7892 295.426L80.2371 285.559L80.1066 293.509Z" stroke="black" stroke-width="3.5"/>
</g>
<g id="auriga">
<path id="path1349_72" fill-rule="evenodd" clip-rule="evenodd" d="M737.604 304.531L730.198 309.906L704.635 312.844L688.01 306.75L673.385 320.969L678.073 325.938L678.604 348.469L707.854 357.594L714.104 363.656L717.948 352L707.01 351.938L684.385 344.688L684.073 325.656L699.917 319.531L729.479 315.938L738.323 320.594L737.604 304.531ZM747.354 330.812L747.792 343.781L757.635 336.719L747.354 330.812Z" stroke="black" stroke-width="3.5"/>
</g>
<g id="cetus">
<path id="path1349_73" fill-rule="evenodd" clip-rule="evenodd" d="M400.323 292.125L402.073 297.598C402.583 312.28 397.759 320.727 391.229 327.188L355.135 322.75L369.073 366.875C375.499 362.065 385.952 359.06 399.042 358.125L394.104 334.938C405.058 323.645 408.874 310.973 408.229 297.531L410.448 292.125H400.323ZM364.385 330.844L386.131 333.757L389.948 352.156C384.288 353.091 378.43 354.979 372.792 357.781L364.385 330.844Z" stroke="black" stroke-width="3.5"/>
</g>
<g id="eridanus">
<path id="path1349_74" fill-rule="evenodd" clip-rule="evenodd" d="M918.915 359.362L913.265 352.064L910.413 336.307L885.131 325.445L881.547 332.888L875.695 333.34L869.702 319.36L854.661 310.668L845.854 312.966L839.159 308.211L839.011 319.19L842.927 319.303L848.976 323.682L851.888 318.4L861.451 323.03L856.709 325.402L861.53 332.78L866.7 330.133L872.285 341.089L885.619 336.972L906.399 340.153L909.094 359.615L918.915 359.362Z" stroke="black" stroke-width="3.5"/>
</g>
<g id="perseus">
<path id="path1349_75" fill-rule="evenodd" clip-rule="evenodd" d="M196.55 330.398L192.784 359.947C196.108 367.926 209.761 365.514 206.961 363.399L201.482 359.258L200.394 354.24L203.115 331.632L215.122 312.161L227.002 307.809C229.538 314.514 230.753 341.043 228.218 347.623L246.373 351.238L235.041 314.829C233.313 309.276 233.273 301.367 236.08 293.378L205.463 307.391L205.147 317.138L196.55 330.398Z" stroke="black" stroke-width="3.5" stroke-miterlimit="2.4"/>
</g>
<g id="taurus">
<path id="path1349_76" fill-rule="evenodd" clip-rule="evenodd" d="M588.66 313.204L582.506 318.176C553.034 320.343 525.844 322.557 512.565 325.054L505.079 322.75L506.72 335.005L512.473 330.647L540.034 327.799C544.62 332.445 566.641 342.327 582.777 342.516L591.016 346.192L590.973 336.945C574.026 336.137 563.019 331.793 553.978 326.935L584.17 324.725L591.257 326.128L588.66 313.204Z" stroke="black" stroke-width="3.5"/>
</g>
</g>
<g id="symbols_8" clip-path="url(#clip8_0_1)">
<rect width="4734" height="100" transform="translate(-3791 700)" fill="white"/>
<g id="aries_3">
<path id="path1349_77" fill-rule="evenodd" clip-rule="evenodd" d="M80.1066 713.509L50.4932 739.484L30.5007 780.89L23.6475 785.611L37.1204 794.725L36.5407 784.641L58.5457 742.311L86.0188 717.764L92.7892 715.426L80.2371 705.559L80.1066 713.509Z" stroke="black" stroke-width="3.5"/>
</g>
<g id="auriga_2">
<path id="path1349_78" fill-rule="evenodd" clip-rule="evenodd" d="M737.604 724.531L730.198 729.906L704.635 732.844L688.01 726.75L673.385 740.969L678.073 745.938L678.604 768.469L707.854 777.594L714.104 783.656L717.948 772L707.01 771.938L684.385 764.688L684.073 745.656L699.917 739.531L729.479 735.938L738.323 740.594L737.604 724.531ZM747.354 750.812L747.792 763.781L757.635 756.719L747.354 750.812Z" stroke="black" stroke-width="3.5"/>
</g>
<g id="cetus_2">
<path id="path1349_79" fill-rule="evenodd" clip-rule="evenodd" d="M400.323 712.125L402.073 717.598C402.583 732.28 397.759 740.727 391.229 747.188L355.135 742.75L369.073 786.875C375.499 782.065 385.952 779.06 399.042 778.125L394.104 754.938C405.058 743.645 408.874 730.973 408.229 717.531L410.448 712.125H400.323ZM364.385 750.844L386.131 753.757L389.948 772.156C384.288 773.091 378.43 774.979 372.792 777.781L364.385 750.844Z" stroke="black" stroke-width="3.5"/>
</g>
<g id="eridanus_2">
<path id="path1349_80" fill-rule="evenodd" clip-rule="evenodd" d="M918.915 779.362L913.265 772.064L910.413 756.307L885.131 745.445L881.547 752.888L875.695 753.34L869.702 739.36L854.661 730.668L845.854 732.966L839.159 728.211L839.011 739.19L842.927 739.303L848.976 743.682L851.888 738.4L861.451 743.03L856.709 745.402L861.53 752.78L866.7 750.133L872.285 761.089L885.619 756.972L906.399 760.153L909.094 779.615L918.915 779.362Z" stroke="black" stroke-width="3.5"/>
</g>
<g id="perseus_2">
<path id="path1349_81" fill-rule="evenodd" clip-rule="evenodd" d="M196.55 750.398L192.784 779.947C196.108 787.926 209.761 785.514 206.961 783.399L201.482 779.258L200.394 774.24L203.115 751.632L215.122 732.161L227.002 727.809C229.538 734.514 230.753 761.043 228.218 767.623L246.373 771.238L235.041 734.829C233.313 729.276 233.273 721.367 236.08 713.378L205.463 727.391L205.147 737.138L196.55 750.398Z" stroke="black" stroke-width="3.5" stroke-miterlimit="2.4"/>
</g>
<g id="taurus_2">
<path id="path1349_82" fill-rule="evenodd" clip-rule="evenodd" d="M588.66 733.204L582.506 738.176C553.034 740.343 525.844 742.557 512.565 745.054L505.079 742.75L506.72 755.005L512.473 750.647L540.034 747.799C544.62 752.445 566.641 762.327 582.777 762.516L591.016 766.192L590.973 756.945C574.026 756.137 563.019 751.793 553.978 746.935L584.17 744.725L591.257 746.128L588.66 733.204Z" stroke="black" stroke-width="3.5"/>
</g>
</g>
<g id="symbols_9" clip-path="url(#clip9_0_1)">
<rect width="4660" height="100" transform="translate(994 278)" fill="white"/>
<g id="virgo_4">
<path id="path1349_83" fill-rule="evenodd" clip-rule="evenodd" d="M1388.89 286.848L1368.17 286.568L1347.33 301.978L1353.9 315.463L1349.77 333.926L1339.1 358.755L1332.45 363.117L1346 368.841L1345.96 360.431L1354.38 340.452C1361.2 343.971 1363.63 343.694 1368.28 342.059L1392.77 356.376L1396.64 361.477L1403.63 352.028L1395.87 351.235L1374.71 338.94L1378.95 319.855L1408.59 298.7L1415.5 297.626L1407.33 288.039L1405.02 294.294L1374.57 316.117L1360.13 312.59C1360.2 298.7 1367.4 295.176 1369.28 293.505L1377.83 297.506L1388.89 286.848ZM1359.6 319.641L1371.81 322.579L1368.98 335.699C1365 337.56 1359.83 337.578 1356.48 334.254L1359.6 319.641Z" stroke="black" stroke-width="3.5"/>
</g>
<g id="bo&#195;&#182;tes_4">
<path id="path1349_84" fill-rule="evenodd" clip-rule="evenodd" d="M1542.66 285.656L1539.75 290.812C1550.87 302.382 1565.54 319.628 1573.25 325.312L1573.12 316.25L1542.66 285.656ZM1542.97 302.844C1538.8 316.336 1527.96 332.51 1515.59 351.156L1504.81 353.812L1526 368.594L1524.5 354.031C1527.46 344.455 1540.81 325.27 1549.84 310.875L1542.97 302.844Z" stroke="black" stroke-width="3.5"/>
</g>
<g id="centarus_4">
<path id="path1349_85" fill-rule="evenodd" clip-rule="evenodd" d="M1720.94 286.125L1722.25 295.781L1715.66 323.594L1693.97 319.062L1690.12 311.062L1683.84 328.406L1693.22 324.125L1715.88 329.625C1717.52 335.318 1719.68 345.337 1720.59 354.969L1719.03 362.875L1731.91 360.375L1726.59 354.094C1725.89 345.272 1723.78 335.221 1722.31 327.812L1727.31 297.5L1734.06 289.406L1720.94 286.125ZM1705.53 333.812L1688.09 345L1692.59 350.062L1709.22 339.156L1705.53 333.812ZM1683.34 349.781L1670.94 350.312C1674.3 354.338 1678.5 358.466 1683.22 362.156C1683.67 358.033 1684.19 353.905 1683.34 349.781Z" stroke="black" stroke-width="3.5"/>
</g>
<g id="coupe_4">
<path id="path1349_86" fill-rule="evenodd" clip-rule="evenodd" d="M1193.03 288.719L1192.12 321.969L1179.94 340.562L1185.28 359.281L1176.81 367.25L1194.75 367.281L1193.09 354.969L1189.44 342.781L1197.88 326.781L1216.69 326.812L1229.03 348.5L1228.94 359.281L1224.25 365.906L1241.19 366.062L1236.59 360.125L1236.97 345.312L1223.88 323.25L1236.06 291.594L1193.03 288.719ZM1200.81 296.469L1224.56 298L1216.38 318.969L1200.41 318.75L1200.81 296.469Z" stroke="black" stroke-width="3.5"/>
</g>
<g id="libra_4">
<path id="path1349_87" fill-rule="evenodd" clip-rule="evenodd" d="M1883.43 295.033L1879.97 301.804L1849.04 303.518L1835.13 332.613L1850.98 365.768L1878.33 344.968L1899.88 349.595L1896.56 342.799L1899.4 336.274L1873.99 337.906L1854.37 355.356L1854.33 309.677L1887.04 306.283L1894.8 297.813L1883.43 295.033Z" stroke="black" stroke-width="3.5" stroke-miterlimit="2.3"/>
</g>
<g id="earth_4">
<g id="path_4">
<path fill-rule="evenodd" clip-rule="evenodd" d="M1044 292.71C1039.27 292.71 1035.43 296.533 1035.43 301.249C1035.43 305.965 1039.27 309.788 1044 309.788C1048.73 309.788 1052.57 305.965 1052.57 301.249C1052.57 296.533 1048.73 292.71 1044 292.71ZM1039.1 301.249C1039.1 298.554 1041.29 296.369 1044 296.369C1046.71 296.369 1048.9 298.554 1048.9 301.249C1048.9 303.944 1046.71 306.129 1044 306.129C1041.29 306.129 1039.1 303.944 1039.1 301.249Z" fill="black"/>
<path fill-rule="evenodd" clip-rule="evenodd" d="M1059.31 301.249C1059.31 308.49 1054.24 314.553 1047.45 316.11L1088 370H1049.48L1059.66 354.848L1044 335.371L1028.34 354.848L1038.52 370H1000L1040.55 316.11C1033.76 314.553 1028.69 308.49 1028.69 301.249C1028.69 292.827 1035.55 286 1044 286C1052.45 286 1059.31 292.827 1059.31 301.249ZM1044 289.66C1037.57 289.66 1032.37 294.848 1032.37 301.249C1032.37 307.65 1037.57 312.838 1044 312.838C1050.43 312.838 1055.63 307.65 1055.63 301.249C1055.63 294.848 1050.43 289.66 1044 289.66ZM1044 317.632L1007.35 366.34H1031.64L1023.79 354.654L1044 329.516L1064.21 354.654L1056.36 366.34H1080.65L1044 317.632Z" fill="black"/>
</g>
</g>
</g>
<g id="symbols_10" clip-path="url(#clip10_0_1)">
<rect width="4660" height="100" transform="translate(994 698)" fill="white"/>
<g id="virgo_5">
<path id="path1349_88" fill-rule="evenodd" clip-rule="evenodd" d="M1388.89 706.848L1368.17 706.568L1347.33 721.978L1353.9 735.463L1349.77 753.926L1339.1 778.755L1332.45 783.117L1346 788.841L1345.96 780.431L1354.38 760.452C1361.2 763.971 1363.63 763.694 1368.28 762.059L1392.77 776.376L1396.64 781.477L1403.63 772.028L1395.87 771.235L1374.71 758.94L1378.95 739.855L1408.59 718.7L1415.5 717.626L1407.33 708.039L1405.02 714.294L1374.57 736.117L1360.13 732.59C1360.2 718.7 1367.4 715.176 1369.28 713.505L1377.83 717.506L1388.89 706.848ZM1359.6 739.641L1371.81 742.579L1368.98 755.699C1365 757.56 1359.83 757.578 1356.48 754.254L1359.6 739.641Z" stroke="black" stroke-width="3.5"/>
</g>
<g id="bo&#195;&#182;tes_5">
<path id="path1349_89" fill-rule="evenodd" clip-rule="evenodd" d="M1542.66 705.656L1539.75 710.812C1550.87 722.382 1565.54 739.628 1573.25 745.312L1573.12 736.25L1542.66 705.656ZM1542.97 722.844C1538.8 736.336 1527.96 752.51 1515.59 771.156L1504.81 773.812L1526 788.594L1524.5 774.031C1527.46 764.455 1540.81 745.27 1549.84 730.875L1542.97 722.844Z" stroke="black" stroke-width="3.5"/>
</g>
<g id="centarus_5">
<path id="path1349_90" fill-rule="evenodd" clip-rule="evenodd" d="M1720.94 706.125L1722.25 715.781L1715.66 743.594L1693.97 739.062L1690.12 731.062L1683.84 748.406L1693.22 744.125L1715.88 749.625C1717.52 755.318 1719.68 765.337 1720.59 774.969L1719.03 782.875L1731.91 780.375L1726.59 774.094C1725.89 765.272 1723.78 755.221 1722.31 747.812L1727.31 717.5L1734.06 709.406L1720.94 706.125ZM1705.53 753.812L1688.09 765L1692.59 770.062L1709.22 759.156L1705.53 753.812ZM1683.34 769.781L1670.94 770.312C1674.3 774.338 1678.5 778.466 1683.22 782.156C1683.67 778.033 1684.19 773.905 1683.34 769.781Z" stroke="black" stroke-width="3.5"/>
</g>
<g id="coupe_5">
<path id="path1349_91" fill-rule="evenodd" clip-rule="evenodd" d="M1193.03 708.719L1192.12 741.969L1179.94 760.562L1185.28 779.281L1176.81 787.25L1194.75 787.281L1193.09 774.969L1189.44 762.781L1197.88 746.781L1216.69 746.812L1229.03 768.5L1228.94 779.281L1224.25 785.906L1241.19 786.062L1236.59 780.125L1236.97 765.312L1223.88 743.25L1236.06 711.594L1193.03 708.719ZM1200.81 716.469L1224.56 718L1216.38 738.969L1200.41 738.75L1200.81 716.469Z" stroke="black" stroke-width="3.5"/>
</g>
<g id="libra_5">
<path id="path1349_92" fill-rule="evenodd" clip-rule="evenodd" d="M1883.43 715.033L1879.97 721.804L1849.04 723.518L1835.13 752.613L1850.98 785.768L1878.33 764.968L1899.88 769.595L1896.56 762.799L1899.4 756.274L1873.99 757.906L1854.37 775.356L1854.33 729.677L1887.04 726.283L1894.8 717.813L1883.43 715.033Z" stroke="black" stroke-width="3.5" stroke-miterlimit="2.3"/>
</g>
<g id="earth_5">
<g id="path_5">
<path fill-rule="evenodd" clip-rule="evenodd" d="M1044 712.71C1039.27 712.71 1035.43 716.533 1035.43 721.249C1035.43 725.965 1039.27 729.788 1044 729.788C1048.73 729.788 1052.57 725.965 1052.57 721.249C1052.57 716.533 1048.73 712.71 1044 712.71ZM1039.1 721.249C1039.1 718.554 1041.29 716.369 1044 716.369C1046.71 716.369 1048.9 718.554 1048.9 721.249C1048.9 723.944 1046.71 726.129 1044 726.129C1041.29 726.129 1039.1 723.944 1039.1 721.249Z" fill="black"/>
<path fill-rule="evenodd" clip-rule="evenodd" d="M1059.31 721.249C1059.31 728.49 1054.24 734.553 1047.45 736.11L1088 790H1049.48L1059.66 774.848L1044 755.371L1028.34 774.848L1038.52 790H1000L1040.55 736.11C1033.76 734.553 1028.69 728.49 1028.69 721.249C1028.69 712.827 1035.55 706 1044 706C1052.45 706 1059.31 712.827 1059.31 721.249ZM1044 709.66C1037.57 709.66 1032.37 714.848 1032.37 721.249C1032.37 727.65 1037.57 732.838 1044 732.838C1050.43 732.838 1055.63 727.65 1055.63 721.249C1055.63 714.848 1050.43 709.66 1044 709.66ZM1044 737.632L1007.35 786.34H1031.64L1023.79 774.654L1044 749.516L1064.21 774.654L1056.36 786.34H1080.65L1044 737.632Z" fill="black"/>
</g>
</g>
</g>
</g>
<defs>
<clipPath id="clip0_0_1">
<rect width="1920" height="1080" fill="white"/>
</clipPath>
<clipPath id="clip1_0_1">
<rect width="4660" height="100" fill="white"/>
</clipPath>
<clipPath id="clip2_0_1">
<rect width="4660" height="100" fill="white" transform="translate(0 420)"/>
</clipPath>
<clipPath id="clip3_0_1">
<rect width="4660" height="100" fill="white" transform="translate(-69 838)"/>
</clipPath>
<clipPath id="clip4_0_1">
<rect width="4660" height="100" fill="white" transform="translate(-1897 140)"/>
</clipPath>
<clipPath id="clip5_0_1">
<rect width="4660" height="100" fill="white" transform="translate(-1890 560)"/>
</clipPath>
<clipPath id="clip6_0_1">
<rect width="4660" height="100" fill="white" transform="translate(-1785 978)"/>
</clipPath>
<clipPath id="clip7_0_1">
<rect width="4734" height="100" fill="white" transform="translate(-3791 280)"/>
</clipPath>
<clipPath id="clip8_0_1">
<rect width="4734" height="100" fill="white" transform="translate(-3791 700)"/>
</clipPath>
<clipPath id="clip9_0_1">
<rect width="4660" height="100" fill="white" transform="translate(994 278)"/>
</clipPath>
<clipPath id="clip10_0_1">
<rect width="4660" height="100" fill="white" transform="translate(994 698)"/>
</clipPath>
</defs>
</svg>
