<svg width="198" height="73" viewBox="0 0 198 73" fill="currentColor" xmlns="http://www.w3.org/2000/svg">
<path d="M79.4403 19.7791L62.9094 19.7349L91.0969 72.9224H106.753L134.941 19.7349L118.409 19.7791L105.816 56.4849H92.0657L79.4403 19.7791Z" fill="#808080" stroke="black"/>
<path d="M92.1938 56.416L90.9954 60.8354" stroke="black"/>
<path d="M105.595 56.4158L106.794 60.8352" stroke="black"/>
<path d="M107.839 70.7217H89.9368" stroke="black"/>
<path d="M99.7623 70.866L99.7625 60.966L98.9296 60.01L98.0969 60.966L98.0967 70.866L98.9295 71.7035L99.7623 70.866Z" fill="#808080" stroke="black"/>
<path d="M64.1541 21.8848H80.1089L80.858 23.9072H65.2027L64.1541 21.8848Z" fill="#552200" stroke="black"/>
<path d="M66.2542 26.0847L81.509 26.0849L82.2581 28.1074L67.3028 28.1072L66.2542 26.0847Z" fill="#552200" stroke="black"/>
<path d="M68.5544 30.2849H82.8089L83.558 32.3074H69.6031L68.5544 30.2849Z" fill="#552200" stroke="black"/>
<path d="M70.7544 34.4849H84.5092L85.1587 36.5073H71.8031L70.7544 34.4849Z" fill="#552200" stroke="black"/>
<path d="M72.9543 38.6848H85.9091L86.5582 40.7073H74.003L72.9543 38.6848Z" fill="#552200" stroke="black"/>
<path d="M75.2544 42.885L87.4087 42.8852L88.0583 44.9075H76.3031L75.2544 42.885Z" fill="#552200" stroke="black"/>
<path d="M133.721 21.8848H117.767L117.018 23.9072H132.673L133.721 21.8848Z" fill="#552200" stroke="black"/>
<path d="M131.622 26.0847L116.367 26.0849L115.618 28.1074L130.573 28.1072L131.622 26.0847Z" fill="#552200" stroke="black"/>
<path d="M129.321 30.2849H115.067L114.318 32.3074H128.273L129.321 30.2849Z" fill="#552200" stroke="black"/>
<path d="M127.121 34.4849H113.367L112.717 36.5073H126.073L127.121 34.4849Z" fill="#552200" stroke="black"/>
<path d="M124.921 38.6848H111.966L111.317 40.7073H123.873L124.921 38.6848Z" fill="#552200" stroke="black"/>
<path d="M122.621 42.885L110.467 42.8852L109.817 44.9075H121.573L122.621 42.885Z" fill="#552200" stroke="black"/>
<path d="M133.721 21.8848H117.767L117.018 23.9072H132.673L133.721 21.8848Z" fill="#currentColor"/>
<path d="M131.622 26.0847L116.367 26.0849L115.618 28.1074L130.573 28.1072L131.622 26.0847Z" fill="#currentColor"/>
<path d="M129.321 30.2849H115.067L114.318 32.3074H128.273L129.321 30.2849Z" fill="#currentColor"/>
<path d="M127.121 34.4849H113.367L112.717 36.5073H126.073L127.121 34.4849Z" fill="#currentColor"/>
<path d="M124.921 38.6848H111.966L111.317 40.7073H123.873L124.921 38.6848Z" fill="#currentColor"/>
<path d="M122.621 42.885L110.467 42.8852L109.817 44.9075H121.573L122.621 42.885Z" fill="#currentColor"/>
<path d="M64.1174 21.8848H80.0723L80.8213 23.9072H65.1661L64.1174 21.8848Z" fill="#currentColor"/>
<path d="M66.2175 26.0847L81.4724 26.0849L82.2214 28.1074L67.2662 28.1072L66.2175 26.0847Z" fill="#currentColor"/>
<path d="M68.5176 30.2849H82.7721L83.5211 32.3074H69.5663L68.5176 30.2849Z" fill="#currentColor"/>
<path d="M70.7175 34.4849H84.4723L85.1219 36.5073H71.7662L70.7175 34.4849Z" fill="#currentColor"/>
<path d="M72.9177 38.6848H85.8725L86.5216 40.7073H73.9664L72.9177 38.6848Z" fill="#currentColor"/>
<path d="M75.2175 42.885L87.3719 42.8852L88.0214 44.9075H76.2662L75.2175 42.885Z" fill="#currentColor"/>
</svg>