<svg width="198" height="73" viewBox="0 0 198 73" fill="currentColor" xmlns="http://www.w3.org/2000/svg">
<path d="M80.097 0.209717L75.4096 0.241467L75.0657 1.00047L91.722 50.3598H106.204L122.86 1.00047L122.516 0.241467L117.828 0.209717L98.9626 9.52234L80.097 0.209717Z" fill="#808080" stroke="black"/>
<path d="M102.79 43.7851L98.8704 36.3699" stroke="black"/>
<path d="M101.09 50.5785L98.9529 49.478L96.8157 50.5785L98.9529 54.391L101.09 50.5785Z" fill="#808080" stroke="black"/>
<path d="M95.1272 43.7851L99.0467 36.3699" stroke="black"/>
<path d="M102.478 36.2659L114.353 1.85968C104.059 1.81399 93.7657 1.83901 83.4719 1.85993L95.3469 36.2662C97.724 36.2661 100.101 36.266 102.478 36.2659Z" stroke="black"/>
<path d="M94.4788 34.3948H103.355" stroke="black"/>
<path d="M91.8193 50.3114L93.1013 48.0908L104.765 48.0909L106.098 50.3995" fill="#808080" stroke="black"/>
<path d="M75.7646 0.213135L93.1429 48.5511" stroke="black"/>
<path d="M122.143 0.213135L104.765 48.5515" stroke="black"/>
<path d="M102.478 36.2659L114.353 1.85969C104.059 1.81399 93.7657 1.83899 83.4719 1.85994L95.3469 36.2662C97.724 36.2661 100.101 36.266 102.478 36.2659Z" fill="#currentColor" stroke="black"/>
<path d="M101.097 40.2036L101.741 36.2036L98.9716 35.2031L96.2036 36.2031L96.8156 40.2036L98.9562 42.0474L101.097 40.2036Z" fill="#808080" stroke="black"/>
<path d="M98.9407 42.0372V35.1641" stroke="black"/>
<path d="M99 44H103L118 0.5" fill="#808080" stroke="black"/>
<path d="M99 44H94.5L80 0.5" fill="#808080" stroke="black"/>
</svg>
