<svg width="332" height="351" viewBox="0 0 332 351" fill="none" xmlns="http://www.w3.org/2000/svg">
<g clip-path="url(#clip0_187_205)">
<path d="M78.7881 56.6671L4.79736 56.469L130.962 294.531H201.038L327.203 56.469L253.209 56.6671L196.842 220.959H135.298L78.7881 56.6671Z" fill="#808080" stroke="black"/>
<path d="M135.867 220.658L130.503 240.439" stroke="black"/>
<path d="M195.857 220.658L201.221 240.439" stroke="black"/>
<path d="M205.905 284.682H125.775" stroke="black"/>
<path d="M169.753 285.319L169.753 241.008L166.026 236.729L162.298 241.008L162.297 285.319L166.025 289.068L169.753 285.319Z" fill="#808080" stroke="black"/>
<path d="M10.3721 66.0869H81.7846L85.1373 75.1392H15.0658L10.3721 66.0869Z" fill="#552200" stroke="black"/>
<path d="M19.7607 84.8862L88.0401 84.8872L91.3928 93.9395L24.4545 93.9385L19.7607 84.8862Z" fill="#552200" stroke="black"/>
<path d="M30.064 103.694H93.8658L97.2185 112.746H34.7577L30.064 103.694Z" fill="#552200" stroke="black"/>
<path d="M39.9058 122.494H101.471L104.378 131.546H44.5995L39.9058 122.494Z" fill="#552200" stroke="black"/>
<path d="M49.75 141.291H107.735L110.64 150.343H54.4438L49.75 141.291Z" fill="#552200" stroke="black"/>
<path d="M60.0532 160.084L114.455 160.085L117.362 169.136H64.747L60.0532 160.084Z" fill="#552200" stroke="black"/>
<path d="M321.754 66.0869H250.342L246.989 75.1392H317.06L321.754 66.0869Z" fill="#552200" stroke="black"/>
<path d="M312.339 84.8862L244.06 84.8872L240.707 93.9395L307.645 93.9385L312.339 84.8862Z" fill="#552200" stroke="black"/>
<path d="M302.053 103.694H238.251L234.898 112.746H297.359L302.053 103.694Z" fill="#552200" stroke="black"/>
<path d="M292.207 122.494H230.641L227.734 131.546H287.513L292.207 122.494Z" fill="#552200" stroke="black"/>
<path d="M282.356 141.291H224.371L221.466 150.343H277.662L282.356 141.291Z" fill="#552200" stroke="black"/>
<path d="M272.06 160.084L217.658 160.085L214.751 169.136H267.366L272.06 160.084Z" fill="#552200" stroke="black"/>
<path d="M321.754 66.0869H250.342L246.989 75.1392H317.06L321.754 66.0869Z" fill="url(#paint0_linear_187_205)"/>
<path d="M312.339 84.8862L244.06 84.8872L240.707 93.9395L307.645 93.9385L312.339 84.8862Z" fill="url(#paint1_linear_187_205)"/>
<path d="M302.053 103.694H238.251L234.898 112.746H297.359L302.053 103.694Z" fill="url(#paint2_linear_187_205)"/>
<path d="M292.207 122.494H230.641L227.734 131.546H287.513L292.207 122.494Z" fill="url(#paint3_linear_187_205)"/>
<path d="M282.356 141.291H224.371L221.466 150.343H277.662L282.356 141.291Z" fill="url(#paint4_linear_187_205)"/>
<path d="M272.06 160.084L217.658 160.085L214.751 169.136H267.366L272.06 160.084Z" fill="url(#paint5_linear_187_205)"/>
<path d="M10.2031 66.0869H81.6155L84.9682 75.1392H14.8969L10.2031 66.0869Z" fill="url(#paint6_linear_187_205)"/>
<path d="M19.5981 84.8862L87.8774 84.8872L91.2302 93.9395L24.2919 93.9385L19.5981 84.8862Z" fill="url(#paint7_linear_187_205)"/>
<path d="M29.9043 103.694H93.7062L97.0589 112.746H34.5981L29.9043 103.694Z" fill="url(#paint8_linear_187_205)"/>
<path d="M39.7456 122.494H101.311L104.218 131.546H44.4394L39.7456 122.494Z" fill="url(#paint9_linear_187_205)"/>
<path d="M49.5879 141.291H107.572L110.478 150.343H54.2817L49.5879 141.291Z" fill="url(#paint10_linear_187_205)"/>
<path d="M59.8926 160.084L114.294 160.085L117.201 169.136H64.5864L59.8926 160.084Z" fill="url(#paint11_linear_187_205)"/>
<path d="M91.5609 19.5L72.8713 19.6266L71.5 22.6529L137.912 219.459H195.652L262.064 22.6529L260.691 19.6266L242.001 19.5L166.781 56.6313L91.5609 19.5Z" fill="#808080" stroke="black"/>
<path d="M182.039 193.244L166.411 163.678" stroke="black"/>
<path d="M175.265 220.329L166.743 215.941L158.221 220.329L166.743 235.53L175.265 220.329Z" fill="#808080" stroke="black"/>
<path d="M151.489 193.244L167.117 163.678" stroke="black"/>
<path d="M180.794 163.258L228.142 26.0737C187.099 25.8915 146.057 25.9912 105.014 26.0746L152.361 163.259C161.839 163.259 171.317 163.259 180.794 163.258Z" stroke="black"/>
<path d="M148.903 155.802H184.294" stroke="black"/>
<path d="M138.305 219.266L143.416 210.412L189.921 210.412L195.235 219.617" stroke="black"/>
<path d="M74.2896 19.5137L143.58 212.247" stroke="black"/>
<path d="M259.202 19.5137L189.912 212.248" stroke="black"/>
<path d="M180.794 163.258L228.142 26.0737C187.099 25.8915 146.057 25.9912 105.014 26.0747L152.361 163.259C161.839 163.259 171.317 163.259 180.794 163.258Z" fill="#FF6600" stroke="black"/>
<path d="M175.295 178.964L177.862 163.015L166.821 159.026L155.785 163.013L158.225 178.964L166.76 186.315L175.295 178.964Z" fill="#808080" stroke="black"/>
<path d="M166.691 186.274V158.869" stroke="black"/>
<path d="M166.926 194.104H182.874L242.682 20.6609" stroke="black"/>
<path d="M166.933 194.104H148.991L91.1772 20.6609" stroke="black"/>
</g>
<defs>
<linearGradient id="paint0_linear_187_205" x1="243.774" y1="70.613" x2="325.436" y2="70.613" gradientUnits="userSpaceOnUse">
<stop stop-color="#FF6600"/>
<stop offset="1" stop-color="#FF6600" stop-opacity="0"/>
</linearGradient>
<linearGradient id="paint1_linear_187_205" x1="237.492" y1="89.4129" x2="316.02" y2="89.4129" gradientUnits="userSpaceOnUse">
<stop stop-color="#FF6600"/>
<stop offset="1" stop-color="#FF6600" stop-opacity="0"/>
</linearGradient>
<linearGradient id="paint2_linear_187_205" x1="231.683" y1="108.22" x2="305.734" y2="108.22" gradientUnits="userSpaceOnUse">
<stop stop-color="#FF6600"/>
<stop offset="1" stop-color="#FF6600" stop-opacity="0"/>
</linearGradient>
<linearGradient id="paint3_linear_187_205" x1="224.665" y1="127.02" x2="295.888" y2="127.02" gradientUnits="userSpaceOnUse">
<stop stop-color="#FF6600"/>
<stop offset="1" stop-color="#FF6600" stop-opacity="0"/>
</linearGradient>
<linearGradient id="paint4_linear_187_205" x1="218.398" y1="145.817" x2="286.037" y2="145.817" gradientUnits="userSpaceOnUse">
<stop stop-color="#FF6600"/>
<stop offset="1" stop-color="#FF6600" stop-opacity="0"/>
</linearGradient>
<linearGradient id="paint5_linear_187_205" x1="211.682" y1="164.61" x2="275.742" y2="164.61" gradientUnits="userSpaceOnUse">
<stop stop-color="#FF6600"/>
<stop offset="1" stop-color="#FF6600" stop-opacity="0"/>
</linearGradient>
<linearGradient id="paint6_linear_187_205" x1="88.1837" y1="70.613" x2="6.52174" y2="70.613" gradientUnits="userSpaceOnUse">
<stop stop-color="#FF6600"/>
<stop offset="1" stop-color="#FF6600" stop-opacity="0"/>
</linearGradient>
<linearGradient id="paint7_linear_187_205" x1="94.4456" y1="89.4129" x2="15.9168" y2="89.4129" gradientUnits="userSpaceOnUse">
<stop stop-color="#FF6600"/>
<stop offset="1" stop-color="#FF6600" stop-opacity="0"/>
</linearGradient>
<linearGradient id="paint8_linear_187_205" x1="100.274" y1="108.22" x2="26.2229" y2="108.22" gradientUnits="userSpaceOnUse">
<stop stop-color="#FF6600"/>
<stop offset="1" stop-color="#FF6600" stop-opacity="0"/>
</linearGradient>
<linearGradient id="paint9_linear_187_205" x1="107.287" y1="127.02" x2="36.0642" y2="127.02" gradientUnits="userSpaceOnUse">
<stop stop-color="#FF6600"/>
<stop offset="1" stop-color="#FF6600" stop-opacity="0"/>
</linearGradient>
<linearGradient id="paint10_linear_187_205" x1="113.546" y1="145.817" x2="45.9065" y2="145.817" gradientUnits="userSpaceOnUse">
<stop stop-color="#FF6600"/>
<stop offset="1" stop-color="#FF6600" stop-opacity="0"/>
</linearGradient>
<linearGradient id="paint11_linear_187_205" x1="120.271" y1="164.61" x2="56.2112" y2="164.61" gradientUnits="userSpaceOnUse">
<stop stop-color="#FF6600"/>
<stop offset="1" stop-color="#FF6600" stop-opacity="0"/>
</linearGradient>
<clipPath id="clip0_187_205">
<rect width="326" height="303" fill="white" transform="translate(3 24)"/>
</clipPath>
</defs>
</svg>
