<svg xmlns="http://www.w3.org/2000/svg" xmlns:xlink="http://www.w3.org/1999/xlink" fill="#152F68" viewBox="0 0 1920 556">
  <defs>
    <path id="i" fill="#fff" d="M0 0h6370v102H0z"/>
    <path id="j" fill="#fff" d="M0 0h100v100H0z"/>
  </defs>
  <g clip-path="url(#a)">
    <g clip-path="url(#b)">
      <path fill-rule="evenodd" d="m364.3 64.5 15.6 3.8-3.4 15.6-.8.4c-4.4 2-10.4 2.2-14.5-1.8l-.6-.7 3.7-17.3Zm2.6 4.3-2.5 11.8c2.5 1.9 6 2 9 .8l2.3-10.5-8.8-2.1Z" clip-rule="evenodd"/>
      <path fill-rule="evenodd" d="M412.7 31.6 425 46l-9.6 1.5L386.6 68l-3.8 17.2 19.7 11.4 10.5 1.1-10.2 13.8-5.1-6.7L374 91c-2 .7-4 1.1-6 1-2-.2-4.2-.9-6.8-2.2l-7.6 18v10.7l-19-8 9-6L354 80.4l4-17.7-7-14.3 22.5-16.6 25.6.4-15 14.4-8.7-4-.2.1c-1.1.9-2.5 1.9-3.9 3.8-1.6 2.3-3.2 6-3.5 11.7l12.3 3 29.4-21 3.1-8.6Zm-38 3.7-19.2 14.2 6.2 12.7-4.3 19.3-10.9 25.4-4.3 2.9 8 3.4v-6.1l9.3-22 1.7.8a19 19 0 0 0 7 2.5 12 12 0 0 0 5.5-1l.8-.3 25.5 15 2.6 3.5 3.8-5.1-5-.6-22.7-13 4.7-21L413.9 44l4.2-.6-4.2-5-1.4 4L380.9 65l-16.5-4v-1.4c0-7.3 2-12 4.2-15.2a22.1 22.1 0 0 1 5.5-5.2l.9-.8 8.5 4 7.1-6.9-15.9-.2Zm173.6-5.5 32.6 32.7.1 13.3-2.8-2c-4-3-9.7-8.9-15.7-15.3l-7-7.6-11-11.9-1-1 4.8-8.2Zm.7 5.7-1 2 10.2 11.1 6.9 7.5c4.6 5 9 9.4 12.3 12.5V64L549 35.5Zm-.8 10.8 9.8 11.4-.7 1.1-6.6 10.4c-2.8 4.3-5.7 8.7-8.3 13-4.8 7.6-8.6 14.5-10.1 19l1.8 18-27.5-19.2 14-3.4c0-.2.2-.4.3-.5 12-18.3 22.4-33.8 26.4-46.8l1-3Zm1.4 7C545 66.1 535.1 81 524.1 97.6l-1 1.5-.4.6-7.7 1.9 14.9 10.4-1.2-11.1.1-.4a105 105 0 0 1 10.6-20.2A860.8 860.8 0 0 1 553.7 58l-4-4.7Zm175.3-22.5 18.3 4.6-8.2 9.9-5 29.5.4 1.6c1.4 7 3.2 16 3.9 24l6.9 8.1-18.4 3.6 2-10.2c-.8-9-2.8-18.1-4.3-23.8L699.4 73l-12.6 5.7 9.1-25.2 5.3 11 19.1 4 6.2-25.8-1.6-11.9Zm4.1 4.6 1 7.5-7 29.8-24.2-5.1-2.4-5-3.5 9.5 6.1-2.8 24.3 5.9.3 1c1.6 5.7 3.8 15.9 4.7 25.6v.3l-1 5.6 7.3-1.5-3.7-4.4v-.6c-.7-8-2.5-17-4-24.1 0-.7-.2-1.3-.3-2v-.3l5-31 5.3-6.4-7.9-2Z" clip-rule="evenodd"/>
      <path fill-rule="evenodd" d="m712 78.4 5.7 8.2-19.4 12.8-6.9-7.8L712 78.4Zm-15.2 14 2.1 2.4 13.9-9.1-1.7-2.5-14.3 9.2Zm-6 2.6.3 1.4c.8 4.2.4 8.4 0 12.2l-.1.7-.4 3.2-2.5-2a84 84 0 0 1-12.5-12l-2.3-2.8 17.5-.7Zm-10.1 3.9c2.1 2.3 4.5 4.6 7.1 6.9.3-2.5.4-4.9 0-7.2l-7.1.3Zm865.8-56.4 3 .9 2.2 16c6.6 3.6 14.2 10.5 14 21.4a32 32 0 0 1-5.8 17.5 21.2 21.2 0 0 1-17.4 9.5h-15V97.5h1.7c6.1 0 12.3-1.1 16.9-3.8 4.4-2.6 7.4-6.5 7.4-12.3a14 14 0 0 0-6.7-12.1 20.6 20.6 0 0 0-12.1-3.2h-1.5l-1.3-5 14.6-18.6Zm-10.6 20-.2-.5 11-14 1.8 13.7.8.4c6.3 3.1 13 9.3 13 18.7 0 4.7-1.8 10.7-5.3 15.5-3.4 4.7-8.2 8-14.5 8H1531V101c6-.2 12-1.5 16.8-4.2 5.4-3.2 9.2-8.2 9.2-15.4 0-7.1-3.7-12-8.3-15-4-2.7-8.9-3.9-12.8-3.9ZM1511 78l12.7 25.1h-27.3L1511 78Zm-8.5 21.6h15.5l-7.2-14.3-8.3 14.3ZM888.5 40l15.6 3.8L893.9 55 862 58.3v40.2l17.2-15.3 28.8-1.9-3.6 8.5L909 99l-24.3-5.3-28.4 21.7-17.1-35.9 14.7-30.8 31-1.7 3.6-7.1Zm1.9 4-3.3 6.5-31 1.7-13 27.4 14.5 30.5L884 90l18.8 4-2-4.3 2-4.6-22 1.4-19.2 17-2.9-1.2V55l33.6-3.5 5.3-5.8-7.1-1.7Zm335.6-2.2 10.3 24.7-27-4.4 16.7-20.3Zm-10 17.8 14.7 2.4-5.6-13.5-9.1 11.1Zm-22.7 13.7 9.6 27.1-26.7-2.2 17-24.9Zm-10.8 21.9 15.3 1.3-5.5-15.6-9.8 14.3ZM1375.7 37l33.3 1.4 4.4 22-9.2 6.7a19.7 19.7 0 0 1-1.5 6.7 6 6 0 0 1-1.5 2l-1.6 1.4-7.8-13.7 10.5-7-1.9-8.3h-14.6a65.9 65.9 0 0 1-10.5 36.2 37.3 37.3 0 0 1-29.6 16.3l2.7 16.1-19.7.1.8-2.3A88.8 88.8 0 0 0 1335 78l-6.3-9.2 26.2 1.6-10.1 9.1.1 11c6.5-.1 13.7-2.4 19.4-9.2 6.3-7.5 11.2-20.5 11.3-42.4V37Zm3.5 3.7c-.4 21.3-5.2 34.7-12 42.7a29.2 29.2 0 0 1-24 10.5h-1.7l-.1-16 5-4.6-10.7-.7 2.8 4v.4c.7 5 1 17.5-5 36.4h10.8l-2.7-16.1h2a34 34 0 0 0 28.9-14.9 63.4 63.4 0 0 0 9.8-36v-1.6l21-.1 3 13.4-9.8 6.5 3.6 6.4.1-.5c.4-1.4.6-3 .6-4.2v-1l8.7-6.4-3.4-17.1-26.9-1.1Zm-304.3 13 14 10.1-8.3 3.3-14.3 16.2-19.7-1-3.4 4.5-17.5-11.7-21 14-3 9.3-11.3-15 9.4-1.2 23.6-15.9 30.4 1-2.5 6.2 11.4 1 10.5-12.5 1.7-8.3Zm2.4 6-.8 3.9-12.3 14.6-17.9-1.7 2.4-5.8-24.2-.8-23.4 15.7-4.3.5 3.7 4.9 1.3-4 23.9-16.1 16.7 11.2 2.5-3.3 20 1 13.7-15.6 3-1.3-4.3-3.2Z" clip-rule="evenodd"/>
      <g clip-path="url(#c)">
        <path fill-rule="evenodd" d="m1827.8 91.8 3.7-29.9 6.9-6.7-.7 27.6-9.9 9Zm4.7-9 1.8-1.6.3-15.9-2.1 17.6Z" clip-rule="evenodd"/>
        <path d="m1880 119 .1-.7-.1.7Zm0-.7"/>
        <path fill-rule="evenodd" d="M1879.9 118.3h-.2.1-.4l.3 1.2v.1l-.4-1.3h-.1v.1h-.1l.6 1.2-.2-.1-.7-.9v.1m.8-.4.1 1.1-.1-1.1Z" clip-rule="evenodd"/>
        <path d="m1879.6 119.6-1-.6v.1h-.1l1 .5h.1Zm-.2 0-1-.3 1 .3Zm.1 0Zm.5-.4v-1 1Zm-.2.4Zm-.1 0h.1-.1Zm-.1 0h.1Zm.2.1Zm0 0Zm.1-.4v-1 1Zm-.7.3-.8-.2.8.2Zm.6 0-.2-1.3"/>
        <path fill-rule="evenodd" d="m1819 108.3 6-49.8 20-21.1-.2 42 10.5-.2 18.6-8.6 4 10 9.7 6.8 11.7-4.4-3-34.4-21.5-1.2-2.8-18.5 33.8 10.3 5 51.4-23.3 9.5-19.6-12.2-1.3.2 3.7 12 6.2.1 4.8 16.4a23.5 23.5 0 0 1 .6 3v.7h-.1v.2l-.2.3v.1l-.1.1-.1.1h-.1v.1h-.1v.1l-.2.1-.5.3h-.2a2.8 2.8 0 0 1-.3 0h-.4a2 2 0 0 1-.2 0l-1.2-.5-1-.6-22-14.4a14 14 0 0 1-2.3-1.8 2.9 2.9 0 0 1-.7-1.3v-.8l.2-.3v-.2h.1v-.2h.1l.1-.1.4-.4.2-.1h.1c.5-.3 1.1-.4 1.6-.5h2l4.1-.1-3.5-10.7h-15.4l-23.2 18.6Zm34.4-7.4Zm26.5 20.8Zm2-2Zm-58.4-19.5 17.5-14h19.1l5.8 17.7h-7.7l19.5 12.8-3.9-13h-6.1l-5.6-18.2 6.5-1.4 19.2 12 19.2-7.8-4.5-46.4-26.2-8 1.5 10.2 21.8 1.2 3.5 40-16 6-12-8.4-3.1-7.5-16 7.3-14.7.2.1-36.7-13 13.9-4.9 40Zm55 19.4v.1-.1Zm.5 0h-.6v-.1h.6Zm-.6 0h.8Zm.8 0h.3l.3.1v.3-.3.3-.2.2-.2l.1.2v-.2.2-.2.2-.2l.1.2v-.2h.1-.2.2-.2.3l-.3-.1h.3-.3v-.3l.3-1.1-.2-.1-1-.6-.3-.2.9-.3m-.9 1.7v.1l.8.6-.8-.7Zm.1 0Zm0-.1.8.8.1.1m-24.2-17.6Z" clip-rule="evenodd"/>
      </g>
      <path fill-rule="evenodd" d="m1687.7 79-10.4-3 6.5-27.4 3.9 30.4Zm-5-10.8-1.2 5.4 2 .6-.8-6Z" clip-rule="evenodd"/>
      <path fill-rule="evenodd" d="m1720.8 106.7-18.9 12.7-.3-12.1-12.6-20.7-19.5-4.7 11.5-47.3a6 6 0 0 1 1-2.4 3 3 0 0 1 2.4-1.1c1 0 1.9.6 2.3 1.3.5.7.8 1.5 1 2.4l6 41 16 25.6 11.1 5.3Zm-7 .5-6.6-3-16.8-27.2-6.2-41.1-10.5 43.4 17.5 4.3 13.8 22.6.2 6.8 8.6-5.8Z" clip-rule="evenodd"/>
      <path fill-rule="evenodd" d="m1709.4 80-8.4 1.8-6.2-24.3 8.3-2.3 6.3 24.8Zm-8.8-20.5-1.5.4 4.5 17.8 1.5-.3-4.5-17.9ZM50 39.7a8.6 8.6 0 1 0 0 17.1 8.6 8.6 0 0 0 0-17Zm-4.9 8.5a4.9 4.9 0 1 1 9.8 0 4.9 4.9 0 0 1-9.8 0Z" clip-rule="evenodd"/>
      <path fill-rule="evenodd" d="M65.3 48.2c0 7.3-5 13.4-11.9 15L94 117H55.5l10.2-15.2L50 82.4l-15.7 19.4L44.5 117H6l40.6-53.9A15.3 15.3 0 0 1 50 33c8.5 0 15.3 6.8 15.3 15.2ZM50 36.7a11.6 11.6 0 1 0 0 23.2 11.6 11.6 0 0 0 0-23.2Zm0 28-36.7 48.6h24.3l-7.8-11.6L50 76.5l20.2 25.2-7.8 11.6h24.3L50 64.6Zm155.1-22.1 28 1.8-9.5 24.3-19-.2.5-25.9Zm3.4 3.7-.3 18.7 13 .2 6.9-17.6-19.6-1.3Z" clip-rule="evenodd"/>
      <path fill-rule="evenodd" d="m197.3 34.9 47.2 3.1-12.7 33 13 21.9-.4 14.6 6.4 8.3-24-.2 6.4-8.9V97l-11.5-20.4h-16.8L197.3 91l3.5 11.6 2 14.4h-24.4l11-10.3-5.4-18.4 12.4-18.9 1-34.5Zm3.4 3.7-.8 32-12 18.3 5.4 19-6 5.6h11.4l-1.3-10.2-3.8-12.7 9.2-17.6h21l13 23-.1 11.8-3 4.4h9.9l-2.8-3.5.4-15L228 71.5l11.7-30.2-38.9-2.6Z" clip-rule="evenodd"/>
    </g>
    <g clip-path="url(#d)">
      <path fill-rule="evenodd" d="M946.1 176.2h.4c1.8 0 3.5.5 5.2 1l1.7.6c1 .4 2.2.8 3.4 1a13 13 0 0 0 10.6-1l1.2-.7 27.3 25.4 9.1 1.6-14 13.4-1.8-8.8-19.4-17.4-3.7 8.8 2.6 17.5-14.9 4.4 4.3-11.7-1.2-10.3 3.1-11a17 17 0 0 1-10.5-2.5c-.8-.5-1.2-.8-2.2-.8l-9.2 5.4 3.7 2.4.1 16.8-16.1 16.3-3.6 8-10.6-13.5 8.4-2.3 12.9-12-.4-8-13.5-8.3 27.1-14.3Zm.8 3.6-20.9 11 10 6 .5 11.4-14.8 13.7-4.1 1.2 3.8 4.8 1.5-3.3 15.5-15.7v-13.5l-7-4.5 14.9-8.6h.4a7 7 0 0 1 5 1.5l1 .5c1.3.7 3.6 1.5 9.5 1l2.5-.2-4.2 15.1 1.1 10.5-2.1 6 5.3-1.6-2.3-15.4 6-14.3 23.9 21.5.8 3.7 4.4-4.2-3.3-.6-26.3-24.4a16.6 16.6 0 0 1-12.1.9L952 181l-1.5-.5a16 16 0 0 0-3.7-.8Zm-836.4 21 7-30-2.8-12 17.8 3.2-5.2 9.1L123 195l31.7 13.9 10-5.8 2.4 21.8-12.1-3.7-28 14.9-6.8 10.8-8.1-23.3 12.5 2.8 19.8-10.8-33.8-14.7Zm4.1-2 37.7 16.3L125 230l-7.7-1.7 3.7 10.5 3.4-5.5 30-16 8.6 2.6-1.2-11.2-7 4-35.9-15.8 5-27 3.1-5.3-7.7-1.4 1.7 7.6-6.4 28Zm368.3-26.6 3.4 17-.5 38.3-2.8-2.3a818 818 0 0 1-39.8-34.3l-2-1.8 41.7-16.9Zm-35.3 18a814.5 814.5 0 0 0 34.8 30l.4-30.7-2.5-12.4-32.7 13.2Z" clip-rule="evenodd"/>
      <path fill-rule="evenodd" d="m487.6 162 6.4 24.4-.9 44.7 5.7 7.4-14.6 7.3-3.1-11.1c-8.7-8.2-16.5-15-23.3-21l-4.1-3.6c-7.4-6.5-13.4-12-18-17.2l-8.9 2.4-4.4-8.7 2-.6a572.6 572.6 0 0 0 61.3-23.1l1.9-1Zm-60.2 26.7 1.3 2.5 8.3-2.2.7.8c4.4 5.2 10.5 10.8 18.3 17.6l4.1 3.6c6.9 6 14.8 13 23.8 21.5l.3.3 2.2 8 7-3.5-3.8-5.1.9-45.4-5.3-19.9c-17.2 8-37.5 15-57.8 21.8ZM767.7 178l24.8 9.7-14.2 7.4-14.6 19.9 55.4 4.8-2.4-27.4 21 6.7-7.8 13.7 3 19.8-88.5-9.4 25-32.6-1.7-12.6Zm4.3 5.5 1.1 8.1-22.2 28.8 77.9 8.2-2.5-16.5 6.2-11-11.8-3.8 2.3 26.3-65.8-5.7 18.8-25.5 8-4.3-12-4.6ZM266.3 171l21 4.6-8.3 8-4.4 40 2.5-.6 46.4-4.7 9.8-7.3 4.5 22.8-14.8-4.6-45 5.1-17 5.4 6.8-57.5-1.5-11.1Zm4.2 4.5.9 6.7-6.3 52.5 12.2-3.8 46-5.3 9.9 3-2.3-11.5-6 4.6-47.2 4.7-7 2 5-46.5 4.5-4.3-9.7-2Z" clip-rule="evenodd"/>
      <path fill-rule="evenodd" d="m303.3 184.1 22.9 13.3-25 8.5 2.1-21.8Zm3 5.8-1.1 11 12.6-4.3-11.5-6.7ZM628.2 170l1 1.7c1.7 3.7 4.2 9.4 4.3 31.2l3.2 7.9 1.8 4.3a97 97 0 0 1 2.2 5.9c.6 1.7 1 3.3 1 4.5v1.7l-25-.2-3.6-16.2 5.9-37.1 3.6-3.1c.6-.5 1.1-1 1.6-1.2.5-.3 1.3-.7 2.1-.5a3 3 0 0 1 1.9 1.1Zm-2.5 2.6-.8.6-2.7 2.3-5.6 35.2 3 12.8 18.3.2-.5-1.6-2.1-5.6-1.8-4.3-3.4-8.4v-.6c-.2-21.7-2.7-27-4.1-30a12 12 0 0 0-.3-.6Z" clip-rule="evenodd"/>
      <path fill-rule="evenodd" d="m628.1 158.1 10.3 19.8 2.2 21.5 8.3 21.5.6 13.8-17.1 11.3-22.9-15.5-3.2-21.1 7.2-40 14.6-11.3Zm-11.4 13.3-6.8 38 2.9 19 19.6 13.4 13.5-9-.5-11.2-8.2-21.4-2.2-21.3-8-15.4-10.3 7.9Z" clip-rule="evenodd"/>
      <g clip-path="url(#e)">
        <path fill-rule="evenodd" d="m-70.1 219.8 3.6-29.9 6.9-6.7-.7 27.6-9.8 9Zm4.6-9 1.8-1.6.3-15.9-2.1 17.6Z" clip-rule="evenodd"/>
        <path d="m-18 247 .1-.7-.1.7Zm0-.7"/>
        <path fill-rule="evenodd" d="M-18.1 246.3h-.2.1a2.5 2.5 0 0 1-.2 0h-.1l.3 1.2v.1l-.4-1.3a1.3 1.3 0 0 0-.2.1l.6 1.2-.2-.1-.7-.9v.1m.8-.4.1 1.1-.1-1.1Z" clip-rule="evenodd"/>
        <path d="m-18.4 247.6-1-.6a1.5 1.5 0 0 0 0 .1h-.1l1 .5h.1Zm-.2 0-1-.3 1 .3Zm.1 0Zm.5-.4v-1 1Zm-.2.4Zm-.1 0h.1-.1Zm-.1 0h.1Zm.3.1Zm-.1 0Zm.1-.4v-1 1Zm-.7.3-.8-.2.8.2Zm.6 0-.2-1.3"/>
        <path fill-rule="evenodd" d="m-79 236.3 6-49.8 20-21.1-.2 42 10.5-.2 18.6-8.6 4 10 9.7 6.8L1.3 211l-3-34.4-21.5-1.2-2.8-18.5 33.8 10.3 5 51.4-23.3 9.5-19.6-12.2-1.3.2 3.7 12 6.2.1 4.8 16.4a29.6 29.6 0 0 1 .6 3 2.7 2.7 0 0 1 0 .4 1.8 1.8 0 0 1-.1.4v.1l-.2.3v.1a1.9 1.9 0 0 1-.2.2h-.1v.1h-.1v.1l-.2.1-.5.3a2 2 0 0 1-.6 0h-.4a2.1 2.1 0 0 1-.2 0l-1.2-.5a21 21 0 0 1-1-.6l-22-14.4c-.9-.6-1.7-1.2-2.2-1.8a2.8 2.8 0 0 1-.8-1.3v-.4a1.9 1.9 0 0 1 0-.3v-.1l.2-.3v-.2h.1a2 2 0 0 1 .1-.2l.1-.1.4-.4.2-.1a2 2 0 0 1 .1 0c.5-.3 1.1-.4 1.6-.5h2l4.1-.1-3.5-10.7h-15.4L-79 236.3Zm34.4-7.4Zm26.5 20.8Zm2-2Zm-58.4-19.5 17.4-14h19.2l5.8 17.7h-7.7l19.5 12.8-3.9-13h-6.1l-5.6-18.2 6.4-1.4 19.3 12L9 216.4 4.5 170l-26.2-8 1.5 10.2 21.8 1.2 3.4 40-15.9 6-12-8.4-3.1-7.5-16 7.3-14.7.2.1-36.7-13 13.9-4.9 40Zm55 19.4a2 2 0 0 0 0 .1 2.2 2.2 0 0 1 0-.1Zm.5 0h-.6v-.1h.6Zm-.6 0h.8Zm.8 0h.3l.3.1v.3-.3.3-.2.2-.2l.1.2v-.2.2-.2.2-.2l.1.2v-.2h.1-.2.2-.2.3l-.3-.1h.3-.3v-.3l.3-1.1-.2-.1-1-.6-.3-.2.9-.3m-.9 1.7v.1l.8.6-.8-.7Zm.1 0Zm0-.1.8.8.1.1M-42.5 230Z" clip-rule="evenodd"/>
      </g>
      <path fill-rule="evenodd" d="m1306.4 160.6 19.6 7.8-7.7 7.4-13.6 42.6.6 9.2-41.8 15.4-15.4-24.2h43.3l17.5-48.1-2.5-10.1Zm5 5.8 1.2 4.5-18.8 51.4h-39.3l10.4 16.5 36.7-13.6-.5-7.2 14.1-44.1 4.5-4.2-8.3-3.3Zm459.6 17.8 24.7 38.7-27 5 2.3-43.7Zm2.9 11-1.6 28.5 17.6-3.3-16-25.1Z" clip-rule="evenodd"/>
      <path fill-rule="evenodd" d="m1764.3 158.8 49 71.5-54.2 10.1 5.2-81.6Zm2.8 10.4-4.2 67 44.5-8.4-40.3-58.6ZM1604.6 156l2 14 3.2 3.6-2.1 6.6 8.3 22.4-2.3 4.6 2.9 12.6h3l-1.8-25.5 16.3 4-6.8 9 4.5 40.2-3 1.4-21.3-21.3-3.6-18.8-4-5.1 2-5.4-2.8-16-3.8-4.8 1.2-6.9-6.4-10.6 14.5-4Zm-9.1 6.2 4.6 7.7-1.1 6.7 3.4 4.3 3.1 17.8-1.7 4.4 3.4 4.2 3.5 18.6 17 17-4-36.6 4.4-5.9-6.5-1.6 1.8 24.4-9.6.2-3.8-16.6 2.2-4.4-8.3-22.2 2-5.8-2.7-2.8-1.5-11-6.2 1.6Zm376-7.2 17.9 14-9.5 3.3-27 24.1-21.6 41.6.8 13.2-18.6-12.6 8.6-5.9 20-41.3 29.3-25.7.1-10.7Zm3.4 7.1v5.2l-30 26.3-20 41.5-5.2 3.5 8.5 5.7-.4-7 22.3-43 28-25 4-1.5-7.2-5.7Zm-514.9-4.8 9.4 7.8v10.4l-4.4.5v3.4c.4 9.8.7 18.6 3.3 27.3 3 10 9.3 20 22.6 31.1l4.6 3.8-5.9-.7c-13.8-1.6-29-2.2-43.8-2.7l-14.8-.6-4.7 5.1-15.8-11.3 33.2-8.5-5 5.6 31.7 1.2a63 63 0 0 1-12.5-22.3 137.3 137.3 0 0 1-3-32.6l-4.7-5.8 9.9-11.7Zm-26.5 71.8-14.9 3.8 7.2 5.2 3.7-4.1h.8l15.5.7c12.8.4 26.2 1 38.7 2.2a64.2 64.2 0 0 1-19.5-29.2c-2.8-9.2-3.1-18.5-3.4-28.3l-.2-4.9V173l4.4-.5v-5.7l-5.3-4.5-5.8 6.8 3.7 4.5v.6l.1 3.8c.6 13.7 1 21.7 2.8 28.6a67 67 0 0 0 14.1 24l2.4 3-46.6-1.8 2.3-2.6Zm-279.7-65.2 13.1 3.2-5.3 5.6-2.8 14L1122 198l-6.9.9 8.3 9.9 34.4-7.1 1.9-14.6 9.8 4-6.5 16.6-11 2.3-2.9 4.8-25.2 1.4-14.9 21-2.5 7.9-11.3-12.2 8.3-1.2 12.6-19-10.3-12.7-10 .1 7.3-11.3 12.4 2.3 36.7-10.4 2-8.2-.4-8.6Zm2.6 3.2.2 5.7-2.3 10-38.6 11-11.5-2.2-3.7 5.9h6.5l12.2 15.1L1105 234l-4.6.7 5.1 5.5 1.3-4.1 15.9-22.4 25-1.4 2.8-4.6 10.8-2.3 5-12.9-4.5-1.8-1.7 13.1-37.5 7.8-12.3-14.7 11.2-1.4 35.3-10.8 2.6-13.2 2.8-3-5.7-1.4Zm-77.1 39.3 7.7 11.3-12.3 4.5 4.6-15.8Zm.9 5.8-1.7 5.9 4.6-1.7-2.9-4.2Z" clip-rule="evenodd"/>
    </g>
    <g fill-rule="evenodd" clip-path="url(#f)" clip-rule="evenodd">
      <path d="m81.5 283 17.9 14-9.5 3.3-27 24.1L41.4 366l.8 13.2-18.6-12.6 8.6-5.9 20-41.3 29.3-25.7.1-10.7Zm3.4 7.1v5.2l-30 26.3L35 363l-5.1 3.5 8.4 5.7-.4-7 22.3-43 28-25 4-1.5L85 290Zm657.3 12.1 1 22.4-11-5.9-28.9 3.5-14.5 5.6.3 16.6 21.2 6.8h13L718 368l-8-7.8-30-9.3-.6-23.2-5.4-5.7 16.7-16.2 17.2 6.4 24.7-2.9 9.7-7ZM739 309l-5.1 3.7-26.5 3-16-5.8-12.6 12.2 4 4.2.5 22 28.5 8.8 4.5 4.5 2.2-6.8h-8.8l-24-7.7-.4-21.5 17.2-6.7 30.3-3.7 6.6 3.5-.4-9.7Zm9.5 19.7 15.4 8.9-14.7 10.5-.7-19.4Zm3.7 6.2.2 6.6 5-3.6-5.2-3Zm88.3-29 8.7 6.2 8.7-2.3 16.2 9.3 5.7 13.4 3.6-.3 3.9-8L915 336l3 16.2 7.4 9.7-14.8.4-2.8-19.7-19-3-14.4 4.5-5.5-10.7-5 2.6-6.7-10.4 3.3-1.6-4.9-2.4-3 5.6-7.3-5.3-5-.1.2-16Zm3.4 6.7-.1 5.9h2.7l4.9 3.6 2.8-5 14.2 6.9-6.2 3 3 4.5 5.3-2.7 5.7 11.2 12.3-3.8 22.5 3.4 2.6 19.2 4.8-.1-3.8-4.9-2.7-15.3-23-9.8-3.2 6.9-8.1.6-6.3-14.6-13.9-8-8.9 2.3-4.6-3.3Zm-605.5-19.8 2.3 2.2a33.7 33.7 0 0 0-1 20.3l12.2 39.2-23-4.6.7-2c.5-1.3.9-4 1.1-7.4A128.1 128.1 0 0 0 229 311l-9.6 3.5-11.5 18.6-2.6 22 .9 4 5 3.8c.2.2.6.6.8 1.1.3.6.2 1.3 0 1.8-.4.9-1.3 1.4-1.8 1.6-1.3.5-3.1.8-5 .7-3.7-.1-8.9-1.6-11-6.6l-.1-.4 3.9-30.4 8.5-13.2.3-10.3 31.7-14.5Zm-28.2 16.7-.3 9.2-8.7 13.3-3.6 28.7c1.4 2.7 4.6 3.9 7.6 4h2.1l-4.4-3.4-1.3-6 2.8-23.3 12.5-20.3 14.1-5.1.6 1.6c.8 1.9 1.3 5 1.8 8.5a146.4 146.4 0 0 1 .8 24c-.1 2.5-.4 4.8-.8 6.6l13.4 2.6-10.4-33.6c-1.6-5-1.8-11.7-.1-18.7l-26.1 12Zm-1.3 56.3Zm0-1.6ZM592.8 311l3.7 18.4-9.4-2-23.6 1.8a81 81 0 0 0 30.6 7h1.6V350l-10.3-4.6a95.6 95.6 0 0 1-36.8-10.7 35.2 35.2 0 0 1-6.2-4l-26.3 2.7-7.7 6-2.4-18 9.7 3a816 816 0 0 1 69.1-6.8l8-6.5Zm-2.3 6.4-4.3 3.5h-.6a835 835 0 0 0-69.7 6.9h-.4l-5.3-1.6.9 6.6 3.7-2.8 28.9-3 .6.6c1 1 3 2.3 5.9 3.9a92.3 92.3 0 0 0 35.6 10.3h.4l6 2.7v-4.9a83 83 0 0 1-36-10.1l-5.4-2.9 36.5-2.6 4.7.9-1.5-7.5Zm623.6-22-3.8 33.6-31-11 34.8-22.6Zm-27 21.7 20.2 7.1 2.5-21.8-22.6 14.7Zm26.1 16.5 30.6 11-34.4 22 3.8-33Zm3 4.8-2.5 21.3 22.2-14.2-19.7-7Z"/>
      <path d="m1222.6 281.6-5.2 46.2 42 15-58.5 37.5 5.2-45.5-42.3-15 58.8-38.2Zm-51 37.3 38.3 13.6-4.7 40.8 46.3-29.7-38-13.4 4.8-41.6-46.6 30.3Zm355.6-5.4 46.9 29.7-11.3 16.1-46.5-31.2 11-14.6Zm.9 4.7-6.8 9 40.6 27.3 7.2-10.3-41-26Z"/>
      <path d="m1535 302.4-1.7 7.7L1574 337l8.8-4.9-.2 12-4.9 1.8-2.2 12.4-6.5 2.4-6.5 5.7-45.7-31-5 11-14.6-10.3 10.4-4.2L1522 311l-1.3-8.2 14.3-.4Zm-10.2 3.8 1 5.7-16 22.9-5.4 2.2 6 4.2 5-11 46.8 31.8 5-4.4 5.2-1.9 2.2-12.4 4.6-1.6v-3.6l-5.3 3-44.6-29.5 1.3-5.6-5.8.2Zm156.2-8 21.9 19.2 7 2.4-8 9.1-3.6-6.3-15.8-12.8h-1.2l-4.2 4.4-9.8-.7 1.5-9.4 12.2-6Zm-9.5 8-.7 4.5 5 .4 4.2-4.4 3.7.1 17 13.8 1.8 3.2 2.2-2.6-3.4-1.1-20.8-18.4-9 4.4Zm25.7 25.2 2.5 1.1.1 14.4-2.5 1-9-9 9-7.5Zm-4.5 7.7 4 4.1v-7.4l-4 3.3Zm11 3 7.3 5.2-5.2 6.6-6.7-5.8 4.6-6Zm.6 4.1-1 1.4 2.1 2 1.3-1.7-2.4-1.7Zm21.9-1.2 6.7 11.2h14.2l.3 11-20-.1-.2-7-4.9-5.6-1.8.9-8.1 7.9-2.6-1-.3-13 16.7-4.3Zm-13.6 6.7.2 7 6-5.9 4.4-1.9 7 8 .1 5.2 14 .1-.1-5h-13l-6.5-10.7-12.1 3.2Zm111.7-48.7 23.4 4.4h.2a178 178 0 0 1 25.9 14.6l.3.2 16 25.6 17.7 1.9 7.8-5.4 1.3 15-13.1-.2-11.3-3.2-9 1.5-.5-1.3a63.5 63.5 0 0 0-22.7-30.2 58.8 58.8 0 0 0-31.6-9.2h-1.3l-3-13.7Zm4.6 4.5 1.3 5.8c11.8.6 22.6 3.4 32 9.7a66.3 66.3 0 0 1 23.5 30.5l7-1.1 11.6 3.2 8.8.2-.5-5.2-4 2.7-20.6-2.2-16.5-26.5c-7.7-5.4-16.2-9.6-24.9-13.9l-17.7-3.2Zm-475.2-21.4L1364 298l7.3 1.7 10 34.5h35.7l-3.6 23.4v8.7l3.2 8.6-17.6-.1 4.2-9.2 1.8-20.4-68.4-5.1-2.2-24.5 33 18.8h2.6l-9.4-26.5-6.3-6.6-9.5-1.2 9-14Zm.4 5.9-3.4 5.4 5.1.6 7.8 8 11.2 31.8-8.3.1-28-16 1.2 15 69 5-2.1 24.6-2.2 4.8h7l-1.6-4.3v-9.7l3-19.6h-34.1l-10.3-35-6.4-1.6-7.9-9.1ZM1080 308l7 7.1-5.2 4.4-1.3 31.8 3.5 4.8-8.4 4.5-2.7-7-17.8-8.5 5.2-5.8 13 6.3.4-22.9-17.8 6-.5-8.2 19.4-6.6 5.2-5.9Zm.1 3.7-3.8 4.4-18.2 6.2.2 3 18-6-.6 30.2-14.8-7.1-1.7 1.9 15.7 7.6 2 5.1 3.3-1.7-2.3-3.2 1.4-33.8 4-3.3-3.2-3.3Zm-64.9-.1 3 5.7 13.6 4.4 11.5.6.7 7.3-12.1-.6-12.6-4 .6 14.9 12.4-4.6h14.3l-.1 7.3h-14l-12.1 5-6 4.7-7.7-5.2 6-5.2-.5-20-5.6-5.5 8.6-4.8Zm-4.5 5.4 4 3.8.4 22.3-4.3 3.8 3.5 2.3 4.8-3.8 12.9-5.3h12v-2.3h-11.2l-15.3 5.6-.8-22 15.6 5.1 9 .5-.3-2.3-9.6-.5-14.9-4.8-2.3-4.3-3.5 1.9Zm38.1 3.3h-.4.4-.6c-3.6.6-4.8 4.5-2.6 6.8.8.9 2 1.3 3.3 1.3h.1c1.5-.2 2.6-.7 3.3-1.5.8-.9 1.1-1.9 1-3-.2-2-2-3.5-4.5-3.6Zm-.2 2.5c-1.7.2-2 1.8-1.2 2.6.3.3.7.5 1.4.5 1-.1 1.4-.4 1.7-.7.3-.3.3-.6.3-1 0-.5-.6-1.4-2.2-1.4Z"/>
      <path d="M1051.5 328.3h-.5c-2.2.3-4 1.6-4 3.5a3 3 0 0 0 1.3 2.5c.8.6 1.8.9 3.1 1 1.4 0 2.5-.3 3.4-1a3 3 0 0 0 1.2-2.6c-.1-2-2-3.3-4.5-3.4Zm-.2 2.5c1.8 0 2.2 1 2.2 1.1 0 .1 0 .3-.2.4-.3.2-.8.4-1.8.4m-.2-1.9c-1.5.2-1.8 1-1.8 1 0 .2 0 .3.3.5.2.2.8.4 1.7.4m3.2 9.5a4 4 0 0 1-3 1.3c-2.6 0-4.3-1.8-4.5-3.7-.1-1 .1-2 .8-2.8a4 4 0 0 1 3-1.3c2.7 0 4.3 1.8 4.5 3.8.2 1 0 2-.8 2.7Zm-1.6-2.5c-.1-.7-.7-1.5-2-1.4-.7 0-1 .2-1.2.4a1 1 0 0 0-.3.8c.1.7.7 1.5 2 1.5.8 0 1-.2 1.2-.4.2-.2.3-.5.3-.9Zm-687.8-11 25.7 3.5 4.5 21.4-1.8.3c-5.5.9-11.2 2.7-16.7 5.4l-1.8 1-9.9-31.6Zm5 4.2 7 22.4a67 67 0 0 1 14-4.5l-3.2-15.5-17.8-2.4Z"/>
      <path d="M401.4 290.4h15l-3 7.4a49.6 49.6 0 0 1-14 37.7l5.2 24.2-2 .2c-13 .9-23 3.9-29 8.4l-2 1.5-15.5-49.1 38 4.6a35 35 0 0 0 9.7-27.4l-2.4-7.5Zm4.7 3.5 1.1 3.4v.2a38 38 0 0 1-11.3 31l-.6.5-34.2-4.2 12.4 39.3c6.4-4 15.7-6.6 26.8-7.6l-4.7-22.1.7-.7a46.3 46.3 0 0 0 13.6-36v-.5l1.4-3.3H406Z"/>
    </g>
    <g fill-rule="evenodd" clip-path="url(#g)" clip-rule="evenodd">
      <path d="m171.5 445.2 6.7 7.1a77.3 77.3 0 0 1 23.5 8c8 4.6 15.6 11.9 22.5 24.2l8.9 11.6h-17l-.5-9a38.3 38.3 0 0 0-16-17.8 62.6 62.6 0 0 0-30-7l-2.1-.1 4-17Zm1.9 7.2-1.5 6.4c12 .5 21.7 3 29.4 7.5a41.3 41.3 0 0 1 17.6 19.6l.2.3.3 6.5h6.6l-4.7-6.3h-.1a57.4 57.4 0 0 0-21.2-23c-7.4-4.3-15.1-6-23.1-7.8h-.5l-3-3.2Zm74.7 1.2 14 11.6-18.2 3.2 4.2-14.8Zm2 6.1-1.3 4.3 5.2-1-4-3.3Zm466.9-33 21.7 71.5 8.3 3-1 1.7a21 21 0 0 1-8 8.1c-1 .5-2 1-2.9 1l-1.5.2-2.3-10.2-19.6-59.8-10.6 9.6 13 29.9 6.7 8.4-14.6 3.8.6-9.4-12.6-26.6-12.4 1.8-13.8-15.5 10-13.7 9.5 19 4.5.2c.4-2.9 1.3-6 4.1-9.4 3.3-3.9 9-8 19.1-12.7l1.9-.9Zm-18.2 15.8a16 16 0 0 0-3.6 9.2l-.2 1.6-9.7-.4-7.8-15.7-5 6.8 10.7 12 13-1.9 14.1 29.7-.3 5.5 4.7-1.3-3.6-4.5-14.2-32.6 16.5-14.9 21.2 65.1 1.6 6.9a20.5 20.5 0 0 0 5.6-5l-5.9-2-21-69.4a47.2 47.2 0 0 0-16 11Zm-124.2-5.2 9.2-7.7 2.8 1 4 18.2-2.3 2-11.7-4.3a126.5 126.5 0 0 0-63.5 45.2l.3 10.5-2.7 1.5-14.6-10 .2-3 9.1-4.1a121 121 0 0 1 69.2-49.3Zm9.2-3.1-7.5 6.3-.4.1a117.1 117.1 0 0 0-68 48.4l-.2.4-7 3.1 9.1 6.3-.2-8.3.3-.4c15.9-21 37.1-38 66.2-47.2l.6-.1 9.8 3.6-2.7-12.2ZM2.3 441l23.4 4.4h.2A178 178 0 0 1 51.8 460l.3.2 16 25.6 17.6 1.9 8-5.4 1.2 15-13.1-.2-11.3-3.2-9 1.5-.5-1.3a63.6 63.6 0 0 0-22.7-30.2 58.8 58.8 0 0 0-31.6-9.2H5.4l-3-13.7Zm4.6 4.5 1.3 5.8c11.8.6 22.6 3.4 32 9.7a66.2 66.2 0 0 1 23.5 30.5l7-1.1 11.6 3.2 8.7.2-.4-5.2-4 2.7L66 489l-16.5-26.5c-7.7-5.4-16.2-9.6-24.9-13.9L7 445.5ZM335.4 427l10.8 8.8 33 7.6 11-4.8-8.4 22.5-5.8-8.6-32-7.8-11.4 2.6 2.8-20.3Zm2.6 6.7-1.3 9.1 7.4-1.7 34 8.4 2.8 4 3.2-8.4-4.5 2-35-8.1-6.6-5.3Zm55 29.2 9.5 14.8-8.1 5.6-9.1-14.1 7.6-6.3Zm-3 7 5.4 8.5 2.3-1.6-5.6-8.7-2.2 1.8Zm16 18.4 18.7 8.8-19 15.3.3-24.1Zm3.4 5.5-.2 11.2 9-7.1-8.8-4.1Z"/>
    </g>
    <g fill-rule="evenodd" clip-path="url(#h)" clip-rule="evenodd">
      <path d="m1167.3 458.5 15.6 3.8-3.4 15.6-.8.4c-4.4 2-10.4 2.2-14.5-1.8l-.6-.7 3.7-17.3Zm2.6 4.3-2.5 11.8c2.5 1.9 6 2 9 .8l2.3-10.5-8.8-2.1Z"/>
      <path d="M1215.7 425.6 1228 440l-9.6 1.5-28.8 20.5-3.8 17.2 19.7 11.4 10.5 1.1-10.2 13.8-5.1-6.7L1177 485c-2 .7-4 1.1-6 1-2-.2-4.2-.9-6.8-2.2l-7.6 18v10.7l-19-8 9-6 10.4-24.1 4-17.7-7-14.3 22.5-16.6 25.6.4-15 14.4-8.7-4-.2.1c-1.1.9-2.5 1.9-3.8 3.8-1.7 2.3-3.3 6-3.6 11.7l12.3 3 29.4-21 3.1-8.6Zm-38 3.7-19.2 14.2 6.2 12.7-4.3 19.3-10.9 25.4-4.3 2.9 8 3.4v-6.1l9.3-22 1.7.8a19 19 0 0 0 7 2.5 12 12 0 0 0 5.5-1l.8-.3 25.5 15 2.6 3.5 3.8-5.1-5-.6-22.7-13 4.7-21 30.5-21.9 4.2-.6-4.2-5-1.4 4-31.6 22.6-16.5-4v-1.4c0-7.3 2-12 4.2-15.2a22 22 0 0 1 5.5-5.2l.9-.8 8.5 4 7.1-6.9-15.9-.2Zm173.6-5.5 32.6 32.7.1 13.3-2.8-2c-4-3-9.7-8.9-15.7-15.3l-7-7.6c-3.8-4.1-7.5-8.3-11-11.9l-1-1 4.8-8.2Zm.8 5.7-1.2 2c3.3 3.4 6.8 7.3 10.3 11.1l6.9 7.5c4.6 5 9 9.4 12.4 12.5l-.1-4.6-28.4-28.5Zm-.9 10.8 9.8 11.4-.7 1.1-6.6 10.4c-2.8 4.3-5.7 8.7-8.3 13-4.8 7.6-8.6 14.5-10.1 19l1.8 18-27.5-19.2 14-3.4c0-.2.2-.4.3-.5 12-18.3 22.4-33.8 26.4-46.8l1-3Zm1.4 7c-4.6 12.8-14.5 27.7-25.5 44.3l-1 1.5-.4.6-7.7 1.9 14.9 10.4-1.2-11.1.1-.4c1.6-5 5.8-12.4 10.6-20.2 2.6-4.2 5.5-8.7 8.4-13l5.9-9.3-4-4.7Zm175.3-22.5 18.3 4.6-8.2 9.9-5 29.5.4 1.6c1.4 7 3.2 16 3.9 24l6.9 8.1-18.4 3.6 2-10.2c-.8-9-2.8-18.1-4.3-23.8l-21.1-5.1-12.6 5.7 9.1-25.1 5.3 11 19.1 4 6.2-26-1.6-11.8Zm4.1 4.6 1 7.5-7 29.8-24.2-5.1-2.5-5-3.4 9.5 6.1-2.8 24.3 5.9.3 1c1.6 5.7 3.8 15.9 4.7 25.6v.3l-1 5.6 7.3-1.5-3.7-4.4v-.6c-.7-8-2.5-17-4-24.1 0-.7-.2-1.3-.3-2v-.3l5-31 5.3-6.4-7.9-2Z"/>
      <path d="m1515 472.4 5.7 8.2-19.4 12.8-6.9-7.8 20.6-13.2Zm-15.2 14 2.1 2.4 13.9-9.1-1.8-2.5-14.2 9.2Zm-6 2.6.3 1.4c.8 4.2.4 8.4 0 12.2l-.1.7-.4 3.2-2.5-2c-4.8-3.7-9-8-12.5-12l-2.3-2.8 17.5-.7Zm-10.1 3.9c2.1 2.3 4.5 4.7 7.1 6.9.3-2.5.4-4.9 0-7.2l-7.1.3Zm207.8-58.9 15.6 3.8-10.2 11.2-31.8 3.3v40.2l17.2-15.3 28.8-1.9-3.6 8.5 4.5 9.3-24.3-5.3-28.4 21.7-17.1-35.9 14.7-30.8 31-1.7 3.6-7.1Zm1.9 4-3.3 6.5-31 1.7-13 27.4 14.5 30.5 26.3-20 18.8 4-2-4.3 2-4.6-22 1.4-19.2 17-2.9-1.2V449l33.6-3.5 5.3-5.8-7.1-1.7Zm184.5 9.7 14 10.1-8.3 3.3-14.3 16.2-19.7-1-3.4 4.5-17.5-11.7-21 14-3 9.3-11.3-15 9.4-1.2 23.6-15.9 30.4 1-2.5 6.2 11.4 1 10.5-12.5 1.7-8.3Zm2.4 6-.8 3.9-12.3 14.6-17.9-1.7 2.4-5.8-24.2-.8-23.4 15.7-4.3.5 3.7 4.9 1.3-4 23.9-16.1 16.7 11.2 2.5-3.3 20 1 13.7-15.6 3-1.3-4.3-3.2ZM853 433.7a8.6 8.6 0 1 0 0 17.1 8.6 8.6 0 0 0 0-17Zm-4.9 8.5a4.9 4.9 0 1 1 9.8 0 4.9 4.9 0 0 1-9.8 0Z"/>
      <path d="M868.3 442.2c0 7.3-5 13.4-11.9 15L897 511h-38.5l10.2-15.2-15.7-19.4-15.7 19.4 10.2 15.2H809l40.6-53.9A15.3 15.3 0 0 1 853 427c8.5 0 15.3 6.8 15.3 15.2ZM853 430.7a11.6 11.6 0 1 0 0 23.2 11.6 11.6 0 0 0 0-23.2Zm0 28-36.7 48.6h24.3l-7.8-11.6 20.2-25.2 20.2 25.2-7.8 11.6h24.3L853 458.6Zm155.1-22.1 28 1.8-9.5 24.3-19-.2.5-25.9Zm3.4 3.7-.3 18.7 13 .2 6.9-17.6-19.6-1.3Z"/>
      <path d="m1000.3 428.9 47.3 3.1-12.8 33 13 21.9-.4 14.6 6.4 8.3-24-.2 6.4-8.9V491l-11.5-20.4h-16.8l-7.6 14.4 3.5 11.6 2 14.4h-24.4l11-10.3-5.4-18.4 12.4-18.9 1-34.5Zm3.4 3.7-.8 32-12 18.3 5.4 19-6 5.6h11.5l-1.4-10.2-3.8-12.7 9.2-17.6h21l13 23-.1 11.8-3 4.4h9.9l-2.8-3.5.4-15-13.3-22.3 11.7-30.2-38.9-2.6Z"/>
    </g>
  </g>
  <defs>
    <clipPath id="a">
      <path fill="#fff" d="M0 0h1920v556H0z"/>
    </clipPath>
    <clipPath id="b">
      <use xlink:href="#i" transform="translate(0 25)"/>
    </clipPath>
    <clipPath id="c">
      <use xlink:href="#j" transform="rotate(-90 970 -845)"/>
    </clipPath>
    <clipPath id="d">
      <use xlink:href="#i" transform="translate(-1898 153)"/>
    </clipPath>
    <clipPath id="e">
      <use xlink:href="#j" transform="rotate(-90 85 168)"/>
    </clipPath>
    <clipPath id="f">
      <use xlink:href="#i" transform="translate(-3788 281)"/>
    </clipPath>
    <clipPath id="g">
      <use xlink:href="#i" transform="translate(-5610 419)"/>
    </clipPath>
    <clipPath id="h">
      <use xlink:href="#i" transform="translate(803 419)"/>
    </clipPath>
  </defs>
</svg>
