<svg width="1920" height="531" viewBox="0 0 1920 531" fill="#152F68" xmlns="http://www.w3.org/2000/svg">
<path fill-rule="evenodd" clip-rule="evenodd" d="M364.269 50.5198L379.886 54.2781L376.505 69.9164L375.72 70.2839C371.326 72.3385 365.286 72.5094 361.246 68.4949L360.569 67.8217L364.269 50.5198ZM366.94 54.7627L364.406 66.6166C366.865 68.4978 370.364 68.633 373.459 67.4443L375.743 56.8809L366.94 54.7627Z" />
<path fill-rule="evenodd" clip-rule="evenodd" d="M412.731 17.6307L424.86 31.8742L415.272 33.3651L386.512 53.8894L382.696 71.07L402.424 82.5326L412.869 83.5989L402.658 97.3949L397.586 90.7114L374.094 76.9745C372.04 77.6617 370.168 78.1082 368.006 77.9322C366.02 77.7705 363.917 77.0953 361.273 75.8459L353.715 93.781L353.759 104.484L334.752 96.4536L343.697 90.5805L354.095 66.3845L358.056 48.6781L351.123 34.4358L373.606 17.8105L399.168 18.1558L384.181 32.6012L375.521 28.5516C375.442 28.6113 375.362 28.6717 375.281 28.733C374.168 29.5719 372.823 30.5853 371.445 32.4908C369.766 34.8127 368.159 38.4191 367.911 44.2236L380.209 47.2259L409.563 26.1841L412.731 17.6307ZM374.738 21.3261L355.544 35.5201L361.738 48.2473L357.439 67.4667L346.498 92.9288L342.153 95.7812L350.237 99.1968L350.212 93.0806L359.505 71.03L361.185 71.8967C364.536 73.6248 366.6 74.3061 368.29 74.4438C369.945 74.5785 371.421 74.2106 373.703 73.4077L374.468 73.1388L399.953 88.0413L402.623 91.5591L406.4 86.4567L401.318 85.9379L378.724 72.8102L383.386 51.8201L413.915 30.0342L418.137 29.3776L413.938 24.4472L412.473 28.4045L380.941 51.0074L364.372 46.9623L364.379 45.5808C364.417 38.3099 366.33 33.5921 368.609 30.4399C370.352 28.0299 372.421 26.4814 373.502 25.6732C373.776 25.4683 373.986 25.3109 374.111 25.1992L374.972 24.431L383.484 28.4116L390.613 21.5406L374.738 21.3261Z" />
<path fill-rule="evenodd" clip-rule="evenodd" d="M548.266 15.7845L580.865 48.5173L581.049 61.8127L578.212 59.7211C574.2 56.7634 568.491 50.9002 562.497 44.4619C560.211 42.0062 557.877 39.4597 555.559 36.9302C551.731 32.7533 547.946 28.623 544.488 25.0251L543.587 24.0868L548.266 15.7845ZM549.047 21.5281L547.912 23.5409C551.149 26.938 554.664 30.7738 558.188 34.619C560.5 37.1413 562.816 39.6677 565.059 42.077C569.708 47.0709 574.021 51.5354 577.448 54.5726L577.385 49.9828L549.047 21.5281Z" />
<path fill-rule="evenodd" clip-rule="evenodd" d="M548.234 32.2947L558.01 43.7149L557.326 44.8052C555.237 48.1347 552.969 51.64 550.659 55.2114C547.883 59.5035 545.044 63.891 542.38 68.183C537.638 75.8224 533.764 82.6728 532.278 87.2143L534.132 105.215L506.643 86.0375L520.512 82.6204C520.636 82.4336 520.76 82.2471 520.883 82.0609C532.99 63.8027 543.301 48.2531 547.297 35.3269L548.234 32.2947ZM549.639 39.3183C544.956 52.0951 535.081 66.985 524.054 83.6136C523.721 84.1152 523.387 84.6185 523.052 85.1233L522.675 85.6922L514.982 87.5876L529.868 97.9725L528.723 86.8559L528.828 86.5151C530.384 81.4748 534.591 74.094 539.407 66.3371C542.037 62.1003 544.948 57.5974 547.773 53.2291C549.835 50.0402 551.85 46.9231 553.676 44.0336L549.639 39.3183Z" />
<path fill-rule="evenodd" clip-rule="evenodd" d="M724.855 16.8007L743.193 21.385L734.962 31.2549L730.091 60.7835C730.197 61.315 730.306 61.8606 730.417 62.4187C731.813 69.4032 733.6 78.3512 734.291 86.3911L741.17 94.524L722.81 98.0891L724.827 87.8812C723.96 78.9753 722.027 69.7573 720.468 64.0842L699.395 58.9685L686.779 64.7297L695.898 39.5496L701.172 50.5262L720.346 54.5323L726.472 28.6944L724.855 16.8007ZM729.019 21.4494L730.028 28.8682L722.966 58.6552L698.765 53.5989L696.352 48.5755L692.909 58.0828L699.043 55.2815L723.275 61.1641L723.556 62.1402C725.225 67.9276 727.408 78.0537 728.336 87.8029L728.36 88.0574L727.253 93.661L734.642 92.2261L730.894 87.7942L730.849 87.2332C730.213 79.2685 728.415 70.2663 726.981 63.0841C726.849 62.4244 726.72 61.7801 726.596 61.1533L726.534 60.8414L731.663 29.7451L736.932 23.4275L729.019 21.4494Z" />
<path fill-rule="evenodd" clip-rule="evenodd" d="M712.01 64.4258L717.677 72.6368L698.29 85.3548L691.426 77.6326L712.01 64.4258ZM696.762 78.3675L698.898 80.7702L712.761 71.6757L711.052 69.1992L696.762 78.3675Z" />
<path fill-rule="evenodd" clip-rule="evenodd" d="M690.757 80.9692L691.058 82.4275C691.92 86.6049 691.462 90.7638 691.04 94.6039C691.012 94.8523 690.985 95.0994 690.958 95.3452L690.619 98.4731L688.141 96.5347C683.324 92.7677 679.035 88.5534 675.594 84.4344L673.323 81.7157L690.757 80.9692ZM680.665 84.9045C682.81 87.2297 685.215 89.5505 687.817 91.7573C688.05 89.2898 688.167 86.9291 687.872 84.5959L680.665 84.9045Z" />
<path fill-rule="evenodd" clip-rule="evenodd" d="M1546.46 28.5194L1549.58 29.3665L1551.68 45.3961C1558.34 48.9524 1565.89 55.9166 1565.78 66.7992C1565.72 72.2776 1563.71 78.9563 1559.87 84.2938C1556.01 89.662 1550.18 93.8292 1542.5 93.8125L1527.55 93.7772L1527.45 83.4788L1529.24 83.5002C1535.35 83.5733 1541.5 82.3843 1546.06 79.7343C1550.54 77.1296 1553.46 73.1561 1553.47 67.4028C1553.48 61.6852 1550.6 57.7678 1546.77 55.2822C1542.87 52.7525 1538.07 51.7808 1534.67 52.0568L1533.2 52.1765L1531.94 47.1939L1546.46 28.5194ZM1535.88 48.5117L1535.75 47.9938L1546.65 33.9755L1548.45 47.6827L1549.28 48.0979C1555.6 51.244 1562.38 57.3799 1562.28 66.7634C1562.23 71.5218 1560.45 77.499 1557.03 82.2504C1553.64 86.971 1548.76 90.326 1542.5 90.3126L1531.02 90.2854L1530.98 86.9877C1536.94 86.8348 1543.02 85.5485 1547.82 82.7603C1553.18 79.647 1556.95 74.6232 1556.97 67.4098C1556.98 60.2862 1553.3 55.3502 1548.67 52.346C1544.63 49.7277 1539.81 48.522 1535.88 48.5117Z" />
<path fill-rule="evenodd" clip-rule="evenodd" d="M1511.05 63.9146L1523.68 89.1251H1496.4L1511.05 63.9146ZM1502.48 85.6251H1518.01L1510.82 71.273L1502.48 85.6251Z" />
<path fill-rule="evenodd" clip-rule="evenodd" d="M888.499 26.0046L904.083 29.8146L893.884 40.955L862.08 44.2548L862.118 84.4612L879.28 69.1986L908.143 67.3434L904.485 75.7571L909.026 85.0621L884.748 79.8483L856.333 101.462L839.189 65.6134L853.906 34.8285L884.871 33.1122L888.499 26.0046ZM890.357 30.0621L887.074 36.4955L856.169 38.2084L843.069 65.6131L857.636 96.0734L883.91 76.0884L902.724 80.1289L900.632 75.8417L902.648 71.2038L880.707 72.6141L861.535 89.6639L858.622 88.3578L858.577 41.0995L892.201 37.6109L897.51 31.8109L890.357 30.0621Z" />
<path fill-rule="evenodd" clip-rule="evenodd" d="M1226.03 27.8345L1236.29 52.5143L1209.27 48.1115L1226.03 27.8345ZM1215.86 45.6384L1230.64 48.0481L1225.03 34.5404L1215.86 45.6384Z" />
<path fill-rule="evenodd" clip-rule="evenodd" d="M1193.28 59.3071L1202.9 86.4414L1176.16 84.1769L1193.28 59.3071ZM1182.46 81.198L1197.79 82.496L1192.28 66.9428L1182.46 81.198Z" />
<path fill-rule="evenodd" clip-rule="evenodd" d="M1375.74 23.0342L1409.02 24.3909L1413.37 46.3751L1404.24 53.1416C1404.19 54.5042 1403.98 56.013 1403.61 57.3934C1403.39 58.2453 1403.1 59.0889 1402.73 59.8378C1402.37 60.5693 1401.88 61.3154 1401.2 61.8622L1399.6 63.166L1391.82 49.4659L1402.29 42.5105L1400.43 34.1972L1385.81 34.2438C1385.47 48.0863 1382.03 60.8966 1375.32 70.4285C1368.62 79.928 1358.72 86.095 1345.69 86.7377L1348.41 102.811L1328.67 102.937L1329.45 100.618C1335.86 81.3663 1335.7 68.8184 1335.1 63.8868L1328.82 54.7266L1355.04 56.2797L1344.89 65.4165L1345.01 76.4252C1351.5 76.2915 1358.67 73.953 1364.44 67.1643C1370.75 59.7372 1375.59 46.7486 1375.73 24.845L1375.74 23.0342ZM1379.21 26.6784C1378.81 47.9593 1373.96 61.3588 1367.11 69.4305C1360.01 77.7806 1350.97 80.1907 1343.21 79.9097L1341.55 79.8493L1341.37 63.8734L1346.47 59.2784L1335.75 58.6429L1338.46 62.5954L1338.51 63.0036C1339.21 68.0201 1339.5 80.4612 1333.52 99.4058L1344.27 99.3375L1341.56 83.3026L1343.62 83.2928C1356.48 83.2316 1366.03 77.5284 1372.46 68.4127C1378.92 59.2335 1382.26 46.5118 1382.34 32.4893L1382.35 30.7548L1403.23 30.6883L1406.23 44.0936L1396.48 50.5759L1400.1 56.9614C1400.15 56.8145 1400.19 56.6627 1400.23 56.5064C1400.59 55.1154 1400.77 53.5371 1400.76 52.2741L1400.74 51.3785L1409.51 44.8824L1406.12 27.7756L1379.21 26.6784Z" />
<path fill-rule="evenodd" clip-rule="evenodd" d="M1074.88 39.6917L1088.9 49.8063L1080.63 53.1114L1066.33 69.3016L1046.6 68.3676L1043.22 72.8054L1025.71 61.0952L1004.76 75.1719L1001.69 84.4077L990.397 69.4274L999.8 68.2192L1023.44 52.3462L1053.76 53.3397L1051.32 59.4732L1062.72 60.5245L1073.24 48.0335L1074.88 39.6917ZM1077.26 45.7254L1076.5 49.5957L1064.22 64.1777L1046.35 62.5289L1048.67 56.6749L1024.46 55.8813L1001.06 71.5854L996.818 72.1312L1000.47 76.9785L1001.82 72.9332L1025.7 56.8815L1042.43 68.0665L1044.93 64.7846L1064.82 65.7261L1078.56 50.1704L1081.69 48.9205L1077.26 45.7254Z" />
<path fill-rule="evenodd" clip-rule="evenodd" d="M1827.85 77.7502L1831.54 47.9088L1838.38 41.1525L1837.73 68.8251L1827.85 77.7502ZM1832.48 68.8552L1834.27 67.2376L1834.64 51.3037L1832.48 68.8552Z" />
<path d="M1879.96 105.01L1880.12 104.29C1880.1 104.286 1880.09 104.283 1880.08 104.281L1879.96 105.01Z" />
<path d="M1880.03 104.252L1880.04 104.252L1880.04 104.252"/>
<path fill-rule="evenodd" clip-rule="evenodd" d="M1879.89 104.25L1879.86 104.25C1879.86 104.25 1879.85 104.25 1879.85 104.25C1879.83 104.25 1879.81 104.25 1879.79 104.25C1879.78 104.25 1879.76 104.25 1879.75 104.25C1879.73 104.251 1879.71 104.252 1879.7 104.252L1879.69 104.253L1879.7 104.252C1879.71 104.252 1879.73 104.251 1879.76 104.251C1879.77 104.251 1879.79 104.251 1879.81 104.252C1879.81 104.252 1879.82 104.252 1879.82 104.252C1879.8 104.253 1879.77 104.255 1879.73 104.259L1879.73 104.262C1879.72 104.264 1879.7 104.266 1879.68 104.268C1879.65 104.273 1879.61 104.28 1879.57 104.289L1879.57 104.296C1879.55 104.301 1879.52 104.307 1879.5 104.315L1879.83 105.515L1879.84 105.565L1879.83 105.612L1879.39 104.348C1879.35 104.364 1879.31 104.378 1879.29 104.386C1879.27 104.394 1879.26 104.401 1879.25 104.406C1879.23 104.415 1879.21 104.422 1879.21 104.426C1879.2 104.43 1879.19 104.434 1879.18 104.439C1879.18 104.442 1879.16 104.453 1879.13 104.47L1879.82 105.611L1879.75 105.609L1879.64 105.487L1878.92 104.614C1878.9 104.632 1878.89 104.646 1878.88 104.655C1878.87 104.659 1878.87 104.663 1878.86 104.666L1878.86 104.665L1878.85 104.678L1878.85 104.675L1878.86 104.664L1878.86 104.667L1878.84 104.68C1878.84 104.685 1878.83 104.696 1878.81 104.711L1878.81 104.716M1879.73 104.266L1879.85 105.429L1879.67 104.276C1879.69 104.272 1879.71 104.269 1879.73 104.267C1879.73 104.266 1879.73 104.266 1879.73 104.266Z" />
<path d="M1879.6 105.603L1878.6 104.99C1878.58 105.028 1878.56 105.056 1878.56 105.065C1878.55 105.077 1878.55 105.087 1878.54 105.094C1878.54 105.101 1878.54 105.11 1878.53 105.121C1878.53 105.13 1878.52 105.152 1878.5 105.184L1879.53 105.6L1879.6 105.603Z" />
<path d="M1879.42 105.595L1878.48 105.262C1878.47 105.277 1878.47 105.292 1878.46 105.308L1879.41 105.595L1879.42 105.595Z" />
<path d="M1879.47 105.612L1879.47 105.612L1879.49 105.62L1879.47 105.612Z" />
<path d="M1879.91 105.198L1880.02 104.271C1880 104.268 1879.99 104.267 1879.98 104.265C1879.97 104.264 1879.95 104.262 1879.94 104.261L1879.91 105.198Z" />
<path d="M1879.83 105.619L1879.83 105.634L1879.82 105.619L1879.83 105.619Z" />
<path d="M1879.74 105.618L1879.8 105.685L1879.77 105.68L1879.68 105.616L1879.74 105.618Z" />
<path d="M1879.62 105.615L1879.56 105.614L1879.68 105.664L1879.71 105.668L1879.62 105.615Z" />
<path d="M1879.85 105.666L1879.84 105.632L1879.84 105.646L1879.85 105.67L1879.85 105.666Z" />
<path d="M1879.82 105.68L1879.76 105.618L1879.82 105.68Z" />
<path d="M1879.87 105.332L1879.82 104.257C1879.83 104.256 1879.84 104.255 1879.85 104.254C1879.86 104.254 1879.86 104.254 1879.86 104.254C1879.86 104.254 1879.86 104.254 1879.87 104.255L1879.87 105.332Z" />
<path d="M1879.24 105.583L1878.45 105.378C1878.44 105.396 1878.44 105.416 1878.43 105.436L1879.24 105.583Z" />
<path d="M1879.83 105.613L1879.83 105.612L1879.82 105.611" />
<path d="M1879.85 105.558L1879.83 105.515L1879.57 104.296" />
<path fill-rule="evenodd" clip-rule="evenodd" d="M1819.03 94.266L1825.05 44.5005L1844.95 23.3532L1844.82 65.322L1855.29 65.1923L1873.87 56.6444L1877.93 66.641L1887.59 73.3545L1899.33 69.0095L1896.36 34.5996L1874.79 33.3861L1872.01 14.9214L1905.75 25.2304L1910.74 76.5969L1887.49 86.0833L1867.89 73.8572L1866.58 74.1313L1870.3 86.1694L1876.47 86.2321L1881.27 102.601L1881.27 102.604C1881.46 103.248 1881.62 103.813 1881.72 104.286C1881.82 104.713 1881.91 105.194 1881.91 105.629L1881.91 105.635C1881.91 105.651 1881.91 105.692 1881.91 105.739C1881.91 105.764 1881.91 105.799 1881.9 105.839C1881.9 105.878 1881.9 105.937 1881.89 106.008L1881.88 106.036L1881.88 106.064C1881.86 106.154 1881.84 106.227 1881.82 106.279C1881.82 106.307 1881.81 106.333 1881.8 106.356C1881.79 106.378 1881.78 106.402 1881.78 106.426L1881.76 106.465L1881.75 106.504C1881.71 106.597 1881.65 106.716 1881.58 106.823L1881.56 106.869L1881.53 106.913C1881.5 106.951 1881.47 106.982 1881.46 107.001C1881.44 107.022 1881.43 107.039 1881.42 107.051C1881.4 107.073 1881.38 107.091 1881.37 107.102L1881.35 107.128L1881.29 107.19L1881.27 107.204C1881.27 107.209 1881.26 107.219 1881.24 107.23C1881.24 107.236 1881.23 107.246 1881.22 107.257C1881.21 107.264 1881.2 107.272 1881.19 107.282C1881.18 107.291 1881.16 107.306 1881.14 107.323L1881.04 107.403L1880.93 107.468C1880.89 107.493 1880.73 107.587 1880.55 107.652L1880.49 107.671L1880.44 107.686C1880.39 107.7 1880.34 107.711 1880.3 107.718C1880.27 107.725 1880.23 107.73 1880.21 107.734C1880.15 107.741 1880.11 107.745 1880.08 107.747C1880.02 107.751 1879.97 107.751 1879.95 107.75C1879.94 107.75 1879.94 107.75 1879.94 107.75C1879.93 107.75 1879.93 107.75 1879.93 107.75C1879.92 107.75 1879.91 107.75 1879.91 107.75L1879.88 107.75C1879.87 107.75 1879.84 107.751 1879.82 107.751C1879.81 107.751 1879.81 107.751 1879.81 107.751C1879.8 107.751 1879.78 107.751 1879.77 107.751C1879.74 107.751 1879.69 107.751 1879.64 107.747C1879.61 107.745 1879.57 107.741 1879.53 107.736C1879.49 107.731 1879.44 107.723 1879.38 107.711L1879.36 107.706L1879.33 107.7C1878.92 107.598 1878.52 107.39 1878.24 107.226C1877.91 107.043 1877.55 106.811 1877.16 106.557L1855.23 92.1504C1855.23 92.1504 1855.23 92.1504 1855.23 92.1504C1854.31 91.55 1853.45 90.9523 1852.95 90.4264L1852.94 90.4162L1852.93 90.4057C1852.73 90.1851 1852.54 89.912 1852.41 89.6029C1852.39 89.5732 1852.37 89.5259 1852.35 89.4673C1852.33 89.4328 1852.31 89.3851 1852.3 89.3274C1852.28 89.2719 1852.26 89.1882 1852.24 89.0843L1852.23 89.0297L1852.23 88.9747C1852.22 88.8871 1852.22 88.7986 1852.22 88.7404C1852.22 88.7359 1852.22 88.7312 1852.22 88.7263C1852.22 88.7069 1852.22 88.6715 1852.22 88.6277C1852.22 88.605 1852.22 88.5743 1852.23 88.5379C1852.23 88.503 1852.24 88.4507 1852.25 88.3877L1852.26 88.3228L1852.28 88.259C1852.31 88.135 1852.36 88.0351 1852.39 87.9643C1852.4 87.9428 1852.41 87.9225 1852.42 87.9034C1852.43 87.8807 1852.44 87.8574 1852.46 87.8338L1852.48 87.779L1852.52 87.7264C1852.55 87.6809 1852.57 87.6442 1852.59 87.6183C1852.61 87.5915 1852.63 87.5692 1852.64 87.5521C1852.67 87.5188 1852.69 87.4926 1852.71 87.4763C1852.72 87.458 1852.74 87.4421 1852.75 87.4298C1852.83 87.347 1852.96 87.2128 1853.12 87.0988L1853.15 87.0775L1853.18 87.0575C1853.23 87.0291 1853.26 87.0079 1853.29 86.9953C1853.31 86.9819 1853.33 86.9711 1853.35 86.9638C1853.37 86.9497 1853.4 86.9384 1853.41 86.9341L1853.41 86.9327C1853.91 86.6834 1854.52 86.5883 1855.03 86.5351C1855.59 86.4753 1856.28 86.4459 1857.08 86.4377L1857.08 86.4377L1861.12 86.3984L1857.58 75.6609L1842.18 75.7166L1819.03 94.266ZM1853.42 86.9283C1853.42 86.9275 1853.42 86.9271 1853.42 86.9283V86.9283ZM1879.88 107.748C1879.89 107.747 1879.88 107.747 1879.88 107.748C1879.88 107.748 1879.88 107.748 1879.88 107.748ZM1881.87 105.692C1881.87 105.69 1881.87 105.691 1881.87 105.694L1881.87 105.692ZM1823.53 86.1716L1840.95 72.221L1860.11 72.1517L1865.94 89.8517L1858.22 89.9268L1877.65 102.689L1873.84 89.7056L1867.7 89.6433L1862.11 71.4938L1868.55 70.143L1887.82 82.1668L1907.01 74.3408L1902.5 27.8948L1876.3 19.8913L1877.83 30.0515L1899.58 31.2756L1903.05 71.3657L1887.1 77.2706L1875.07 68.9217L1872 61.3557L1856.08 68.6828L1841.31 68.8657L1841.42 32.2094L1828.39 46.0621L1823.53 86.1716ZM1878.41 105.593C1878.41 105.609 1878.41 105.624 1878.41 105.636C1878.41 105.667 1878.41 105.692 1878.41 105.707C1878.41 105.722 1878.41 105.733 1878.41 105.738C1878.41 105.743 1878.41 105.746 1878.41 105.744L1878.41 105.731L1878.41 105.699C1878.41 105.686 1878.41 105.667 1878.41 105.645C1878.41 105.623 1878.41 105.592 1878.41 105.554L1878.42 105.555C1878.42 105.563 1878.42 105.57 1878.42 105.577C1878.41 105.582 1878.41 105.588 1878.41 105.593ZM1879 105.578L1878.42 105.555C1878.42 105.536 1878.42 105.516 1878.43 105.492L1879 105.578ZM1878.41 105.593L1879.2 105.608L1878.41 105.593ZM1879.2 105.608L1879.52 105.655L1879.79 105.726L1879.81 105.731L1879.81 105.733L1879.75 106L1879.81 105.738L1879.84 105.759L1879.81 106L1879.85 105.765L1879.87 105.786L1879.88 106L1879.88 105.793L1879.89 105.795L1879.91 106L1879.9 105.81L1879.94 106L1879.91 105.839L1879.97 106L1879.92 105.837L1880.03 105.969L1879.97 105.859L1880.06 105.938L1879.95 105.817L1880.09 105.906L1879.92 105.784L1879.91 105.768L1880.13 105.844L1879.91 105.758L1880.13 105.813L1879.9 105.744L1879.89 105.711L1880.16 105.75L1879.89 105.702L1879.89 105.654L1879.89 105.62L1880.16 105.625L1879.89 105.614L1879.9 105.446L1879.92 105.318L1880.17 104.3C1880.2 104.309 1880.22 104.317 1880.22 104.317C1880.22 104.318 1880.22 104.314 1880.19 104.304C1880.15 104.284 1880.08 104.247 1879.97 104.185C1879.75 104.061 1879.47 103.881 1879.09 103.631C1879.09 103.631 1879.09 103.631 1879.09 103.631L1878.68 103.363L1879.59 103.094M1878.7 104.844C1878.69 104.86 1878.68 104.879 1878.66 104.9L1879.54 105.515L1878.7 104.844ZM1878.8 104.722C1878.8 104.725 1878.8 104.727 1878.8 104.727L1878.8 104.726L1878.8 104.722ZM1878.83 104.699C1878.83 104.694 1878.84 104.687 1878.85 104.679C1878.85 104.675 1878.86 104.671 1878.86 104.666L1879.64 105.487L1879.74 105.608M1855.5 87.9713C1855.5 87.9704 1855.5 87.9708 1855.5 87.9713V87.9713Z" />
<path fill-rule="evenodd" clip-rule="evenodd" d="M1687.67 65.0127L1677.32 62.0336L1683.75 34.6468L1687.67 65.0127ZM1682.75 54.2283L1681.49 59.5915L1683.52 60.1749L1682.75 54.2283Z" />
<path fill-rule="evenodd" clip-rule="evenodd" d="M1720.8 92.7102L1701.9 105.415L1701.58 93.2632L1688.98 72.6249L1669.45 67.9152L1680.96 20.6183C1680.96 20.6185 1680.96 20.6181 1680.96 20.6183C1681.18 19.706 1681.53 18.8811 1682.05 18.247C1682.57 17.617 1683.37 17.0396 1684.41 17.0549C1685.47 17.0704 1686.26 17.6916 1686.74 18.3748C1687.22 19.0505 1687.5 19.9078 1687.64 20.8351L1693.77 61.7903L1709.65 87.3915L1720.8 92.7102ZM1713.76 93.2274L1707.22 90.1086L1690.42 63.0223L1684.25 21.8707L1673.68 65.3349L1691.21 69.5627L1705.05 92.2369L1705.23 98.9602L1713.76 93.2274Z" />
<path fill-rule="evenodd" clip-rule="evenodd" d="M1709.39 66.0481L1701.03 67.8466L1694.82 43.4951L1703.1 41.1743L1709.39 66.0481ZM1700.59 45.5133L1699.06 45.9426L1703.59 63.716L1705.11 63.3895L1700.59 45.5133Z" />
<path fill-rule="evenodd" clip-rule="evenodd" d="M50 25.7095C45.2654 25.7095 41.4272 29.5328 41.4272 34.249C41.4272 38.9652 45.2654 42.7884 50 42.7884C54.7346 42.7884 58.5728 38.9652 58.5728 34.249C58.5728 29.5328 54.7346 25.7095 50 25.7095ZM45.1013 34.249C45.1013 31.554 47.2945 29.3693 50 29.3693C52.7055 29.3693 54.8987 31.554 54.8987 34.249C54.8987 36.9439 52.7055 39.1286 50 39.1286C47.2945 39.1286 45.1013 36.9439 45.1013 34.249Z" />
<path fill-rule="evenodd" clip-rule="evenodd" d="M65.3086 34.249C65.3086 41.4903 60.2414 47.5527 53.4465 49.1099L94 103H55.484L65.6576 87.8482L50 68.3715L34.3424 87.8482L44.516 103H6L46.5536 49.1099C39.7586 47.5527 34.6914 41.4903 34.6914 34.249C34.6914 25.8272 41.5453 19 50 19C58.4547 19 65.3086 25.8272 65.3086 34.249ZM50 22.6598C43.5744 22.6598 38.3655 27.8484 38.3655 34.249C38.3655 40.6495 43.5744 45.8382 50 45.8382C56.4256 45.8382 61.6345 40.6495 61.6345 34.249C61.6345 27.8484 56.4256 22.6598 50 22.6598ZM50 50.6318L13.3457 99.3402H37.6386L29.7918 87.6538L50 62.5165L70.2082 87.6538L62.3614 99.3402H86.6543L50 50.6318Z" />
<path fill-rule="evenodd" clip-rule="evenodd" d="M205.096 28.6045L233.063 30.4076L223.564 54.7352L204.625 54.4758L205.096 28.6045ZM208.529 32.3331L208.188 51.0243L221.186 51.2023L228.062 33.5925L208.529 32.3331Z" />
<path fill-rule="evenodd" clip-rule="evenodd" d="M197.332 20.8513L244.549 24.006L231.813 57.0867L244.731 78.8529L244.359 93.5467L250.78 101.846L226.89 101.625L233.192 92.718L233.277 82.9561L221.669 62.5608L204.93 62.533L197.32 76.9642L200.81 88.5984L202.752 103.035L178.407 102.992L189.306 92.737L184.035 74.2729L196.389 55.4247L197.332 20.8513ZM200.731 24.5862L199.861 56.5128L187.84 74.8521L193.257 93.8255L187.218 99.5077L198.748 99.5278L197.378 89.3392L193.556 76.5983L202.82 59.0295L223.706 59.0642L236.785 82.044L236.683 93.8446L233.61 98.1872L243.595 98.2793L240.829 94.7033L241.207 79.7722L227.937 57.4133L239.576 27.1816L200.731 24.5862Z" />
<path fill-rule="evenodd" clip-rule="evenodd" d="M946.101 162.235L946.539 162.238C948.29 162.252 950.05 162.736 951.701 163.268C952.264 163.45 952.81 163.635 953.351 163.819C954.477 164.201 955.579 164.576 956.763 164.89C960.118 165.782 963.572 166.023 967.432 163.769L968.554 163.114L995.931 188.522L1005.05 190.079L991.054 203.5L989.195 194.71L969.801 177.294L966.113 186.119L968.717 203.585L953.833 207.964L958.066 196.275L956.939 185.954L960.004 174.966C955.293 175.113 952.794 174.358 950.962 173.38C950.336 173.045 949.881 172.761 949.508 172.528C948.689 172.015 948.264 171.749 947.276 171.741L938.088 177.051L941.811 179.463L941.914 196.283L925.801 212.618L922.225 220.59L911.552 207.114L919.99 204.779L932.902 192.789L932.507 184.826L918.953 176.48L946.101 162.235ZM946.926 165.754L926.023 176.723L935.912 182.812L936.479 194.245L921.746 207.924L917.573 209.079L921.391 213.899L922.866 210.61L938.405 194.856L938.323 181.373L931.388 176.882L946.278 168.275L946.7 168.254C949.172 168.132 950.639 169.065 951.792 169.798C952.081 169.982 952.35 170.153 952.61 170.292C953.956 171.011 956.253 171.831 962.202 171.331L964.711 171.12L960.492 186.245L961.634 196.702L959.478 202.655L964.806 201.087L962.507 185.67L968.472 171.397L992.383 192.869L993.176 196.618L997.617 192.36L994.315 191.797L968.04 167.412C963.54 169.62 959.431 169.221 955.864 168.273C954.565 167.928 953.269 167.488 952.087 167.087C951.576 166.913 951.086 166.747 950.627 166.599C949.205 166.141 948.002 165.827 946.926 165.754Z" />
<path fill-rule="evenodd" clip-rule="evenodd" d="M110.542 186.798L117.428 156.798L114.666 144.833L132.51 147.993L127.315 157.148L122.899 180.86L154.613 194.774L164.695 188.966L166.993 210.822L154.853 207.112L126.853 221.991L120.059 232.786L111.982 209.527L124.522 212.295L144.347 201.499L110.542 186.798ZM114.603 184.748L152.313 201.147L125.046 215.995L117.343 214.295L120.976 224.758L124.387 219.337L154.49 203.341L162.959 205.929L161.777 194.686L154.827 198.69L118.95 182.95L123.982 155.93L127.021 150.575L119.266 149.202L121.019 156.796L114.603 184.748Z" />
<path fill-rule="evenodd" clip-rule="evenodd" d="M482.887 158.247L486.346 175.148L485.791 213.478L482.981 211.163C468.583 199.303 454.72 187.756 443.237 176.929L441.25 175.056L482.887 158.247ZM447.636 176.252C457.858 185.74 469.841 195.783 482.397 206.145L482.841 175.477L480.301 163.065L447.636 176.252Z" />
<path fill-rule="evenodd" clip-rule="evenodd" d="M487.565 147.957L493.973 172.385L493.105 217.053L498.758 224.528L484.196 231.83L481.101 220.69C472.374 212.498 464.587 205.648 457.798 199.675C456.389 198.435 455.022 197.233 453.699 196.065C446.342 189.567 440.284 184.071 435.741 178.939L426.831 181.304L422.425 172.636L424.355 171.995C446.107 164.77 467.636 157.343 485.661 148.854L487.565 147.957ZM427.388 174.675L428.669 177.195L436.956 174.996L437.671 175.828C442.105 180.987 448.235 186.569 456.016 193.442C457.332 194.604 458.693 195.801 460.099 197.038C466.982 203.093 474.937 210.091 483.855 218.475L484.212 218.81L486.43 226.795L493.43 223.284L489.582 218.197L490.464 172.803L485.246 152.909C467.956 160.877 447.726 167.903 427.388 174.675Z" />
<path fill-rule="evenodd" clip-rule="evenodd" d="M767.687 164.047L792.525 173.658L778.346 181.107L763.745 200.97L819.148 205.796L816.726 178.421L837.719 185.059L829.91 198.759L832.912 218.593L744.353 209.246L769.465 176.633L767.687 164.047ZM771.987 169.464L773.137 177.601L750.945 206.423L828.773 214.637L826.268 198.081L832.533 187.09L820.675 183.341L823.002 209.645L757.236 203.916L776.004 178.384L784.078 174.142L771.987 169.464Z" />
<path fill-rule="evenodd" clip-rule="evenodd" d="M266.342 157.076L287.334 161.608L279.045 169.572L274.644 209.647L277.089 208.992L323.529 204.277L333.275 196.996L337.754 219.806L323.017 215.156L277.993 220.313L261.005 225.708L267.83 168.201L266.342 157.076ZM270.471 161.549L271.358 168.174L265.12 220.729L277.257 216.874L323.359 211.594L333.184 214.694L330.913 203.129L324.847 207.661L277.723 212.446L270.606 214.353L275.705 167.928L280.166 163.642L270.471 161.549Z" />
<path fill-rule="evenodd" clip-rule="evenodd" d="M303.308 170.118L326.168 183.419L301.147 191.939L303.308 170.118ZM306.255 175.882L305.166 186.873L317.769 182.581L306.255 175.882Z" />
<path fill-rule="evenodd" clip-rule="evenodd" d="M628.203 156.026C628.574 156.498 628.884 157.095 629.167 157.697C630.895 161.369 633.383 167.124 633.531 188.871C634.41 191.245 635.552 193.982 636.71 196.758C637.321 198.223 637.937 199.699 638.521 201.138C639.377 203.247 640.161 205.27 640.73 206.999C641.274 208.654 641.704 210.277 641.682 211.479L641.651 213.213L616.767 212.995L613.059 196.824L618.977 159.69L622.619 156.567C623.173 156.093 623.715 155.659 624.233 155.355C624.736 155.06 625.463 154.738 626.315 154.857C627.218 154.984 627.821 155.538 628.203 156.026ZM625.696 158.58C625.492 158.729 625.232 158.937 624.897 159.224L622.231 161.51L616.622 196.704L619.561 209.52L637.88 209.68C637.761 209.225 637.603 208.696 637.405 208.092C636.875 206.48 636.127 204.547 635.278 202.454C634.725 201.091 634.126 199.656 633.523 198.211C632.3 195.277 631.058 192.299 630.139 189.791L630.034 189.504L630.033 189.199C629.908 167.495 627.445 162.258 626 159.187C625.88 158.933 625.78 158.734 625.696 158.58Z" />
<path fill-rule="evenodd" clip-rule="evenodd" d="M628.132 144.146L638.433 163.853L640.617 185.357L648.922 206.852L649.455 220.679L632.359 232.049L609.528 216.5L606.346 195.389L613.48 155.441L628.132 144.146ZM616.688 157.388L609.892 195.437L612.761 214.468L632.382 227.83L645.882 218.852L645.447 207.57L637.183 186.179L635.019 164.877L626.963 149.466L616.688 157.388Z" />
<path fill-rule="evenodd" clip-rule="evenodd" d="M-70.1457 205.75L-66.4649 175.909L-59.6175 169.153L-60.2681 196.825L-70.1457 205.75ZM-65.522 196.855L-63.7318 195.238L-63.3571 179.304L-65.522 196.855Z" />
<path d="M-18.0362 233.01L-17.8806 232.29C-17.8959 232.286 -17.9106 232.283 -17.9247 232.281L-18.0362 233.01Z" />
<path d="M-17.9744 232.252L-17.9646 232.252L-17.9621 232.252" />
<path fill-rule="evenodd" clip-rule="evenodd" d="M-18.1149 232.25L-18.1353 232.25C-18.141 232.25 -18.1464 232.25 -18.1512 232.25C-18.1725 232.25 -18.1911 232.25 -18.2063 232.25C-18.2233 232.25 -18.2381 232.25 -18.25 232.25C-18.2729 232.251 -18.2915 232.252 -18.3006 232.252L-18.3107 232.253L-18.2978 232.252C-18.2874 232.252 -18.2672 232.251 -18.2412 232.251C-18.2278 232.251 -18.2112 232.251 -18.192 232.252C-18.1879 232.252 -18.1836 232.252 -18.1792 232.252C-18.2004 232.253 -18.2317 232.255 -18.2693 232.259L-18.269 232.262C-18.2833 232.264 -18.2989 232.266 -18.3155 232.268C-18.3465 232.273 -18.3854 232.28 -18.43 232.289L-18.4286 232.296C-18.4512 232.301 -18.4758 232.307 -18.502 232.315L-18.1666 233.515L-18.156 233.565L-18.1662 233.612L-18.6086 232.348C-18.6541 232.364 -18.689 232.378 -18.7066 232.386C-18.7266 232.394 -18.7423 232.401 -18.7523 232.406C-18.7719 232.415 -18.786 232.422 -18.7932 232.426C-18.8012 232.43 -18.8092 232.434 -18.8179 232.439C-18.8229 232.442 -18.8437 232.453 -18.8722 232.47L-18.1842 233.611L-18.2479 233.609L-18.3632 233.487L-19.0768 232.614C-19.0981 232.632 -19.1149 232.646 -19.125 232.655C-19.1295 232.659 -19.1337 232.663 -19.1375 232.666L-19.1388 232.665L-19.152 232.678L-19.1491 232.675L-19.1377 232.664L-19.1414 232.667L-19.155 232.68C-19.1599 232.685 -19.1716 232.696 -19.1857 232.711L-19.1906 232.716M-18.2686 232.266L-18.1514 233.429L-18.3306 232.276C-18.3083 232.272 -18.288 232.269 -18.2703 232.267C-18.2697 232.266 -18.2692 232.266 -18.2686 232.266Z" />
<path d="M-18.4005 233.603L-19.3972 232.99C-19.4202 233.028 -19.4356 233.056 -19.4402 233.065C-19.4469 233.077 -19.452 233.087 -19.4555 233.094C-19.4591 233.101 -19.4635 233.11 -19.4686 233.121C-19.4725 233.13 -19.4829 233.152 -19.4957 233.184L-18.4747 233.6L-18.4005 233.603Z" />
<path d="M-18.5795 233.595L-19.5242 233.262C-19.5284 233.277 -19.5327 233.292 -19.5369 233.308L-18.5924 233.595L-18.5795 233.595Z" />
<path d="M-18.5344 233.612L-18.5309 233.612L-18.5105 233.62L-18.5344 233.612Z" />
<path d="M-18.0929 233.198L-17.9837 232.271C-17.9978 232.268 -18.011 232.267 -18.0232 232.265C-18.0344 232.264 -18.0452 232.262 -18.0555 232.261L-18.0929 233.198Z" />
<path d="M-18.1677 233.619L-18.1708 233.634L-18.1797 233.619L-18.1677 233.619Z" />
<path d="M-18.2561 233.618L-18.2009 233.685L-18.2282 233.68L-18.3187 233.616L-18.2561 233.618Z" />
<path d="M-18.3799 233.615L-18.4389 233.614L-18.317 233.664L-18.2941 233.668L-18.3799 233.615Z" />
<path d="M-18.1481 233.666L-18.1599 233.632L-18.1634 233.646L-18.1486 233.67L-18.1481 233.666Z" />
<path d="M-18.1808 233.68L-18.2393 233.618L-18.1808 233.68Z" />
<path d="M-18.1273 233.332L-18.1814 232.257C-18.1677 232.256 -18.1556 232.255 -18.1452 232.254C-18.1443 232.254 -18.1435 232.254 -18.1427 232.254C-18.1389 232.254 -18.135 232.254 -18.1311 232.255L-18.1273 233.332Z" />
<path d="M-18.7625 233.583L-19.5536 233.378C-19.5576 233.396 -19.5616 233.416 -19.5653 233.436L-18.7625 233.583Z" />
<path d="M-18.1664 233.613L-18.1662 233.612L-18.1842 233.611" />
<path d="M-18.1546 233.558L-18.1666 233.515L-18.4286 232.296" />
<path fill-rule="evenodd" clip-rule="evenodd" d="M-78.9712 222.266L-72.9495 172.501L-53.0484 151.353L-53.1818 193.322L-42.7061 193.192L-24.1296 184.644L-20.0741 194.641L-10.4077 201.355L1.32922 197.009L-1.64412 162.6L-23.206 161.386L-25.9878 142.921L7.75388 153.23L12.7428 204.597L-10.5109 214.083L-30.1106 201.857L-31.418 202.131L-27.7044 214.169L-21.5295 214.232L-16.727 230.601L-16.7262 230.604C-16.5382 231.248 -16.3838 231.813 -16.2766 232.286C-16.1795 232.713 -16.0897 233.194 -16.0936 233.629L-16.0934 233.635C-16.0929 233.651 -16.0917 233.692 -16.0921 233.739C-16.0924 233.764 -16.0931 233.799 -16.0955 233.839C-16.0977 233.878 -16.1023 233.937 -16.1128 234.008L-16.117 234.036L-16.1221 234.064C-16.1385 234.154 -16.1591 234.227 -16.1754 234.279C-16.1843 234.307 -16.1932 234.333 -16.2016 234.356C-16.2084 234.378 -16.2161 234.402 -16.2246 234.426L-16.2385 234.465L-16.2542 234.504C-16.292 234.597 -16.3498 234.716 -16.4152 234.823L-16.4435 234.869L-16.4746 234.913C-16.5018 234.951 -16.5256 234.982 -16.5411 235.001C-16.5574 235.022 -16.5717 235.039 -16.5822 235.051C-16.6016 235.073 -16.618 235.091 -16.6283 235.102L-16.649 235.128L-16.7148 235.19L-16.729 235.204C-16.7338 235.209 -16.7435 235.219 -16.7555 235.23C-16.7615 235.236 -16.7718 235.246 -16.7847 235.257C-16.7913 235.264 -16.8005 235.272 -16.8116 235.282C-16.822 235.291 -16.839 235.306 -16.8606 235.323L-16.9577 235.403L-17.0652 235.468C-17.1082 235.493 -17.2664 235.587 -17.4538 235.652L-17.5066 235.671L-17.5604 235.686C-17.6133 235.7 -17.6597 235.711 -17.6967 235.718C-17.7341 235.725 -17.7671 235.73 -17.7944 235.734C-17.8476 235.741 -17.8919 235.745 -17.9224 235.747C-17.9815 235.751 -18.0286 235.751 -18.0516 235.75C-18.0552 235.75 -18.0586 235.75 -18.0619 235.75C-18.0657 235.75 -18.0691 235.75 -18.072 235.75C-18.0805 235.75 -18.0882 235.75 -18.0947 235.75L-18.1203 235.75C-18.1314 235.75 -18.1566 235.751 -18.185 235.751C-18.1869 235.751 -18.1889 235.751 -18.1911 235.751C-18.2028 235.751 -18.2161 235.751 -18.2306 235.751C-18.2609 235.751 -18.308 235.751 -18.365 235.747C-18.3942 235.745 -18.43 235.741 -18.4708 235.736C-18.5111 235.731 -18.5616 235.723 -18.6193 235.711L-18.6425 235.706L-18.6655 235.7C-19.0824 235.598 -19.4762 235.39 -19.7648 235.226C-20.0855 235.043 -20.4489 234.811 -20.8355 234.557L-42.773 220.15C-42.773 220.15 -42.773 220.15 -42.773 220.15C-43.6874 219.55 -44.5464 218.952 -45.0478 218.426L-45.0576 218.416L-45.0672 218.406C-45.2708 218.185 -45.4627 217.912 -45.594 217.603C-45.6088 217.573 -45.6313 217.526 -45.6547 217.467C-45.6685 217.433 -45.6863 217.385 -45.7039 217.327C-45.7209 217.272 -45.7437 217.188 -45.76 217.084L-45.7686 217.03L-45.7737 216.975C-45.7818 216.887 -45.7824 216.799 -45.7815 216.74C-45.7816 216.736 -45.7816 216.731 -45.7816 216.726C-45.7816 216.707 -45.7813 216.672 -45.779 216.628C-45.7778 216.605 -45.7757 216.574 -45.7719 216.538C-45.7682 216.503 -45.7617 216.451 -45.7496 216.388L-45.7371 216.323L-45.7197 216.259C-45.686 216.135 -45.6441 216.035 -45.6103 215.964C-45.6 215.943 -45.5898 215.923 -45.5797 215.903C-45.5689 215.881 -45.5572 215.857 -45.5446 215.834L-45.5154 215.779L-45.4824 215.726C-45.4539 215.681 -45.428 215.644 -45.4089 215.618C-45.3892 215.592 -45.3716 215.569 -45.3577 215.552C-45.3306 215.519 -45.3074 215.493 -45.2925 215.476C-45.2758 215.458 -45.2607 215.442 -45.2487 215.43C-45.1741 215.347 -45.0426 215.213 -44.8801 215.099L-44.8498 215.077L-44.8186 215.058C-44.7741 215.029 -44.7367 215.008 -44.714 214.995C-44.6896 214.982 -44.6688 214.971 -44.6543 214.964C-44.6266 214.95 -44.6027 214.938 -44.5937 214.934L-44.5908 214.933C-44.0887 214.683 -43.4762 214.588 -42.9749 214.535C-42.4125 214.475 -41.7233 214.446 -40.9242 214.438L-40.9232 214.438L-36.8806 214.398L-40.4204 203.661L-55.8201 203.717L-78.9712 222.266ZM-44.5815 214.928C-44.5797 214.927 -44.5789 214.927 -44.5815 214.928V214.928ZM-18.1189 235.748C-18.114 235.747 -18.1161 235.747 -18.1175 235.748C-18.1177 235.748 -18.1187 235.748 -18.1189 235.748ZM-16.1302 233.692C-16.1304 233.69 -16.1303 233.691 -16.13 233.694L-16.1302 233.692ZM-74.4662 214.172L-57.0548 200.221L-37.892 200.152L-32.0568 217.852L-39.7829 217.927L-20.3487 230.689L-24.1579 217.706L-30.2955 217.643L-35.8944 199.494L-29.4519 198.143L-10.1765 210.167L9.00724 202.341L4.49619 155.895L-21.6996 147.891L-20.1689 158.052L1.5817 159.276L5.04586 199.366L-10.9047 205.271L-22.9259 196.922L-25.9953 189.356L-41.9189 196.683L-56.6931 196.866L-56.5765 160.209L-69.6129 174.062L-74.4662 214.172ZM-19.5865 233.593C-19.5878 233.609 -19.5888 233.624 -19.5895 233.636C-19.5914 233.667 -19.5918 233.692 -19.592 233.707C-19.5921 233.722 -19.5919 233.733 -19.5919 233.738C-19.5918 233.743 -19.5917 233.746 -19.5917 233.744L-19.5922 233.731L-19.5931 233.699C-19.5935 233.686 -19.5938 233.667 -19.5939 233.645C-19.594 233.623 -19.5938 233.592 -19.5923 233.554L-19.5827 233.555C-19.5836 233.563 -19.5843 233.57 -19.585 233.577C-19.5855 233.582 -19.586 233.588 -19.5865 233.593ZM-18.9964 233.578L-19.5827 233.555C-19.5807 233.536 -19.5781 233.516 -19.5746 233.492L-18.9964 233.578ZM-19.5865 233.593L-18.8014 233.608L-19.5865 233.593ZM-18.8014 233.608L-18.484 233.655L-18.209 233.726L-18.1938 233.731L-18.1922 233.733L-18.25 234L-18.1858 233.738L-18.1591 233.759L-18.1875 234L-18.1516 233.765L-18.1257 233.786L-18.125 234L-18.1167 233.793L-18.1144 233.795L-18.0937 234L-18.1033 233.81L-18.0625 234L-18.0875 233.839L-18.0312 234L-18.0769 233.837L-17.9687 233.969L-18.0347 233.859L-17.9375 233.938L-18.0509 233.817L-17.9062 233.906L-18.0801 233.784L-18.0897 233.768L-17.875 233.844L-18.0859 233.758L-17.875 233.813L-18.1024 233.744L-18.1074 233.711L-17.8437 233.75L-18.1087 233.702L-18.1111 233.654L-18.1098 233.62L-17.8437 233.625L-18.1096 233.614L-18.1029 233.446L-18.0833 233.318L-17.8344 232.3C-17.7963 232.309 -17.7754 232.317 -17.7753 232.317C-17.7753 232.318 -17.785 232.314 -17.8056 232.304C-17.8511 232.284 -17.9239 232.247 -18.0312 232.185C-18.2493 232.061 -18.5344 231.881 -18.9144 231.631C-18.9144 231.631 -18.9143 231.631 -18.9144 231.631L-19.3229 231.363L-18.4062 231.094M-19.2969 232.844C-19.3089 232.86 -19.3228 232.879 -19.3378 232.9L-18.4622 233.515L-19.2969 232.844ZM-19.1964 232.722C-19.1993 232.725 -19.2013 232.727 -19.2016 232.727L-19.2005 232.726L-19.1964 232.722ZM-19.1728 232.699C-19.1675 232.694 -19.16 232.687 -19.1509 232.679C-19.1473 232.675 -19.1428 232.671 -19.1375 232.666L-18.3632 233.487L-18.2638 233.608M-42.4992 215.971C-42.4996 215.97 -42.4994 215.971 -42.4992 215.971V215.971Z" />
<path fill-rule="evenodd" clip-rule="evenodd" d="M1306.36 146.598L1326.01 154.42L1318.26 161.813L1304.68 204.435L1305.31 213.579L1263.45 229.038L1248.1 204.832L1291.39 204.816L1308.93 156.683L1306.36 146.598ZM1311.45 152.389L1312.58 156.868L1293.84 208.315L1254.46 208.33L1264.89 224.775L1301.64 211.204L1301.14 204.009L1315.2 159.898L1319.65 155.653L1311.45 152.389Z" />
<path fill-rule="evenodd" clip-rule="evenodd" d="M1770.96 170.183L1795.66 208.898L1768.61 213.975L1770.96 170.183ZM1773.87 181.254L1772.35 209.713L1789.92 206.414L1773.87 181.254Z" />
<path fill-rule="evenodd" clip-rule="evenodd" d="M1764.27 144.831L1813.35 216.289L1759.12 226.414L1764.27 144.831ZM1767.12 155.169L1762.9 222.148L1807.42 213.836L1767.12 155.169Z" />
<path fill-rule="evenodd" clip-rule="evenodd" d="M1604.57 142.092L1606.52 156.018L1609.83 159.562L1607.65 166.163L1616 188.552L1613.71 193.244L1616.56 205.806L1619.6 205.746L1617.78 180.275L1634.08 184.314L1627.31 193.334L1631.79 233.481L1628.81 234.913L1607.46 213.573L1603.91 194.769L1599.87 189.699L1601.89 184.335L1599.08 168.361L1595.27 163.515L1596.45 156.618L1590.1 146.041L1604.57 142.092ZM1595.48 148.201L1600.12 155.931L1598.98 162.574L1602.37 166.889L1605.5 184.67L1603.85 189.072L1607.19 193.268L1610.7 211.861L1627.76 228.909L1623.67 192.343L1628.11 186.44L1621.62 184.831L1623.36 209.172L1613.77 209.362L1610.02 192.815L1612.2 188.366L1603.94 166.234L1605.85 160.433L1603.21 157.597L1601.66 146.515L1595.48 148.201Z" />
<path fill-rule="evenodd" clip-rule="evenodd" d="M1971.55 141.003L1989.39 155.033L1979.92 158.303L1952.95 182.402L1931.32 224.021L1932.07 237.156L1913.54 224.625L1922.13 218.712L1942.07 177.403L1971.37 151.705L1971.55 141.003ZM1974.93 148.115L1974.84 153.314L1944.91 179.565L1924.88 221.068L1919.75 224.598L1928.17 230.293L1927.77 223.261L1950.14 180.219L1978.12 155.225L1982.19 153.819L1974.93 148.115Z" />
<path fill-rule="evenodd" clip-rule="evenodd" d="M1460.08 143.279L1469.38 151.088L1469.33 161.509L1464.97 162.027C1465.01 163.165 1465.04 164.289 1465.08 165.399C1465.39 175.217 1465.68 183.982 1468.31 192.679C1471.35 202.711 1477.56 212.734 1490.92 223.843L1495.47 227.626L1489.6 226.927C1475.76 225.283 1460.53 224.714 1445.76 224.163C1440.76 223.977 1435.82 223.792 1430.99 223.568L1426.28 228.737L1410.52 217.354L1443.73 208.863L1438.71 214.502L1470.36 215.714C1463.56 206.83 1459.94 200.721 1457.95 193.406C1455.96 186.121 1455.61 177.694 1455.06 164.263C1455.01 163.149 1454.96 162 1454.91 160.815L1450.18 154.993L1460.08 143.279ZM1433.5 215.09L1418.63 218.894L1425.8 224.072L1429.52 219.995L1430.34 220.034C1435.34 220.271 1440.51 220.464 1445.76 220.66C1458.64 221.14 1472 221.639 1484.46 222.854C1473.49 212.784 1467.88 203.328 1464.96 193.693C1462.18 184.519 1461.89 175.241 1461.58 165.446C1461.53 163.827 1461.47 162.195 1461.41 160.547L1461.35 158.932L1465.85 158.398L1465.87 152.713L1460.5 148.202L1454.72 155.036L1458.36 159.507L1458.39 160.087C1458.44 161.418 1458.5 162.699 1458.55 163.934C1459.11 177.597 1459.45 185.603 1461.32 192.485C1463.34 199.873 1467.16 206.034 1475.42 216.524L1477.77 219.5L1431.17 217.716L1433.5 215.09Z" />
<path fill-rule="evenodd" clip-rule="evenodd" d="M1153.84 149.86L1166.93 153.111L1161.59 158.713L1158.83 172.705L1121.95 183.985L1115.1 184.853L1123.41 194.785L1157.76 187.688L1159.65 173.103L1169.46 177.077L1163.03 193.657L1152 196.012L1149.11 200.8L1123.91 202.174L1109.01 223.255L1106.52 231.1L1095.21 218.94L1103.45 217.669L1116.12 198.773L1105.8 185.991L1095.89 186.107L1103.05 174.79L1115.54 177.122L1152.17 166.692L1154.11 158.534L1153.84 149.86ZM1156.44 153.13L1156.62 158.799L1154.26 168.746L1115.65 179.737L1104.24 177.606L1100.51 183.502L1106.97 183.427L1119.24 198.631L1104.9 220.025L1100.32 220.73L1105.44 226.229L1106.75 222.089L1122.58 199.693L1147.67 198.325L1150.44 193.741L1161.2 191.443L1166.22 178.507L1161.71 176.68L1160 189.826L1122.46 197.582L1110.18 182.907L1121.43 181.48L1156.68 170.702L1159.28 157.473L1162.09 154.532L1156.44 153.13Z" />
<path fill-rule="evenodd" clip-rule="evenodd" d="M1079.29 192.353L1086.99 203.677L1074.67 208.178L1079.29 192.353ZM1080.2 198.166L1078.48 204.079L1083.08 202.397L1080.2 198.166Z" />
<path fill-rule="evenodd" clip-rule="evenodd" d="M81.5453 269.003L99.3929 283.033L89.9225 286.303L62.9507 310.402L41.3155 352.021L42.0707 365.156L23.5437 352.625L32.1263 346.712L52.0719 305.403L81.3697 279.705L81.5453 269.003ZM84.9291 276.115L84.8438 281.314L54.9145 307.565L34.8752 349.068L29.7514 352.598L38.1703 358.293L37.7661 351.261L60.1409 308.219L88.1151 283.225L92.1855 281.819L84.9291 276.115Z" />
<path fill-rule="evenodd" clip-rule="evenodd" d="M742.207 288.206L743.207 310.564L732.147 304.741L703.344 308.242L688.842 313.848L689.114 330.404L710.289 337.189L723.363 337.264L717.891 353.858L709.935 346.14L679.884 336.765L679.339 313.65L673.929 307.916L690.579 291.728L707.848 298.058L732.541 295.22L742.207 288.206ZM739.001 294.857L733.854 298.592L707.423 301.63L691.441 295.772L678.841 308.022L682.806 312.225L683.324 334.172L711.773 343.047L716.317 347.455L718.532 340.736L709.732 340.686L685.656 332.971L685.303 311.464L702.489 304.82L732.81 301.134L739.438 304.624L739.001 294.857Z" />
<path fill-rule="evenodd" clip-rule="evenodd" d="M748.499 314.729L763.864 323.556L749.153 334.111L748.499 314.729ZM752.209 320.896L752.43 327.452L757.406 323.882L752.209 320.896Z" />
<path fill-rule="evenodd" clip-rule="evenodd" d="M840.454 291.853L849.202 298.067L857.914 295.793L874.081 305.136L879.81 318.499L883.408 318.221L887.281 310.176L914.968 322.07L917.911 338.332L925.414 348.022L910.576 348.405L907.844 328.686L888.752 325.762L874.394 330.196L868.937 319.49L863.926 322.055L857.17 311.715L860.488 310.056L855.62 307.699L852.553 313.26L845.338 308.037L840.239 307.889L840.454 291.853ZM843.864 298.568L843.785 304.49L846.517 304.569L851.4 308.104L854.158 303.102L868.414 310.005L862.248 313.089L865.134 317.505L870.463 314.776L876.175 325.983L888.487 322.181L910.953 325.621L913.613 344.825L918.417 344.702L914.62 339.797L911.859 324.544L888.98 314.715L885.687 321.556L877.581 322.182L871.323 307.584L857.408 299.543L848.507 301.866L843.864 298.568Z" />
<path fill-rule="evenodd" clip-rule="evenodd" d="M238.352 278.787L240.731 280.959C238.035 288.629 238.107 296.152 239.712 301.309L251.919 340.53L228.838 335.933L229.585 333.994C230.11 332.631 230.504 329.988 230.707 326.468C230.906 323.02 230.913 318.935 230.763 314.827C230.612 310.721 230.305 306.621 229.881 303.145C229.582 300.687 229.232 298.616 228.86 297.091L219.293 300.596L207.807 319.223L205.167 341.157L206.055 345.253L211.016 349.002C211.34 349.247 211.711 349.615 211.924 350.144C212.159 350.729 212.133 351.35 211.893 351.893C211.494 352.795 210.618 353.255 210.08 353.484C208.827 354.017 207 354.278 205.104 354.207C201.364 354.067 196.224 352.553 194.169 347.62L193.989 347.189L197.864 316.781L206.414 303.594L206.749 293.251L238.352 278.787ZM210.177 295.531L209.88 304.681L201.235 318.015L197.583 346.674C198.969 349.432 202.161 350.595 205.235 350.71C206.027 350.739 206.741 350.694 207.335 350.608L202.909 347.263L201.621 341.323L204.424 318.041L216.95 297.726L231.027 292.57L231.639 294.19C232.355 296.082 232.924 299.182 233.356 302.722C233.794 306.312 234.107 310.512 234.261 314.699C234.414 318.884 234.408 323.084 234.201 326.67C234.058 329.16 233.813 331.461 233.418 333.277L246.827 335.947L236.37 302.349C234.801 297.305 234.556 290.572 236.297 283.577L210.177 295.531ZM208.906 351.795C208.911 351.798 208.91 351.798 208.905 351.794L208.906 351.795ZM208.908 350.164C208.92 350.155 208.927 350.151 208.927 350.151C208.927 350.151 208.922 350.156 208.908 350.164Z" />
<path fill-rule="evenodd" clip-rule="evenodd" d="M592.807 297.028L596.489 315.353L587.062 313.488L563.488 315.213C571.287 318.74 580.806 321.565 594.057 322.197L595.716 322.276L595.778 335.895L585.391 331.26C577.113 331.093 567.519 328.529 559.453 325.465C555.344 323.904 551.588 322.198 548.553 320.575C545.991 319.206 543.834 317.84 542.425 316.621L516.14 319.337L508.384 325.213L505.981 307.273L515.669 310.255C529.131 307.783 555.924 305.599 584.832 303.471L592.807 297.028ZM590.513 303.38L586.18 306.881L585.634 306.921C556.116 309.092 529.047 311.299 515.889 313.774L515.464 313.854L510.176 312.227L511.056 318.798L514.806 315.957L543.69 312.972L544.28 313.569C545.23 314.532 547.267 315.919 550.203 317.489C553.091 319.032 556.709 320.679 560.696 322.193C568.701 325.234 578.022 327.675 585.798 327.766L586.16 327.771L592.253 330.49L592.231 325.602C575.908 324.582 565.077 320.273 556.149 315.476L550.849 312.629L587.278 309.963L592.025 310.902L590.513 303.38Z" />
<path fill-rule="evenodd" clip-rule="evenodd" d="M1214.14 281.389L1210.31 315.011L1179.3 303.993L1214.14 281.389ZM1187.16 303.069L1207.33 310.238L1209.82 288.361L1187.16 303.069Z" />
<path fill-rule="evenodd" clip-rule="evenodd" d="M1213.18 319.644L1243.83 330.546L1209.42 352.652L1213.18 319.644ZM1216.16 324.418L1213.73 345.722L1235.94 331.454L1216.16 324.418Z" />
<path fill-rule="evenodd" clip-rule="evenodd" d="M1222.64 267.637L1217.38 313.816L1259.4 328.732L1200.91 366.277L1206.11 320.84L1163.8 305.839L1222.64 267.637ZM1171.66 304.911L1209.91 318.472L1205.23 359.348L1251.5 329.643L1213.58 316.184L1218.32 274.613L1171.66 304.911Z" />
<path fill-rule="evenodd" clip-rule="evenodd" d="M1527.23 299.497L1574.06 329.157L1562.77 345.317L1516.32 314.148L1527.23 299.497ZM1528.1 304.19L1521.32 313.29L1561.87 340.496L1569.09 330.155L1528.1 304.19Z" />
<path fill-rule="evenodd" clip-rule="evenodd" d="M1535.07 288.406L1533.3 296.054L1574.03 322.985L1582.77 318.131L1582.62 330.176L1577.71 331.932L1575.49 344.304L1568.95 346.658L1562.47 352.398L1516.8 321.484L1511.79 332.461L1497.2 322.146L1507.59 317.919L1522.05 297.044L1520.79 288.806L1535.07 288.406ZM1524.85 292.194L1525.72 297.893L1509.87 320.768L1504.44 322.979L1510.36 327.164L1515.34 316.266L1562.18 347.977L1567.13 343.592L1572.4 341.696L1574.62 329.319L1579.15 327.7L1579.19 324.119L1573.87 327.077L1529.34 297.633L1530.64 292.032L1524.85 292.194Z" />
<path fill-rule="evenodd" clip-rule="evenodd" d="M1681.03 284.151L1702.87 303.422L1709.94 305.751L1701.94 314.926L1698.35 308.58L1682.55 295.792L1681.26 295.744L1677.08 300.206L1667.35 299.467L1668.77 290.121L1681.03 284.151ZM1671.5 292.129L1670.8 296.721L1675.88 297.106L1680.01 292.694L1683.66 292.833L1700.68 306.607L1702.46 309.761L1704.71 307.186L1701.34 306.078L1680.55 287.724L1671.5 292.129Z" />
<path fill-rule="evenodd" clip-rule="evenodd" d="M1697.23 317.412L1699.7 318.549L1699.82 332.862L1697.26 333.931L1688.3 324.898L1697.23 317.412ZM1692.72 325.102L1696.79 329.201L1696.73 321.752L1692.72 325.102Z" />
<path fill-rule="evenodd" clip-rule="evenodd" d="M1703.66 328.098L1711.01 333.279L1705.81 339.886L1699.12 334.05L1703.66 328.098ZM1704.3 332.215L1703.21 333.637L1705.4 335.551L1706.7 333.908L1704.3 332.215Z" />
<path fill-rule="evenodd" clip-rule="evenodd" d="M1726.15 330.98L1732.92 342.246L1747.06 342.181L1747.4 353.23L1727.44 353.083L1727.16 346.056L1722.35 340.536L1720.49 341.357L1712.4 349.26L1709.85 348.228L1709.51 335.385L1726.15 330.98ZM1712.57 337.678L1712.76 344.714L1718.78 338.831L1723.17 336.901L1730.11 344.881L1730.33 350.104L1744.31 350.207L1744.15 345.194L1731.23 345.254L1724.74 334.457L1712.57 337.678Z" />
<path fill-rule="evenodd" clip-rule="evenodd" d="M1824.31 289.047L1847.73 293.378L1847.94 293.481C1856.82 297.787 1865.75 302.257 1873.78 307.975L1874.07 308.177L1890.09 333.837L1907.75 335.654L1915.62 330.28L1916.85 345.395L1903.8 345.116L1892.46 341.931L1883.55 343.395L1883.02 342.102C1877.11 327.6 1869.36 317.995 1860.26 311.902C1851.16 305.805 1840.55 303.125 1828.74 302.729L1827.39 302.683L1824.31 289.047ZM1828.9 293.454L1830.21 299.286C1841.96 299.854 1852.78 302.681 1862.21 308.994C1871.72 315.363 1879.67 325.187 1885.73 339.49L1892.66 338.351L1904.32 341.627L1913.05 341.813L1912.62 336.566L1908.67 339.266L1888.03 337.143L1871.47 310.625C1863.84 305.236 1855.33 300.957 1846.63 296.734L1828.9 293.454Z" />
<path fill-rule="evenodd" clip-rule="evenodd" d="M1353.72 272.127L1363.89 283.975L1371.21 285.672L1381.27 320.238L1416.92 320.17L1413.28 343.569L1413.32 352.334L1416.52 360.877L1398.91 360.781L1403.12 351.624L1404.89 331.166L1336.49 326.101L1334.35 301.642L1367.36 320.412L1369.87 320.364L1360.53 293.922L1354.16 287.322L1344.69 286.133L1353.72 272.127ZM1354.12 277.966L1350.65 283.354L1355.82 284.003L1363.58 292.038L1374.78 323.771L1366.46 323.929L1338.42 307.981L1339.71 322.831L1408.69 327.938L1406.56 352.533L1404.36 357.311L1411.46 357.349L1409.82 352.977L1409.78 343.306L1412.83 323.678L1378.65 323.743L1368.42 288.619L1361.98 287.125L1354.12 277.966Z" />
<path fill-rule="evenodd" clip-rule="evenodd" d="M1079.98 294L1087 301.147L1081.79 305.537L1080.46 337.304L1083.95 342.112L1075.61 346.576L1072.9 339.692L1055.13 331.089L1060.3 325.307L1073.29 331.585L1073.67 308.713L1055.95 314.638L1055.45 306.497L1074.85 299.924L1079.98 294ZM1080.1 297.685L1076.29 302.074L1058.06 308.251L1058.25 311.234L1076.22 305.222L1075.72 335.538L1060.9 328.378L1059.2 330.284L1074.87 337.868L1076.91 343.047L1080.25 341.26L1077.93 338.069L1079.34 304.335L1083.33 300.975L1080.1 297.685Z" />
<path fill-rule="evenodd" clip-rule="evenodd" d="M1015.24 297.633L1018.25 303.341L1031.82 307.734L1043.27 308.304L1043.99 315.637L1031.89 314.989L1019.35 310.954L1019.91 325.891L1032.35 321.343L1046.59 321.308L1046.49 328.561H1032.44L1020.37 333.554L1014.48 338.296L1006.7 333.138L1012.62 327.942L1012.24 307.853L1006.57 302.411L1015.24 297.633ZM1010.75 302.961L1014.72 306.769L1015.14 329.055L1010.81 332.86L1014.34 335.201L1019.08 331.381L1031.95 326.061H1044.02L1044.05 323.814L1032.79 323.842L1017.54 329.419L1016.72 307.481L1032.35 312.51L1041.22 312.985L1040.99 310.694L1031.36 310.215L1016.51 305.406L1014.21 301.052L1010.75 302.961Z" />
<path fill-rule="evenodd" clip-rule="evenodd" d="M1048.82 306.258C1048.8 306.254 1048.78 306.252 1048.76 306.25C1048.74 306.248 1048.73 306.246 1048.71 306.245C1048.69 306.243 1048.67 306.242 1048.66 306.242C1048.63 306.241 1048.61 306.241 1048.59 306.241C1048.56 306.241 1048.54 306.242 1048.51 306.243C1048.49 306.244 1048.46 306.246 1048.43 306.248C1048.42 306.249 1048.39 306.252 1048.36 306.256C1048.35 306.258 1048.82 306.258 1048.82 306.258C1048.81 306.262 1048.25 306.275 1048.22 306.282C1048.21 306.284 1048.2 306.287 1048.19 306.291C1044.64 306.858 1043.4 310.809 1045.6 313.137L1045.6 313.143L1045.61 313.149C1046.39 313.958 1047.52 314.446 1048.92 314.436L1049.01 314.436L1049.09 314.423C1050.47 314.22 1051.58 313.682 1052.34 312.866C1053.09 312.043 1053.42 311.004 1053.31 309.982C1053.09 307.968 1051.3 306.393 1048.82 306.258ZM1048.63 308.752C1046.94 308.989 1046.65 310.598 1047.41 311.417C1047.67 311.678 1048.1 311.923 1048.82 311.936C1049.71 311.789 1050.23 311.466 1050.5 311.173C1050.77 310.878 1050.85 310.553 1050.82 310.249C1050.76 309.682 1050.17 308.811 1048.63 308.752Z" />
<path fill-rule="evenodd" clip-rule="evenodd" d="M1051.54 314.313C1051.53 314.312 1051.52 314.311 1051.52 314.31C1051.49 314.306 1051.47 314.304 1051.46 314.303C1051.45 314.302 1051.43 314.301 1051.42 314.3C1051.4 314.299 1051.39 314.298 1051.38 314.298C1051.37 314.298 1051.37 314.298 1051.37 314.298C1051.35 314.297 1051.34 314.297 1051.33 314.297C1051.3 314.297 1051.27 314.298 1051.25 314.298C1051.23 314.299 1051.21 314.3 1051.18 314.302C1051.17 314.302 1051.16 314.303 1051.15 314.303C1051.14 314.304 1051.13 314.305 1051.12 314.306C1051.11 314.308 1051.09 314.31 1051.06 314.313C1051.05 314.315 1051.03 314.318 1051.01 314.322C1051 314.325 1050.98 314.328 1050.95 314.334C1048.79 314.594 1047.07 315.937 1047.02 317.812C1046.99 318.782 1047.46 319.672 1048.27 320.284C1049.06 320.88 1050.14 321.192 1051.42 321.217C1052.78 321.244 1053.93 320.951 1054.77 320.334C1055.63 319.695 1056.09 318.742 1056.01 317.725C1055.86 315.774 1053.93 314.432 1051.54 314.313ZM1051.34 316.806C1053.11 316.859 1053.5 317.729 1053.52 317.926C1053.53 318.014 1053.51 318.156 1053.28 318.323C1053.03 318.511 1052.48 318.737 1051.47 318.718M1051.34 316.806C1049.8 316.952 1049.53 317.723 1049.52 317.882C1049.52 317.964 1049.54 318.113 1049.77 318.287C1050.03 318.476 1050.55 318.699 1051.47 318.718" />
<path fill-rule="evenodd" clip-rule="evenodd" d="M1054.72 328.227C1054.02 329.038 1052.97 329.488 1051.7 329.499C1049.08 329.52 1047.39 327.747 1047.17 325.796C1047.06 324.835 1047.31 323.813 1048.01 323.018C1048.72 322.21 1049.78 321.765 1051.06 321.75C1053.68 321.719 1055.34 323.517 1055.55 325.458C1055.66 326.413 1055.41 327.432 1054.72 328.227ZM1053.07 325.732C1052.99 325.045 1052.4 324.234 1051.09 324.25C1050.39 324.258 1050.05 324.485 1049.88 324.671C1049.71 324.87 1049.61 325.162 1049.65 325.512C1049.73 326.182 1050.32 327.01 1051.68 326.999C1052.35 326.993 1052.68 326.773 1052.83 326.59C1053.01 326.39 1053.11 326.091 1053.07 325.732Z" />
<path fill-rule="evenodd" clip-rule="evenodd" d="M365.324 314.745L391.02 318.187L395.459 339.586L393.66 339.883C388.179 340.788 382.487 342.62 376.998 345.348L375.16 346.262L365.324 314.745ZM370.301 318.943L377.287 341.331C381.907 339.21 386.647 337.677 391.297 336.755L388.097 321.327L370.301 318.943Z" />
<path fill-rule="evenodd" clip-rule="evenodd" d="M401.353 276.375H416.485L413.422 283.839C413.984 297.307 410.156 310.086 399.436 321.478L404.599 345.727L402.593 345.871C389.637 346.796 379.581 349.761 373.549 354.276L371.574 355.754L356.074 306.681L394.018 311.346C399.888 305.32 404.177 297.458 403.759 283.899L401.353 276.375ZM406.147 279.875L407.241 283.296L407.249 283.538C407.778 298.739 402.741 307.651 395.887 314.432L395.284 315.028L361.051 310.819L373.459 350.102C379.927 346.061 389.234 343.532 400.342 342.54L395.625 320.389L396.275 319.719C406.863 308.804 410.532 296.618 409.908 283.615L409.89 283.227L411.265 279.875H406.147Z" />
<path fill-rule="evenodd" clip-rule="evenodd" d="M171.458 431.205L178.159 438.339C185.95 439.989 193.969 441.856 201.728 446.332C209.684 450.921 217.258 458.18 224.195 470.505L233.069 482.147L216.061 482.192L215.622 473.045C212.151 465.518 206.916 459.526 199.539 455.314C192.041 451.034 182.23 448.536 169.627 448.25L167.47 448.201L171.458 431.205ZM173.375 438.357L171.858 444.821C183.869 445.34 193.59 447.888 201.274 452.275C209.434 456.934 215.196 463.611 218.948 471.904L219.086 472.208L219.397 478.683L226.014 478.666L221.263 472.432L221.203 472.325C214.515 460.408 207.342 453.611 199.979 449.364C192.576 445.094 184.871 443.331 176.899 441.65L176.361 441.536L173.375 438.357Z" />
<path fill-rule="evenodd" clip-rule="evenodd" d="M248.137 439.594L262.029 451.203L243.863 454.36L248.137 439.594ZM250.008 445.718L248.782 449.952L253.991 449.047L250.008 445.718Z" />
<path fill-rule="evenodd" clip-rule="evenodd" d="M717.072 412.735L738.737 484.221L746.959 487.126L746.031 488.912C744.871 491.146 742.86 493.323 740.905 494.948C739.916 495.77 738.898 496.487 737.949 497.021C737.049 497.527 736.035 497.97 735.095 498.05L733.581 498.178L731.257 488.036L711.713 428.23L701.14 437.79L714.13 467.652L720.841 476.088L706.203 479.875L706.798 470.512L694.187 443.938L681.802 445.727L668.001 430.234L678.029 416.514L687.473 435.509L691.959 435.678C692.44 432.804 693.334 429.684 696.131 426.314C699.374 422.406 705.063 418.291 715.246 413.58L717.072 412.735ZM698.824 428.549C696.142 431.781 695.614 434.629 695.193 437.722L694.978 439.294L685.265 438.928L677.458 423.227L672.495 430.017L683.164 441.994L696.242 440.105L710.349 469.83L710.002 475.277L714.747 474.049L711.104 469.47L696.927 436.881L713.365 422.018L734.633 487.099L736.21 493.983C736.218 493.978 736.226 493.974 736.233 493.97C736.963 493.56 737.807 492.972 738.668 492.256C739.828 491.293 740.941 490.162 741.813 489.02L735.901 486.932L714.894 417.616C706.082 421.862 701.406 425.439 698.824 428.549Z" />
<path fill-rule="evenodd" clip-rule="evenodd" d="M574.596 423.336L583.758 415.634L586.594 416.599L590.578 434.79L588.257 436.804L576.593 432.455C548.822 441.332 528.403 457.566 513.102 477.676L513.396 488.169L510.657 489.662L496.07 479.657L496.348 476.615L505.421 472.575C519.959 452.486 538.265 433.91 574.596 423.336ZM583.794 420.176L576.281 426.492L575.924 426.595C540.084 436.941 522.3 455.138 507.983 475.005L507.707 475.388L500.629 478.54L509.801 484.83L509.569 476.546L509.938 476.056C525.769 455.073 547.05 438.087 576.113 428.935L576.687 428.754L586.472 432.403L583.794 420.176Z" />
<path fill-rule="evenodd" clip-rule="evenodd" d="M2.31079 427.047L25.7267 431.378L25.9393 431.481C34.8222 435.787 43.7499 440.257 51.7825 445.975L52.067 446.177L68.0921 471.837L85.7496 473.654L93.6246 468.28L94.8504 483.395L81.8044 483.116L70.4617 479.931L61.5473 481.395L61.0204 480.102C55.1068 465.6 47.3605 455.995 38.2613 449.902C29.1565 443.805 18.5484 441.125 6.74424 440.729L5.39398 440.683L2.31079 427.047ZM6.89564 431.454L8.21418 437.286C19.9558 437.854 30.7805 440.681 40.2087 446.994C49.7201 453.363 57.67 463.187 63.725 477.49L70.6606 476.351L82.3232 479.627L91.0484 479.813L90.6228 474.566L86.6649 477.266L66.0305 475.143L49.4692 448.625C41.8375 443.236 33.3328 438.957 24.6253 434.734L6.89564 431.454Z" />
<path fill-rule="evenodd" clip-rule="evenodd" d="M335.35 413.034L346.17 421.76L379.278 429.353L390.218 424.595L381.807 447.099L376.003 438.54L344.057 430.735L332.593 433.325L335.35 413.034ZM337.983 419.654L336.74 428.8L344.088 427.14L378.143 435.46L380.901 439.527L384.052 431.093L379.618 433.022L344.601 424.991L337.983 419.654Z" />
<path fill-rule="evenodd" clip-rule="evenodd" d="M392.944 448.903L402.524 463.688L394.396 469.348L385.29 455.2L392.944 448.903ZM389.918 455.925L395.374 464.402L397.746 462.75L392.139 454.097L389.918 455.925Z" />
<path fill-rule="evenodd" clip-rule="evenodd" d="M405.95 474.287L424.665 483.112L405.652 498.373L405.95 474.287ZM409.382 479.775L409.243 491.002L418.106 483.888L409.382 479.775Z" />
<path fill-rule="evenodd" clip-rule="evenodd" d="M1167.27 444.52L1182.89 448.278L1179.51 463.916L1178.72 464.284C1174.33 466.339 1168.29 466.509 1164.25 462.495L1163.57 461.822L1167.27 444.52ZM1169.94 448.763L1167.41 460.617C1169.87 462.498 1173.36 462.633 1176.46 461.444L1178.74 450.881L1169.94 448.763Z" />
<path fill-rule="evenodd" clip-rule="evenodd" d="M1215.73 411.631L1227.86 425.874L1218.27 427.365L1189.51 447.889L1185.7 465.07L1205.42 476.533L1215.87 477.599L1205.66 491.395L1200.59 484.711L1177.09 470.975C1175.04 471.662 1173.17 472.108 1171.01 471.932C1169.02 471.771 1166.92 471.095 1164.27 469.846L1156.71 487.781L1156.76 498.484L1137.75 490.454L1146.7 484.58L1157.1 460.385L1161.06 442.678L1154.12 428.436L1176.61 411.81L1202.17 412.156L1187.18 426.601L1178.52 422.552C1178.44 422.611 1178.36 422.672 1178.28 422.733C1177.17 423.572 1175.82 424.585 1174.45 426.491C1172.77 428.813 1171.16 432.419 1170.91 438.224L1183.21 441.226L1212.56 420.184L1215.73 411.631ZM1177.74 415.326L1158.54 429.52L1164.74 442.247L1160.44 461.467L1149.5 486.929L1145.15 489.781L1153.24 493.197L1153.21 487.081L1162.5 465.03L1164.19 465.897C1167.54 467.625 1169.6 468.306 1171.29 468.444C1172.94 468.578 1174.42 468.211 1176.7 467.408L1177.47 467.139L1202.95 482.041L1205.62 485.559L1209.4 480.457L1204.32 479.938L1181.72 466.81L1186.39 445.82L1216.91 424.034L1221.14 423.378L1216.94 418.447L1215.47 422.404L1183.94 445.007L1167.37 440.962L1167.38 439.581C1167.42 432.31 1169.33 427.592 1171.61 424.44C1173.35 422.03 1175.42 420.481 1176.5 419.673C1176.78 419.468 1176.99 419.311 1177.11 419.199L1177.97 418.431L1186.48 422.412L1193.61 415.541L1177.74 415.326Z" />
<path fill-rule="evenodd" clip-rule="evenodd" d="M1351.27 409.785L1383.87 442.517L1384.05 455.813L1381.21 453.721C1377.2 450.763 1371.49 444.9 1365.5 438.462C1363.21 436.006 1360.88 433.46 1358.56 430.93C1354.73 426.753 1350.95 422.623 1347.49 419.025L1346.59 418.087L1351.27 409.785ZM1352.05 415.528L1350.91 417.541C1354.15 420.938 1357.66 424.774 1361.19 428.619C1363.5 431.141 1365.82 433.668 1368.06 436.077C1372.71 441.071 1377.02 445.535 1380.45 448.573L1380.39 443.983L1352.05 415.528Z" />
<path fill-rule="evenodd" clip-rule="evenodd" d="M1351.23 426.295L1361.01 437.715L1360.33 438.805C1358.24 442.135 1355.97 445.64 1353.66 449.211C1350.88 453.504 1348.04 457.891 1345.38 462.183C1340.64 469.822 1336.76 476.673 1335.28 481.214L1337.13 499.215L1309.64 480.037L1323.51 476.62C1323.64 476.434 1323.76 476.247 1323.88 476.061C1335.99 457.803 1346.3 442.253 1350.3 429.327L1351.23 426.295ZM1352.64 433.318C1347.96 446.095 1338.08 460.985 1327.05 477.614C1326.72 478.115 1326.39 478.618 1326.05 479.123L1325.68 479.692L1317.98 481.588L1332.87 491.972L1331.72 480.856L1331.83 480.515C1333.38 475.475 1337.59 468.094 1342.41 460.337C1345.04 456.1 1347.95 451.597 1350.77 447.229C1352.83 444.04 1354.85 440.923 1356.68 438.034L1352.64 433.318Z" />
<path fill-rule="evenodd" clip-rule="evenodd" d="M1527.86 410.801L1546.19 415.385L1537.96 425.255L1533.09 454.783C1533.2 455.315 1533.31 455.861 1533.42 456.419C1534.81 463.403 1536.6 472.351 1537.29 480.391L1544.17 488.524L1525.81 492.089L1527.83 481.881C1526.96 472.975 1525.03 463.757 1523.47 458.084L1502.39 452.969L1489.78 458.73L1498.9 433.55L1504.17 444.526L1523.35 448.532L1529.47 422.694L1527.86 410.801ZM1532.02 415.449L1533.03 422.868L1525.97 452.655L1501.77 447.599L1499.35 442.575L1495.91 452.083L1502.04 449.281L1526.27 455.164L1526.56 456.14C1528.23 461.928 1530.41 472.054 1531.34 481.803L1531.36 482.057L1530.25 487.661L1537.64 486.226L1533.89 481.794L1533.85 481.233C1533.21 473.269 1531.42 464.266 1529.98 457.084C1529.85 456.424 1529.72 455.78 1529.6 455.153L1529.53 454.841L1534.66 423.745L1539.93 417.428L1532.02 415.449Z" />
<path fill-rule="evenodd" clip-rule="evenodd" d="M1515.01 458.426L1520.68 466.637L1501.29 479.355L1494.43 471.633L1515.01 458.426ZM1499.76 472.367L1501.9 474.77L1515.76 465.676L1514.05 463.199L1499.76 472.367Z" />
<path fill-rule="evenodd" clip-rule="evenodd" d="M1493.76 474.969L1494.06 476.428C1494.92 480.605 1494.46 484.764 1494.04 488.604C1494.01 488.852 1493.99 489.099 1493.96 489.345L1493.62 492.473L1491.14 490.535C1486.32 486.768 1482.04 482.553 1478.59 478.434L1476.32 475.716L1493.76 474.969ZM1483.66 478.905C1485.81 481.23 1488.22 483.55 1490.82 485.757C1491.05 483.29 1491.17 480.929 1490.87 478.596L1483.66 478.905Z" />
<path fill-rule="evenodd" clip-rule="evenodd" d="M1691.5 420.005L1707.08 423.815L1696.88 434.955L1665.08 438.255L1665.12 478.461L1682.28 463.199L1711.14 461.343L1707.49 469.757L1712.03 479.062L1687.75 473.848L1659.33 495.462L1642.19 459.613L1656.91 428.828L1687.87 427.112L1691.5 420.005ZM1693.36 424.062L1690.07 430.495L1659.17 432.208L1646.07 459.613L1660.64 490.073L1686.91 470.088L1705.72 474.129L1703.63 469.842L1705.65 465.204L1683.71 466.614L1664.53 483.664L1661.62 482.358L1661.58 435.099L1695.2 431.611L1700.51 425.811L1693.36 424.062Z" />
<path fill-rule="evenodd" clip-rule="evenodd" d="M1877.88 433.692L1891.9 443.806L1883.63 447.111L1869.33 463.302L1849.6 462.368L1846.22 466.805L1828.71 455.095L1807.76 469.172L1804.69 478.408L1793.4 463.427L1802.8 462.219L1826.44 446.346L1856.76 447.34L1854.32 453.473L1865.72 454.525L1876.24 442.034L1877.88 433.692ZM1880.26 439.725L1879.5 443.596L1867.22 458.178L1849.35 456.529L1851.67 450.675L1827.46 449.881L1804.06 465.585L1799.82 466.131L1803.47 470.978L1804.82 466.933L1828.7 450.882L1845.43 462.066L1847.93 458.785L1867.82 459.726L1881.56 444.17L1884.69 442.921L1880.26 439.725Z" />
<path fill-rule="evenodd" clip-rule="evenodd" d="M853 419.71C848.265 419.71 844.427 423.533 844.427 428.249C844.427 432.965 848.265 436.788 853 436.788C857.735 436.788 861.573 432.965 861.573 428.249C861.573 423.533 857.735 419.71 853 419.71ZM848.101 428.249C848.101 425.554 850.294 423.369 853 423.369C855.706 423.369 857.899 425.554 857.899 428.249C857.899 430.944 855.706 433.129 853 433.129C850.294 433.129 848.101 430.944 848.101 428.249Z" />
<path fill-rule="evenodd" clip-rule="evenodd" d="M868.309 428.249C868.309 435.49 863.241 441.553 856.446 443.11L897 497H858.484L868.658 481.848L853 462.371L837.342 481.848L847.516 497H809L849.554 443.11C842.759 441.553 837.691 435.49 837.691 428.249C837.691 419.827 844.545 413 853 413C861.455 413 868.309 419.827 868.309 428.249ZM853 416.66C846.574 416.66 841.365 421.848 841.365 428.249C841.365 434.65 846.574 439.838 853 439.838C859.426 439.838 864.635 434.65 864.635 428.249C864.635 421.848 859.426 416.66 853 416.66ZM853 444.632L816.346 493.34H840.639L832.792 481.654L853 456.516L873.208 481.654L865.361 493.34H889.654L853 444.632Z" />
<path fill-rule="evenodd" clip-rule="evenodd" d="M1008.1 422.604L1036.06 424.408L1026.56 448.735L1007.62 448.476L1008.1 422.604ZM1011.53 426.333L1011.19 445.024L1024.19 445.202L1031.06 427.592L1011.53 426.333Z" />
<path fill-rule="evenodd" clip-rule="evenodd" d="M1000.33 414.851L1047.55 418.006L1034.81 451.087L1047.73 472.853L1047.36 487.547L1053.78 495.846L1029.89 495.625L1036.19 486.718L1036.28 476.956L1024.67 456.561L1007.93 456.533L1000.32 470.964L1003.81 482.598L1005.75 497.035L981.407 496.992L992.306 486.737L987.035 468.273L999.389 449.425L1000.33 414.851ZM1003.73 418.586L1002.86 450.513L990.84 468.852L996.257 487.826L990.218 493.508L1001.75 493.528L1000.38 483.339L996.556 470.598L1005.82 453.03L1026.71 453.064L1039.79 476.044L1039.68 487.845L1036.61 492.187L1046.6 492.279L1043.83 488.703L1044.21 473.772L1030.94 451.413L1042.58 421.182L1003.73 418.586Z" />

</svg>
