<?xml version="1.0" encoding="UTF-8"?>
<svg xmlns="http://www.w3.org/2000/svg" xmlns:xlink="http://www.w3.org/1999/xlink" width="50px" height="50px" viewBox="0 0 50 50" version="1.1">
<g id="surface1">
<path style=" stroke:none;fill-rule:nonzero;fill:rgb(0.392157%,0.392157%,0.392157%);fill-opacity:1;" d="M 27.601562 1.949219 C 27.632812 1.949219 27.664062 1.949219 27.699219 1.949219 C 27.734375 1.984375 27.765625 2.015625 27.800781 2.050781 C 27.917969 2.09375 28.039062 2.136719 28.15625 2.179688 C 28.507812 2.304688 28.820312 2.460938 29.140625 2.648438 C 29.292969 2.742188 29.425781 2.804688 29.601562 2.851562 C 29.6875 2.90625 29.773438 2.960938 29.859375 3.023438 C 29.90625 3.054688 29.945312 3.085938 29.992188 3.117188 C 30.101562 3.199219 30.101562 3.199219 30.148438 3.300781 C 30.183594 3.316406 30.21875 3.328125 30.25 3.347656 C 30.351562 3.398438 30.351562 3.398438 30.398438 3.550781 C 30.445312 3.5625 30.445312 3.5625 30.496094 3.570312 C 30.53125 3.582031 30.5625 3.589844 30.601562 3.601562 C 30.613281 3.625 30.625 3.65625 30.636719 3.683594 C 30.726562 3.851562 30.859375 3.972656 31 4.105469 C 31.027344 4.132812 31.054688 4.160156 31.082031 4.1875 C 31.15625 4.257812 31.226562 4.328125 31.300781 4.398438 C 31.359375 4.460938 31.417969 4.515625 31.476562 4.578125 C 31.546875 4.65625 31.546875 4.65625 31.648438 4.699219 C 31.65625 4.734375 31.664062 4.765625 31.671875 4.800781 C 31.679688 4.832031 31.691406 4.867188 31.699219 4.898438 C 31.75 4.914062 31.796875 4.933594 31.851562 4.949219 C 31.851562 4.984375 31.859375 5.023438 31.863281 5.0625 C 31.914062 5.257812 32.03125 5.34375 32.183594 5.472656 C 32.25 5.550781 32.25 5.550781 32.265625 5.65625 C 32.3125 5.851562 32.40625 6.007812 32.507812 6.179688 C 33.015625 7.109375 33.273438 8.101562 33.398438 9.148438 C 33.414062 9.148438 33.433594 9.148438 33.449219 9.148438 C 33.449219 9.710938 33.449219 10.273438 33.449219 10.851562 C 33.433594 10.851562 33.417969 10.851562 33.398438 10.851562 C 33.390625 10.941406 33.390625 10.941406 33.375 11.03125 C 33.195312 12.421875 32.683594 13.679688 31.917969 14.84375 C 31.851562 14.945312 31.851562 14.945312 31.800781 15.050781 C 31.71875 15.132812 31.632812 15.21875 31.550781 15.300781 C 31.453125 15.4375 31.453125 15.4375 31.398438 15.550781 C 31.335938 15.617188 31.265625 15.683594 31.199219 15.75 C 31.164062 15.785156 31.128906 15.820312 31.09375 15.859375 C 30.796875 16.15625 30.476562 16.429688 30.148438 16.699219 C 30.117188 16.734375 30.085938 16.765625 30.050781 16.800781 C 30 16.832031 29.953125 16.867188 29.898438 16.898438 C 29.875 16.929688 29.84375 16.960938 29.816406 16.992188 C 29.601562 17.195312 29.351562 17.371094 29.050781 17.398438 C 29.050781 17.433594 29.050781 17.46875 29.050781 17.5 C 28.53125 17.777344 28.53125 17.777344 28.25 17.800781 C 28.25 17.832031 28.25 17.867188 28.25 17.898438 C 28.191406 17.90625 28.132812 17.914062 28.078125 17.917969 C 27.855469 17.945312 27.65625 18 27.445312 18.070312 C 27.410156 18.082031 27.375 18.09375 27.34375 18.105469 C 27.144531 18.167969 26.945312 18.234375 26.75 18.300781 C 26.8125 18.390625 26.875 18.476562 26.941406 18.566406 C 26.976562 18.617188 27.011719 18.664062 27.046875 18.714844 C 27.171875 18.882812 27.277344 18.984375 27.449219 19.101562 C 27.460938 19.132812 27.46875 19.167969 27.476562 19.203125 C 27.484375 19.234375 27.492188 19.265625 27.5 19.300781 C 27.546875 19.316406 27.601562 19.332031 27.648438 19.351562 C 27.664062 19.398438 27.683594 19.449219 27.699219 19.5 C 27.734375 19.515625 27.765625 19.53125 27.800781 19.550781 C 27.816406 19.617188 27.835938 19.683594 27.851562 19.75 C 27.910156 19.851562 27.910156 19.851562 27.984375 19.949219 C 28.015625 19.988281 28.042969 20.023438 28.070312 20.0625 C 28.101562 20.105469 28.132812 20.148438 28.164062 20.1875 C 28.195312 20.226562 28.226562 20.273438 28.257812 20.3125 C 28.324219 20.398438 28.390625 20.484375 28.453125 20.570312 C 28.546875 20.695312 28.636719 20.8125 28.726562 20.9375 C 28.78125 21.007812 28.835938 21.082031 28.886719 21.152344 C 28.914062 21.1875 28.9375 21.21875 28.960938 21.257812 C 29.054688 21.375 29.140625 21.492188 29.25 21.601562 C 29.390625 21.773438 29.507812 21.964844 29.625 22.15625 C 29.695312 22.265625 29.695312 22.265625 29.851562 22.300781 C 29.882812 22.402344 29.882812 22.402344 29.898438 22.5 C 29.933594 22.5 29.96875 22.5 30 22.5 C 30.007812 22.53125 30.011719 22.558594 30.015625 22.585938 C 30.054688 22.710938 30.101562 22.785156 30.183594 22.886719 C 30.226562 22.9375 30.226562 22.9375 30.265625 22.992188 C 30.308594 23.046875 30.308594 23.046875 30.351562 23.101562 C 30.414062 23.179688 30.472656 23.257812 30.53125 23.332031 C 30.5625 23.367188 30.589844 23.40625 30.617188 23.445312 C 30.757812 23.625 30.886719 23.804688 31.015625 23.992188 C 31.101562 24.101562 31.101562 24.101562 31.207031 24.203125 C 31.300781 24.300781 31.300781 24.300781 31.351562 24.449219 C 31.382812 24.449219 31.414062 24.449219 31.449219 24.449219 C 31.46875 24.515625 31.484375 24.582031 31.5 24.648438 C 31.53125 24.648438 31.566406 24.648438 31.601562 24.648438 C 31.605469 24.679688 31.609375 24.707031 31.617188 24.734375 C 31.65625 24.875 31.726562 24.96875 31.820312 25.085938 C 31.863281 25.140625 31.863281 25.140625 31.910156 25.203125 C 32 25.3125 32 25.3125 32.148438 25.351562 C 32.179688 25.445312 32.179688 25.445312 32.199219 25.550781 C 32.25 25.636719 32.25 25.636719 32.316406 25.71875 C 32.34375 25.75 32.367188 25.78125 32.390625 25.8125 C 32.414062 25.847656 32.441406 25.882812 32.46875 25.914062 C 32.523438 25.984375 32.578125 26.058594 32.632812 26.128906 C 32.660156 26.164062 32.6875 26.203125 32.71875 26.242188 C 32.871094 26.445312 33.023438 26.652344 33.171875 26.859375 C 33.273438 27 33.375 27.128906 33.5 27.25 C 33.515625 27.285156 33.53125 27.320312 33.550781 27.355469 C 33.59375 27.46875 33.59375 27.46875 33.75 27.5 C 33.769531 27.566406 33.785156 27.632812 33.800781 27.699219 C 33.863281 27.804688 33.863281 27.804688 33.945312 27.910156 C 33.984375 27.960938 33.984375 27.960938 34.023438 28.015625 C 34.101562 28.113281 34.101562 28.113281 34.25 28.148438 C 34.269531 28.21875 34.285156 28.28125 34.300781 28.351562 C 34.363281 28.453125 34.363281 28.453125 34.441406 28.554688 C 34.46875 28.59375 34.5 28.632812 34.53125 28.675781 C 34.5625 28.71875 34.59375 28.757812 34.625 28.800781 C 34.65625 28.84375 34.6875 28.882812 34.71875 28.929688 C 34.785156 29.015625 34.847656 29.097656 34.914062 29.179688 C 34.988281 29.285156 35.0625 29.386719 35.140625 29.492188 C 35.359375 29.78125 35.359375 29.78125 35.601562 30.050781 C 35.617188 30.085938 35.632812 30.121094 35.648438 30.15625 C 35.695312 30.265625 35.695312 30.265625 35.851562 30.300781 C 35.875 30.390625 35.875 30.390625 35.898438 30.5 C 35.984375 30.625 36.070312 30.742188 36.164062 30.859375 C 36.1875 30.894531 36.214844 30.929688 36.242188 30.964844 C 36.296875 31.039062 36.355469 31.109375 36.414062 31.1875 C 36.5 31.300781 36.589844 31.414062 36.679688 31.53125 C 36.789062 31.679688 36.898438 31.820312 37.007812 31.96875 C 37.03125 32 37.054688 32.03125 37.082031 32.0625 C 37.140625 32.140625 37.203125 32.21875 37.269531 32.292969 C 37.351562 32.398438 37.351562 32.398438 37.351562 32.5 C 37.398438 32.515625 37.449219 32.53125 37.5 32.550781 C 37.5 32.582031 37.5 32.617188 37.5 32.648438 C 37.53125 32.683594 37.566406 32.71875 37.601562 32.75 C 37.695312 32.847656 37.742188 32.925781 37.800781 33.050781 C 37.832031 33.050781 37.867188 33.050781 37.898438 33.050781 C 37.90625 33.097656 37.90625 33.097656 37.914062 33.148438 C 37.929688 33.179688 37.9375 33.214844 37.949219 33.25 C 38 33.265625 38.046875 33.28125 38.101562 33.300781 C 38.117188 33.367188 38.132812 33.433594 38.148438 33.5 C 38.210938 33.585938 38.273438 33.675781 38.335938 33.757812 C 38.359375 33.785156 38.375 33.8125 38.398438 33.835938 C 38.464844 33.921875 38.53125 34.011719 38.601562 34.101562 C 38.710938 34.242188 38.820312 34.386719 38.929688 34.53125 C 38.960938 34.570312 38.984375 34.601562 39.015625 34.640625 C 39.195312 34.875 39.371094 35.117188 39.539062 35.359375 C 39.601562 35.457031 39.601562 35.457031 39.699219 35.550781 C 39.800781 35.648438 39.800781 35.648438 39.847656 35.753906 C 39.894531 35.867188 39.894531 35.867188 40.050781 35.898438 C 40.066406 35.949219 40.082031 36 40.101562 36.050781 C 40.132812 36.066406 40.164062 36.082031 40.199219 36.101562 C 40.21875 36.164062 40.234375 36.234375 40.25 36.300781 C 40.332031 36.421875 40.417969 36.535156 40.507812 36.648438 C 40.5625 36.71875 40.617188 36.789062 40.667969 36.863281 C 40.695312 36.898438 40.726562 36.9375 40.757812 36.976562 C 40.855469 37.109375 40.953125 37.242188 41.054688 37.371094 C 41.085938 37.414062 41.121094 37.460938 41.15625 37.507812 C 41.222656 37.597656 41.289062 37.6875 41.355469 37.773438 C 41.382812 37.816406 41.414062 37.859375 41.445312 37.898438 C 41.476562 37.9375 41.5 37.972656 41.53125 38.007812 C 41.601562 38.105469 41.601562 38.105469 41.699219 38.199219 C 41.726562 38.242188 41.75 38.289062 41.773438 38.332031 C 41.796875 38.371094 41.824219 38.410156 41.851562 38.449219 C 41.882812 38.449219 41.914062 38.449219 41.949219 38.449219 C 41.96875 38.515625 41.984375 38.582031 42 38.648438 C 42.03125 38.648438 42.066406 38.648438 42.101562 38.648438 C 42.109375 38.695312 42.109375 38.695312 42.117188 38.746094 C 42.125 38.78125 42.140625 38.8125 42.148438 38.851562 C 42.199219 38.867188 42.25 38.882812 42.300781 38.898438 C 42.316406 38.949219 42.332031 39 42.351562 39.050781 C 42.382812 39.066406 42.414062 39.082031 42.449219 39.101562 C 42.457031 39.128906 42.460938 39.15625 42.46875 39.1875 C 42.507812 39.335938 42.585938 39.429688 42.683594 39.554688 C 42.726562 39.605469 42.765625 39.65625 42.804688 39.710938 C 42.828125 39.742188 42.851562 39.769531 42.875 39.796875 C 43.058594 40.039062 43.234375 40.289062 43.414062 40.53125 C 43.445312 40.574219 43.472656 40.613281 43.503906 40.65625 C 43.539062 40.707031 43.539062 40.707031 43.582031 40.761719 C 43.65625 40.859375 43.742188 40.9375 43.828125 41.023438 C 43.898438 41.101562 43.898438 41.101562 43.949219 41.199219 C 43.984375 41.21875 44.015625 41.234375 44.050781 41.25 C 44.082031 41.351562 44.082031 41.351562 44.101562 41.449219 C 44.132812 41.449219 44.164062 41.449219 44.199219 41.449219 C 44.207031 41.5 44.207031 41.5 44.214844 41.546875 C 44.226562 41.578125 44.238281 41.617188 44.25 41.648438 C 44.296875 41.664062 44.351562 41.683594 44.398438 41.699219 C 44.417969 41.765625 44.433594 41.835938 44.449219 41.898438 C 44.507812 41.988281 44.570312 42.074219 44.636719 42.160156 C 44.65625 42.1875 44.675781 42.210938 44.695312 42.234375 C 44.765625 42.324219 44.832031 42.414062 44.898438 42.5 C 45.007812 42.644531 45.121094 42.789062 45.230469 42.929688 C 45.257812 42.96875 45.289062 43.003906 45.316406 43.039062 C 45.496094 43.277344 45.671875 43.515625 45.835938 43.761719 C 45.898438 43.855469 45.898438 43.855469 46 43.949219 C 46.101562 44.050781 46.101562 44.050781 46.148438 44.152344 C 46.195312 44.265625 46.195312 44.265625 46.351562 44.300781 C 46.367188 44.351562 46.382812 44.398438 46.398438 44.449219 C 46.433594 44.46875 46.46875 44.484375 46.5 44.5 C 46.515625 44.566406 46.53125 44.632812 46.550781 44.699219 C 46.632812 44.820312 46.71875 44.9375 46.804688 45.050781 C 46.859375 45.121094 46.914062 45.191406 46.96875 45.265625 C 47 45.300781 47.027344 45.339844 47.054688 45.378906 C 47.222656 45.59375 47.386719 45.8125 47.550781 46.035156 C 47.855469 46.460938 47.855469 46.460938 48.199219 46.851562 C 48.234375 46.914062 48.265625 46.984375 48.300781 47.050781 C 48.332031 47.050781 48.367188 47.050781 48.398438 47.050781 C 48.414062 47.117188 48.433594 47.179688 48.449219 47.25 C 48.484375 47.25 48.515625 47.25 48.550781 47.25 C 48.558594 47.296875 48.558594 47.296875 48.566406 47.347656 C 48.578125 47.382812 48.585938 47.414062 48.601562 47.449219 C 48.648438 47.46875 48.699219 47.484375 48.75 47.5 C 48.757812 47.527344 48.765625 47.554688 48.769531 47.585938 C 48.8125 47.753906 48.921875 47.871094 49.027344 48.007812 C 49.25 48.289062 49.25 48.289062 49.25 48.398438 C 43.441406 48.398438 37.632812 48.398438 31.648438 48.398438 C 31.742188 48.171875 31.816406 48.054688 31.972656 47.875 C 32.140625 47.675781 32.28125 47.484375 32.398438 47.25 C 32.4375 47.210938 32.476562 47.171875 32.519531 47.132812 C 32.679688 46.96875 32.777344 46.820312 32.851562 46.601562 C 32.898438 46.585938 32.949219 46.566406 33 46.550781 C 33.015625 46.5 33.03125 46.453125 33.050781 46.398438 C 33.082031 46.367188 33.117188 46.335938 33.148438 46.300781 C 33.21875 46.210938 33.28125 46.121094 33.351562 46.03125 C 33.472656 45.867188 33.601562 45.710938 33.730469 45.550781 C 33.953125 45.277344 34.164062 45 34.375 44.722656 C 34.398438 44.6875 34.421875 44.65625 34.449219 44.625 C 34.714844 44.28125 34.714844 44.28125 34.898438 43.898438 C 34.949219 43.882812 35 43.867188 35.050781 43.851562 C 35.066406 43.800781 35.082031 43.75 35.101562 43.699219 C 35.132812 43.667969 35.164062 43.632812 35.199219 43.601562 C 35.234375 43.550781 35.265625 43.5 35.300781 43.449219 C 35.332031 43.398438 35.367188 43.351562 35.398438 43.300781 C 35.433594 43.300781 35.46875 43.300781 35.5 43.300781 C 35.5 43.25 35.5 43.203125 35.5 43.148438 C 35.558594 43.089844 35.617188 43.03125 35.675781 42.976562 C 35.8125 42.835938 35.929688 42.671875 36.042969 42.511719 C 36.234375 42.25 36.429688 42 36.640625 41.753906 C 36.726562 41.601562 36.742188 41.476562 36.75 41.300781 C 36.6875 41.171875 36.6875 41.171875 36.574219 41.066406 C 36.339844 40.796875 36.125 40.523438 35.914062 40.238281 C 35.882812 40.195312 35.851562 40.152344 35.816406 40.109375 C 35.679688 39.921875 35.539062 39.738281 35.40625 39.550781 C 35.308594 39.402344 35.308594 39.402344 35.199219 39.300781 C 35.101562 39.199219 35.101562 39.199219 35.054688 39.097656 C 35.003906 38.984375 35.003906 38.984375 34.851562 38.949219 C 34.820312 38.859375 34.820312 38.859375 34.800781 38.75 C 34.75 38.664062 34.75 38.664062 34.679688 38.578125 C 34.65625 38.546875 34.632812 38.515625 34.609375 38.480469 C 34.582031 38.445312 34.554688 38.414062 34.527344 38.378906 C 34.5 38.34375 34.476562 38.304688 34.445312 38.273438 C 34.367188 38.164062 34.28125 38.054688 34.199219 37.949219 C 34.175781 37.921875 34.152344 37.890625 34.128906 37.859375 C 34.023438 37.722656 33.921875 37.585938 33.816406 37.453125 C 33.667969 37.257812 33.523438 37.054688 33.378906 36.859375 C 33.300781 36.746094 33.300781 36.746094 33.199219 36.648438 C 33.101562 36.554688 33.054688 36.472656 33 36.351562 C 32.96875 36.351562 32.933594 36.351562 32.898438 36.351562 C 32.882812 36.28125 32.867188 36.21875 32.851562 36.148438 C 32.816406 36.148438 32.78125 36.148438 32.75 36.148438 C 32.742188 36.101562 32.742188 36.101562 32.734375 36.054688 C 32.722656 36.019531 32.710938 35.984375 32.699219 35.949219 C 32.648438 35.933594 32.601562 35.917969 32.550781 35.898438 C 32.53125 35.835938 32.515625 35.765625 32.5 35.699219 C 32.4375 35.609375 32.371094 35.515625 32.304688 35.429688 C 32.28125 35.402344 32.265625 35.375 32.242188 35.351562 C 32.203125 35.296875 32.15625 35.242188 32.117188 35.1875 C 32.046875 35.101562 31.984375 35.011719 31.914062 34.925781 C 31.679688 34.617188 31.679688 34.617188 31.4375 34.3125 C 31.351562 34.199219 31.351562 34.199219 31.351562 34.101562 C 31.300781 34.085938 31.25 34.066406 31.199219 34.050781 C 31.199219 34.015625 31.199219 33.984375 31.199219 33.949219 C 31.167969 33.917969 31.132812 33.882812 31.101562 33.851562 C 31 33.75 31 33.75 30.953125 33.648438 C 30.90625 33.53125 30.90625 33.53125 30.75 33.5 C 30.722656 33.40625 30.722656 33.40625 30.699219 33.300781 C 30.617188 33.179688 30.53125 33.0625 30.441406 32.945312 C 30.398438 32.890625 30.398438 32.890625 30.359375 32.835938 C 30.125 32.53125 29.882812 32.222656 29.644531 31.914062 C 29.460938 31.679688 29.28125 31.4375 29.109375 31.1875 C 29.046875 31.09375 29.046875 31.09375 28.949219 31 C 28.851562 30.898438 28.851562 30.898438 28.804688 30.796875 C 28.753906 30.683594 28.753906 30.683594 28.601562 30.648438 C 28.59375 30.617188 28.585938 30.589844 28.578125 30.558594 C 28.539062 30.414062 28.460938 30.351562 28.351562 30.25 C 28.316406 30.234375 28.28125 30.21875 28.25 30.199219 C 28.242188 30.171875 28.234375 30.140625 28.226562 30.109375 C 28.195312 29.976562 28.140625 29.902344 28.058594 29.792969 C 28.03125 29.753906 28 29.714844 27.96875 29.675781 C 27.9375 29.632812 27.90625 29.59375 27.875 29.550781 C 27.828125 29.484375 27.828125 29.484375 27.78125 29.421875 C 27.71875 29.335938 27.652344 29.25 27.585938 29.167969 C 27.511719 29.0625 27.433594 28.960938 27.359375 28.859375 C 27.164062 28.59375 27.164062 28.59375 26.949219 28.351562 C 26.851562 28.25 26.804688 28.171875 26.75 28.050781 C 26.71875 28.050781 26.683594 28.050781 26.648438 28.050781 C 26.632812 27.984375 26.617188 27.917969 26.601562 27.851562 C 26.566406 27.851562 26.53125 27.851562 26.5 27.851562 C 26.492188 27.804688 26.492188 27.804688 26.484375 27.753906 C 26.472656 27.71875 26.460938 27.6875 26.449219 27.648438 C 26.398438 27.632812 26.351562 27.617188 26.300781 27.601562 C 26.28125 27.53125 26.265625 27.46875 26.25 27.398438 C 26.1875 27.304688 26.121094 27.21875 26.054688 27.128906 C 26.023438 27.089844 26.023438 27.089844 25.992188 27.050781 C 25.953125 26.992188 25.90625 26.9375 25.867188 26.882812 C 25.796875 26.796875 25.734375 26.710938 25.664062 26.625 C 25.429688 26.3125 25.429688 26.3125 25.1875 26.011719 C 25.101562 25.898438 25.101562 25.898438 25.101562 25.800781 C 25.03125 25.800781 24.96875 25.800781 24.898438 25.800781 C 24.886719 25.828125 24.875 25.855469 24.859375 25.882812 C 24.789062 26.023438 24.703125 26.140625 24.605469 26.261719 C 24.566406 26.3125 24.527344 26.367188 24.484375 26.421875 C 24.414062 26.515625 24.34375 26.609375 24.273438 26.703125 C 24.1875 26.8125 24.109375 26.917969 24.023438 27.023438 C 24 27.058594 23.972656 27.09375 23.945312 27.128906 C 23.921875 27.160156 23.898438 27.195312 23.871094 27.226562 C 23.847656 27.257812 23.828125 27.28125 23.804688 27.3125 C 23.742188 27.398438 23.742188 27.398438 23.726562 27.507812 C 23.71875 27.539062 23.710938 27.570312 23.699219 27.601562 C 23.648438 27.617188 23.601562 27.632812 23.550781 27.648438 C 23.53125 27.699219 23.515625 27.75 23.5 27.800781 C 23.46875 27.832031 23.433594 27.867188 23.398438 27.898438 C 23.382812 27.933594 23.367188 27.96875 23.351562 28 C 23.316406 28.03125 23.28125 28.066406 23.25 28.101562 C 23.234375 28.132812 23.21875 28.164062 23.199219 28.199219 C 23.167969 28.234375 23.132812 28.265625 23.101562 28.300781 C 23.054688 28.359375 23.007812 28.421875 22.964844 28.480469 C 22.804688 28.695312 22.636719 28.914062 22.46875 29.125 C 22.230469 29.429688 21.992188 29.734375 21.757812 30.042969 C 21.734375 30.078125 21.710938 30.109375 21.679688 30.144531 C 21.550781 30.3125 21.550781 30.3125 21.476562 30.507812 C 21.46875 30.539062 21.460938 30.570312 21.449219 30.601562 C 21.398438 30.617188 21.351562 30.632812 21.300781 30.648438 C 21.28125 30.699219 21.265625 30.75 21.25 30.800781 C 21.21875 30.832031 21.183594 30.867188 21.148438 30.898438 C 21.132812 30.949219 21.117188 31 21.101562 31.050781 C 21.066406 31.066406 21.03125 31.082031 21 31.101562 C 20.953125 31.15625 20.90625 31.21875 20.867188 31.273438 C 20.757812 31.421875 20.648438 31.570312 20.53125 31.714844 C 20.507812 31.75 20.476562 31.789062 20.445312 31.824219 C 20.417969 31.859375 20.390625 31.898438 20.359375 31.9375 C 20.265625 32.054688 20.175781 32.171875 20.085938 32.289062 C 20.03125 32.359375 19.976562 32.429688 19.925781 32.496094 C 19.859375 32.578125 19.796875 32.664062 19.734375 32.742188 C 19.699219 32.789062 19.664062 32.835938 19.628906 32.882812 C 19.546875 32.992188 19.546875 32.992188 19.523438 33.113281 C 19.511719 33.15625 19.511719 33.15625 19.5 33.199219 C 19.453125 33.21875 19.398438 33.234375 19.351562 33.25 C 19.335938 33.296875 19.316406 33.351562 19.300781 33.398438 C 19.265625 33.433594 19.234375 33.46875 19.199219 33.5 C 19.183594 33.546875 19.167969 33.601562 19.148438 33.648438 C 19.101562 33.664062 19.050781 33.683594 19 33.699219 C 18.984375 33.75 18.96875 33.796875 18.949219 33.851562 C 18.917969 33.882812 18.882812 33.914062 18.851562 33.949219 C 18.835938 33.984375 18.816406 34.015625 18.800781 34.050781 C 18.734375 34.132812 18.667969 34.21875 18.601562 34.300781 C 18.304688 34.671875 18.007812 35.050781 17.71875 35.429688 C 17.695312 35.464844 17.664062 35.5 17.640625 35.53125 C 17.617188 35.5625 17.59375 35.597656 17.566406 35.632812 C 17.546875 35.65625 17.523438 35.6875 17.5 35.714844 C 17.445312 35.796875 17.445312 35.796875 17.429688 35.90625 C 17.417969 35.9375 17.410156 35.96875 17.398438 36 C 17.351562 36.015625 17.300781 36.03125 17.25 36.050781 C 17.234375 36.101562 17.21875 36.148438 17.199219 36.199219 C 17.167969 36.234375 17.132812 36.265625 17.101562 36.300781 C 17.085938 36.332031 17.066406 36.367188 17.050781 36.398438 C 17.015625 36.433594 16.984375 36.46875 16.949219 36.5 C 16.933594 36.53125 16.917969 36.566406 16.898438 36.601562 C 16.867188 36.632812 16.835938 36.664062 16.800781 36.699219 C 16.753906 36.757812 16.710938 36.820312 16.664062 36.878906 C 16.5 37.101562 16.328125 37.320312 16.160156 37.539062 C 16.070312 37.65625 15.976562 37.773438 15.882812 37.890625 C 15.832031 37.960938 15.777344 38.027344 15.726562 38.09375 C 15.660156 38.179688 15.597656 38.261719 15.535156 38.34375 C 15.5 38.390625 15.464844 38.433594 15.429688 38.480469 C 15.355469 38.59375 15.328125 38.671875 15.300781 38.800781 C 15.265625 38.816406 15.234375 38.832031 15.199219 38.851562 C 15.183594 38.898438 15.167969 38.949219 15.148438 39 C 15.101562 39.015625 15.050781 39.03125 15 39.050781 C 14.984375 39.101562 14.96875 39.148438 14.949219 39.199219 C 14.917969 39.234375 14.882812 39.265625 14.851562 39.300781 C 14.796875 39.367188 14.75 39.433594 14.699219 39.5 C 14.515625 39.742188 14.335938 39.984375 14.148438 40.226562 C 14.054688 40.34375 13.96875 40.457031 13.875 40.574219 C 13.769531 40.710938 13.660156 40.847656 13.550781 40.984375 C 13.519531 41.023438 13.519531 41.023438 13.484375 41.0625 C 13.429688 41.132812 13.371094 41.203125 13.3125 41.273438 C 13.234375 41.398438 13.234375 41.398438 13.289062 41.519531 C 13.347656 41.644531 13.414062 41.742188 13.5 41.851562 C 13.523438 41.886719 13.554688 41.921875 13.585938 41.960938 C 13.632812 42.019531 13.632812 42.019531 13.679688 42.078125 C 13.742188 42.15625 13.804688 42.238281 13.867188 42.320312 C 13.898438 42.359375 13.929688 42.398438 13.960938 42.4375 C 14.082031 42.589844 14.203125 42.742188 14.320312 42.898438 C 14.371094 42.96875 14.371094 42.96875 14.425781 43.039062 C 14.5 43.148438 14.5 43.148438 14.5 43.25 C 14.546875 43.265625 14.601562 43.28125 14.648438 43.300781 C 14.683594 43.367188 14.714844 43.433594 14.742188 43.503906 C 14.796875 43.617188 14.796875 43.617188 14.949219 43.648438 C 14.957031 43.679688 14.964844 43.710938 14.972656 43.742188 C 15.007812 43.890625 15.085938 43.953125 15.199219 44.050781 C 15.234375 44.066406 15.265625 44.082031 15.300781 44.101562 C 15.316406 44.148438 15.332031 44.199219 15.351562 44.25 C 15.382812 44.265625 15.414062 44.28125 15.449219 44.300781 C 15.46875 44.367188 15.484375 44.433594 15.5 44.5 C 15.585938 44.621094 15.671875 44.738281 15.761719 44.855469 C 15.9375 45.085938 16.113281 45.316406 16.28125 45.554688 C 16.3125 45.59375 16.339844 45.632812 16.367188 45.679688 C 16.429688 45.757812 16.484375 45.839844 16.539062 45.921875 C 16.578125 45.976562 16.578125 45.976562 16.617188 46.03125 C 16.640625 46.0625 16.664062 46.09375 16.6875 46.132812 C 16.710938 46.152344 16.726562 46.175781 16.75 46.199219 C 16.78125 46.199219 16.816406 46.199219 16.851562 46.199219 C 16.855469 46.234375 16.859375 46.265625 16.867188 46.296875 C 16.875 46.328125 16.890625 46.367188 16.898438 46.398438 C 16.949219 46.414062 17 46.433594 17.050781 46.449219 C 17.066406 46.5 17.082031 46.546875 17.101562 46.601562 C 17.132812 46.617188 17.164062 46.632812 17.199219 46.648438 C 17.203125 46.679688 17.210938 46.703125 17.21875 46.734375 C 17.265625 46.902344 17.367188 47.023438 17.472656 47.164062 C 17.492188 47.1875 17.511719 47.21875 17.53125 47.246094 C 17.585938 47.316406 17.640625 47.382812 17.699219 47.449219 C 17.734375 47.449219 17.765625 47.449219 17.800781 47.449219 C 17.804688 47.480469 17.8125 47.507812 17.820312 47.539062 C 17.867188 47.714844 17.992188 47.84375 18.101562 47.980469 C 18.351562 48.289062 18.351562 48.289062 18.351562 48.398438 C 12.542969 48.398438 6.734375 48.398438 0.75 48.398438 C 0.875 48.15625 1.03125 47.953125 1.199219 47.738281 C 1.304688 47.605469 1.304688 47.605469 1.351562 47.449219 C 1.382812 47.417969 1.414062 47.382812 1.449219 47.351562 C 1.46875 47.316406 1.484375 47.28125 1.5 47.25 C 1.53125 47.21875 1.566406 47.183594 1.601562 47.148438 C 1.617188 47.117188 1.632812 47.085938 1.648438 47.050781 C 1.683594 47.015625 1.71875 46.984375 1.75 46.949219 C 1.765625 46.917969 1.78125 46.882812 1.800781 46.851562 C 1.832031 46.816406 1.867188 46.78125 1.898438 46.75 C 1.941406 46.695312 1.984375 46.640625 2.023438 46.585938 C 2.140625 46.429688 2.257812 46.273438 2.378906 46.125 C 2.640625 45.789062 2.898438 45.453125 3.15625 45.117188 C 3.1875 45.078125 3.222656 45.03125 3.257812 44.988281 C 3.289062 44.945312 3.320312 44.90625 3.351562 44.863281 C 3.378906 44.828125 3.40625 44.789062 3.433594 44.753906 C 3.507812 44.65625 3.507812 44.65625 3.523438 44.539062 C 3.53125 44.507812 3.539062 44.480469 3.550781 44.449219 C 3.601562 44.433594 3.648438 44.417969 3.699219 44.398438 C 3.71875 44.351562 3.734375 44.300781 3.75 44.25 C 3.78125 44.21875 3.816406 44.183594 3.851562 44.148438 C 3.867188 44.101562 3.882812 44.050781 3.898438 44 C 3.933594 43.984375 3.96875 43.96875 4 43.949219 C 4.046875 43.890625 4.09375 43.835938 4.132812 43.773438 C 4.242188 43.625 4.351562 43.480469 4.46875 43.335938 C 4.492188 43.296875 4.523438 43.261719 4.554688 43.226562 C 4.582031 43.1875 4.609375 43.148438 4.640625 43.113281 C 4.734375 42.992188 4.824219 42.875 4.914062 42.757812 C 4.96875 42.691406 5.023438 42.625 5.078125 42.554688 C 5.140625 42.46875 5.203125 42.390625 5.265625 42.304688 C 5.300781 42.261719 5.335938 42.214844 5.371094 42.171875 C 5.445312 42.054688 5.46875 41.976562 5.5 41.851562 C 5.53125 41.835938 5.566406 41.816406 5.601562 41.800781 C 5.617188 41.75 5.632812 41.703125 5.648438 41.648438 C 5.699219 41.632812 5.75 41.617188 5.800781 41.601562 C 5.816406 41.550781 5.832031 41.5 5.851562 41.449219 C 5.882812 41.417969 5.914062 41.382812 5.949219 41.351562 C 5.984375 41.300781 6.015625 41.25 6.050781 41.199219 C 6.125 41.09375 6.203125 40.996094 6.285156 40.894531 C 6.53125 40.585938 6.773438 40.273438 7.015625 39.960938 C 7.070312 39.890625 7.121094 39.820312 7.175781 39.75 C 7.242188 39.671875 7.304688 39.585938 7.367188 39.507812 C 7.398438 39.460938 7.4375 39.414062 7.46875 39.367188 C 7.546875 39.257812 7.570312 39.179688 7.601562 39.050781 C 7.632812 39.03125 7.664062 39.015625 7.699219 39 C 7.71875 38.953125 7.734375 38.898438 7.75 38.851562 C 7.796875 38.835938 7.851562 38.816406 7.898438 38.800781 C 7.914062 38.75 7.933594 38.703125 7.949219 38.648438 C 7.984375 38.617188 8.015625 38.585938 8.050781 38.550781 C 8.066406 38.515625 8.082031 38.484375 8.101562 38.449219 C 8.132812 38.417969 8.164062 38.382812 8.199219 38.351562 C 8.21875 38.304688 8.21875 38.304688 8.242188 38.257812 C 8.300781 38.148438 8.300781 38.148438 8.40625 38.046875 C 8.605469 37.851562 8.765625 37.621094 8.9375 37.398438 C 8.972656 37.351562 9.007812 37.304688 9.046875 37.257812 C 9.117188 37.164062 9.183594 37.070312 9.253906 36.976562 C 9.335938 36.867188 9.417969 36.761719 9.5 36.65625 C 9.539062 36.601562 9.578125 36.550781 9.621094 36.496094 C 9.65625 36.453125 9.6875 36.40625 9.726562 36.363281 C 9.796875 36.253906 9.820312 36.175781 9.851562 36.050781 C 9.882812 36.03125 9.914062 36.015625 9.949219 36 C 9.96875 35.953125 9.984375 35.898438 10 35.851562 C 10.046875 35.835938 10.101562 35.816406 10.148438 35.800781 C 10.164062 35.75 10.183594 35.703125 10.199219 35.648438 C 10.234375 35.617188 10.265625 35.585938 10.300781 35.550781 C 10.34375 35.492188 10.390625 35.429688 10.4375 35.371094 C 10.597656 35.152344 10.765625 34.9375 10.929688 34.726562 C 11.171875 34.421875 11.40625 34.113281 11.640625 33.804688 C 11.664062 33.773438 11.691406 33.742188 11.71875 33.707031 C 11.851562 33.539062 11.851562 33.539062 11.921875 33.34375 C 11.929688 33.3125 11.941406 33.28125 11.949219 33.25 C 12 33.234375 12.046875 33.21875 12.101562 33.199219 C 12.117188 33.148438 12.132812 33.101562 12.148438 33.050781 C 12.183594 33.015625 12.21875 32.984375 12.25 32.949219 C 12.265625 32.898438 12.28125 32.851562 12.300781 32.800781 C 12.332031 32.78125 12.367188 32.765625 12.398438 32.75 C 12.421875 32.707031 12.449219 32.664062 12.476562 32.621094 C 12.5 32.582031 12.523438 32.539062 12.550781 32.5 C 12.582031 32.5 12.617188 32.5 12.648438 32.5 C 12.664062 32.46875 12.679688 32.445312 12.691406 32.414062 C 12.75 32.296875 12.820312 32.195312 12.898438 32.09375 C 12.929688 32.050781 12.960938 32.011719 12.992188 31.96875 C 13.023438 31.929688 13.054688 31.882812 13.089844 31.839844 C 13.125 31.796875 13.15625 31.75 13.191406 31.707031 C 13.359375 31.488281 13.523438 31.269531 13.691406 31.054688 C 13.722656 31.015625 13.75 30.976562 13.78125 30.9375 C 13.839844 30.863281 13.898438 30.789062 13.953125 30.71875 C 13.992188 30.671875 13.992188 30.671875 14.03125 30.621094 C 14.0625 30.578125 14.0625 30.578125 14.09375 30.535156 C 14.15625 30.453125 14.15625 30.453125 14.171875 30.34375 C 14.179688 30.3125 14.191406 30.28125 14.199219 30.25 C 14.25 30.234375 14.296875 30.21875 14.351562 30.199219 C 14.367188 30.148438 14.382812 30.101562 14.398438 30.050781 C 14.464844 29.984375 14.53125 29.914062 14.601562 29.851562 C 14.65625 29.773438 14.710938 29.703125 14.765625 29.625 C 14.90625 29.429688 15.046875 29.238281 15.191406 29.046875 C 15.226562 29.003906 15.257812 28.960938 15.292969 28.914062 C 15.359375 28.824219 15.429688 28.734375 15.5 28.644531 C 15.53125 28.601562 15.5625 28.5625 15.59375 28.519531 C 15.625 28.484375 15.652344 28.445312 15.679688 28.40625 C 15.75 28.300781 15.773438 28.21875 15.800781 28.101562 C 15.832031 28.085938 15.867188 28.066406 15.898438 28.050781 C 15.914062 28 15.933594 27.953125 15.949219 27.898438 C 16 27.882812 16.046875 27.867188 16.101562 27.851562 C 16.117188 27.78125 16.132812 27.71875 16.148438 27.648438 C 16.183594 27.632812 16.21875 27.617188 16.25 27.601562 C 16.265625 27.550781 16.28125 27.5 16.300781 27.449219 C 16.351562 27.433594 16.398438 27.417969 16.449219 27.398438 C 16.449219 27.367188 16.449219 27.335938 16.449219 27.300781 C 16.53125 27.21875 16.617188 27.132812 16.699219 27.050781 C 16.773438 26.949219 16.851562 26.84375 16.921875 26.742188 C 17.152344 26.410156 17.398438 26.089844 17.648438 25.773438 C 18.003906 25.34375 18.003906 25.34375 18.25 24.851562 C 18.296875 24.835938 18.351562 24.816406 18.398438 24.800781 C 18.414062 24.75 18.433594 24.703125 18.449219 24.648438 C 18.484375 24.617188 18.515625 24.585938 18.550781 24.550781 C 18.566406 24.515625 18.582031 24.484375 18.601562 24.449219 C 18.632812 24.417969 18.664062 24.382812 18.699219 24.351562 C 18.710938 24.320312 18.726562 24.289062 18.742188 24.257812 C 18.800781 24.148438 18.800781 24.148438 18.910156 24.042969 C 19.070312 23.875 19.207031 23.699219 19.34375 23.511719 C 19.398438 23.441406 19.449219 23.367188 19.5 23.296875 C 19.527344 23.265625 19.554688 23.230469 19.578125 23.195312 C 19.695312 23.039062 19.816406 22.886719 19.9375 22.734375 C 20.007812 22.644531 20.007812 22.644531 20.050781 22.5 C 20.132812 22.414062 20.21875 22.332031 20.300781 22.25 C 20.382812 22.148438 20.460938 22.046875 20.539062 21.941406 C 20.578125 21.890625 20.617188 21.835938 20.660156 21.78125 C 20.757812 21.664062 20.757812 21.664062 20.75 21.550781 C 20.808594 21.492188 20.867188 21.429688 20.929688 21.375 C 21.058594 21.242188 21.164062 21.085938 21.277344 20.933594 C 21.328125 20.863281 21.382812 20.792969 21.4375 20.71875 C 21.460938 20.6875 21.492188 20.648438 21.515625 20.609375 C 21.601562 20.5 21.6875 20.390625 21.773438 20.277344 C 21.8125 20.222656 21.8125 20.222656 21.851562 20.167969 C 21.90625 20.101562 21.960938 20.03125 22.015625 19.960938 C 22.046875 19.914062 22.046875 19.914062 22.085938 19.867188 C 22.105469 19.839844 22.125 19.8125 22.148438 19.78125 C 22.207031 19.703125 22.207031 19.703125 22.222656 19.59375 C 22.234375 19.5625 22.242188 19.53125 22.25 19.5 C 22.296875 19.484375 22.351562 19.46875 22.398438 19.449219 C 22.414062 19.398438 22.433594 19.351562 22.449219 19.300781 C 22.484375 19.265625 22.515625 19.234375 22.550781 19.199219 C 22.566406 19.148438 22.582031 19.101562 22.601562 19.050781 C 22.632812 19.03125 22.664062 19.015625 22.699219 19 C 22.75 18.9375 22.796875 18.878906 22.839844 18.816406 C 22.96875 18.636719 23.109375 18.46875 23.25 18.300781 C 23.078125 18.242188 22.90625 18.1875 22.730469 18.132812 C 22.683594 18.117188 22.632812 18.101562 22.585938 18.085938 C 22.273438 17.984375 21.96875 17.90625 21.648438 17.851562 C 21.648438 17.816406 21.648438 17.78125 21.648438 17.75 C 21.589844 17.734375 21.53125 17.722656 21.46875 17.710938 C 21.28125 17.664062 21.117188 17.59375 20.949219 17.5 C 20.949219 17.46875 20.949219 17.433594 20.949219 17.398438 C 20.902344 17.390625 20.855469 17.382812 20.804688 17.371094 C 20.539062 17.296875 20.3125 17.125 20.101562 16.949219 C 20.085938 16.917969 20.066406 16.882812 20.050781 16.851562 C 20.015625 16.835938 19.984375 16.816406 19.949219 16.800781 C 19.917969 16.765625 19.882812 16.734375 19.851562 16.699219 C 19.804688 16.660156 19.757812 16.617188 19.707031 16.578125 C 19.53125 16.429688 19.355469 16.269531 19.183594 16.113281 C 19.144531 16.078125 19.144531 16.078125 19.101562 16.039062 C 18.964844 15.914062 18.832031 15.78125 18.699219 15.648438 C 18.609375 15.546875 18.609375 15.546875 18.5 15.5 C 18.492188 15.46875 18.484375 15.433594 18.476562 15.398438 C 18.46875 15.367188 18.460938 15.335938 18.449219 15.300781 C 18.398438 15.28125 18.351562 15.265625 18.300781 15.25 C 18.265625 15.148438 18.265625 15.148438 18.25 15.050781 C 18.21875 15.050781 18.183594 15.050781 18.148438 15.050781 C 18.144531 15.023438 18.140625 14.992188 18.132812 14.960938 C 18.097656 14.84375 18.054688 14.761719 17.984375 14.65625 C 17.964844 14.621094 17.941406 14.585938 17.917969 14.546875 C 17.890625 14.507812 17.867188 14.46875 17.84375 14.429688 C 17.222656 13.425781 16.8125 12.375 16.648438 11.199219 C 16.632812 11.101562 16.617188 11 16.601562 10.898438 C 16.585938 10.898438 16.566406 10.898438 16.550781 10.898438 C 16.550781 10.320312 16.550781 9.742188 16.550781 9.148438 C 16.566406 9.148438 16.582031 9.148438 16.601562 9.148438 C 16.601562 9.117188 16.609375 9.085938 16.613281 9.054688 C 16.773438 7.933594 17.089844 6.960938 17.601562 5.949219 C 17.628906 5.894531 17.65625 5.835938 17.6875 5.78125 C 17.707031 5.734375 17.726562 5.695312 17.75 5.648438 C 17.765625 5.617188 17.78125 5.585938 17.800781 5.550781 C 17.832031 5.511719 17.863281 5.46875 17.898438 5.429688 C 18.007812 5.289062 18.078125 5.15625 18.148438 4.992188 C 18.199219 4.898438 18.199219 4.898438 18.351562 4.851562 C 18.359375 4.820312 18.367188 4.785156 18.371094 4.753906 C 18.398438 4.648438 18.398438 4.648438 18.503906 4.585938 C 18.535156 4.574219 18.566406 4.5625 18.601562 4.550781 C 18.601562 4.515625 18.601562 4.484375 18.601562 4.449219 C 18.671875 4.375 18.671875 4.375 18.773438 4.292969 C 18.929688 4.164062 19.078125 4.03125 19.222656 3.886719 C 19.253906 3.855469 19.289062 3.820312 19.320312 3.789062 C 19.410156 3.699219 19.410156 3.699219 19.449219 3.550781 C 19.484375 3.542969 19.515625 3.535156 19.546875 3.527344 C 19.578125 3.519531 19.617188 3.507812 19.648438 3.5 C 19.6875 3.433594 19.71875 3.367188 19.75 3.300781 C 19.824219 3.273438 19.824219 3.273438 19.898438 3.25 C 19.9375 3.210938 19.976562 3.171875 20.015625 3.132812 C 20.179688 2.972656 20.335938 2.820312 20.570312 2.78125 C 20.726562 2.742188 20.832031 2.679688 20.96875 2.589844 C 21.367188 2.351562 21.796875 2.164062 22.242188 2.046875 C 22.296875 2.03125 22.347656 2.015625 22.398438 2 C 22.414062 1.96875 22.433594 1.933594 22.449219 1.898438 C 22.554688 1.878906 22.554688 1.878906 22.679688 1.867188 C 22.71875 1.867188 22.761719 1.859375 22.804688 1.859375 C 22.835938 1.855469 22.867188 1.851562 22.898438 1.851562 C 22.898438 1.816406 22.898438 1.78125 22.898438 1.75 C 23.0625 1.71875 23.226562 1.6875 23.394531 1.652344 C 23.4375 1.644531 23.484375 1.632812 23.53125 1.625 C 24.792969 1.382812 26.425781 1.351562 27.601562 1.949219 Z M 24.5 1.550781 C 24.5 1.566406 24.5 1.582031 24.5 1.601562 C 24.828125 1.601562 25.160156 1.601562 25.5 1.601562 C 25.5 1.585938 25.5 1.566406 25.5 1.550781 C 25.171875 1.550781 24.839844 1.550781 24.5 1.550781 Z M 24 1.601562 C 24 1.617188 24 1.632812 24 1.648438 C 24.148438 1.648438 24.296875 1.648438 24.449219 1.648438 C 24.449219 1.632812 24.449219 1.617188 24.449219 1.601562 C 24.300781 1.601562 24.152344 1.601562 24 1.601562 Z M 25.550781 1.601562 C 25.550781 1.617188 25.550781 1.632812 25.550781 1.648438 C 25.699219 1.648438 25.847656 1.648438 26 1.648438 C 26 1.632812 26 1.617188 26 1.601562 C 25.851562 1.601562 25.703125 1.601562 25.550781 1.601562 Z M 23.648438 1.648438 C 23.648438 1.664062 23.648438 1.683594 23.648438 1.699219 C 23.75 1.699219 23.847656 1.699219 23.949219 1.699219 C 23.949219 1.683594 23.949219 1.667969 23.949219 1.648438 C 23.851562 1.648438 23.75 1.648438 23.648438 1.648438 Z M 26.050781 1.648438 C 26.050781 1.664062 26.050781 1.683594 26.050781 1.699219 C 26.148438 1.699219 26.25 1.699219 26.351562 1.699219 C 26.351562 1.683594 26.351562 1.667969 26.351562 1.648438 C 26.25 1.648438 26.152344 1.648438 26.050781 1.648438 Z M 23.398438 1.699219 C 23.601562 1.75 23.601562 1.75 23.601562 1.75 Z M 26.398438 1.699219 C 26.398438 1.71875 26.398438 1.734375 26.398438 1.75 C 26.484375 1.75 26.5625 1.75 26.648438 1.75 C 26.648438 1.734375 26.648438 1.71875 26.648438 1.699219 C 26.570312 1.699219 26.484375 1.699219 26.398438 1.699219 Z M 24.601562 7.148438 C 24.601562 7.164062 24.601562 7.183594 24.601562 7.199219 C 24.863281 7.199219 25.128906 7.199219 25.398438 7.199219 C 25.398438 7.183594 25.398438 7.167969 25.398438 7.148438 C 25.136719 7.148438 24.871094 7.148438 24.601562 7.148438 Z M 24.351562 7.199219 C 24.550781 7.25 24.550781 7.25 24.550781 7.25 Z M 25.449219 7.199219 C 25.648438 7.25 25.648438 7.25 25.648438 7.25 Z M 23.453125 7.6875 C 23.351562 7.75 23.265625 7.773438 23.148438 7.800781 C 23.023438 7.90625 23.023438 7.90625 22.898438 8.050781 C 22.875 8.074219 22.851562 8.097656 22.828125 8.125 C 22.28125 8.710938 22.113281 9.453125 22.136719 10.230469 C 22.171875 10.875 22.417969 11.425781 22.851562 11.898438 C 22.875 11.929688 22.898438 11.960938 22.929688 11.992188 C 22.953125 12.023438 22.976562 12.058594 23.007812 12.089844 C 23.03125 12.117188 23.054688 12.148438 23.078125 12.179688 C 23.152344 12.265625 23.152344 12.265625 23.300781 12.300781 C 23.332031 12.332031 23.367188 12.367188 23.398438 12.398438 C 23.632812 12.578125 23.867188 12.671875 24.148438 12.75 C 24.210938 12.765625 24.273438 12.785156 24.335938 12.804688 C 24.554688 12.855469 24.761719 12.867188 24.984375 12.867188 C 25.042969 12.867188 25.042969 12.867188 25.101562 12.867188 C 25.460938 12.859375 25.765625 12.78125 26.101562 12.648438 C 26.140625 12.636719 26.183594 12.621094 26.226562 12.609375 C 26.375 12.554688 26.484375 12.515625 26.601562 12.398438 C 26.699219 12.300781 26.699219 12.300781 26.789062 12.261719 C 26.945312 12.171875 27.039062 12.039062 27.148438 11.898438 C 27.1875 11.859375 27.1875 11.859375 27.222656 11.8125 C 27.769531 11.125 27.929688 10.40625 27.851562 9.550781 C 27.804688 9.320312 27.738281 9.117188 27.648438 8.898438 C 27.632812 8.855469 27.613281 8.8125 27.59375 8.765625 C 27.375 8.273438 27.003906 7.851562 26.5 7.648438 C 26.320312 7.546875 26.148438 7.445312 26 7.300781 C 25.164062 7.09375 24.171875 7.203125 23.453125 7.6875 Z M 36.800781 41.398438 C 36.851562 41.5 36.851562 41.5 36.851562 41.5 Z M 36.800781 41.398438 "/>
<path style=" stroke:none;fill-rule:nonzero;fill:rgb(99.215686%,99.215686%,99.215686%);fill-opacity:1;" d="M 24.949219 18.949219 C 25.140625 19.039062 25.21875 19.125 25.34375 19.296875 C 25.363281 19.320312 25.382812 19.351562 25.398438 19.375 C 25.445312 19.433594 25.484375 19.492188 25.53125 19.554688 C 25.632812 19.695312 25.742188 19.839844 25.84375 19.984375 C 26.054688 20.269531 26.265625 20.554688 26.476562 20.839844 C 26.789062 21.269531 27.109375 21.695312 27.4375 22.109375 C 27.738281 22.5 28.027344 22.890625 28.320312 23.289062 C 28.636719 23.722656 28.960938 24.152344 29.289062 24.582031 C 29.730469 25.15625 30.160156 25.734375 30.585938 26.320312 C 30.90625 26.75 31.222656 27.179688 31.554688 27.601562 C 31.8125 27.929688 32.054688 28.265625 32.296875 28.601562 C 32.574219 28.984375 32.859375 29.359375 33.148438 29.734375 C 33.585938 30.308594 34.019531 30.890625 34.445312 31.472656 C 34.859375 32.03125 35.28125 32.585938 35.703125 33.136719 C 36.390625 34.035156 36.390625 34.035156 36.707031 34.480469 C 36.925781 34.789062 37.15625 35.089844 37.390625 35.390625 C 37.863281 36.015625 38.335938 36.640625 38.796875 37.273438 C 39.113281 37.703125 39.4375 38.125 39.757812 38.550781 C 40.109375 39.007812 40.457031 39.476562 40.800781 39.9375 C 41.109375 40.367188 41.429688 40.785156 41.75 41.203125 C 42.222656 41.828125 42.695312 42.453125 43.15625 43.085938 C 43.40625 43.421875 43.65625 43.757812 43.914062 44.089844 C 44.351562 44.660156 44.78125 45.238281 45.203125 45.820312 C 45.234375 45.855469 45.257812 45.890625 45.289062 45.929688 C 45.3125 45.96875 45.34375 46.003906 45.367188 46.039062 C 45.421875 46.117188 45.480469 46.1875 45.539062 46.265625 C 45.5625 46.296875 45.59375 46.335938 45.621094 46.371094 C 45.648438 46.40625 45.671875 46.4375 45.695312 46.46875 C 45.75 46.550781 45.75 46.550781 45.75 46.648438 C 42.25 46.648438 38.753906 46.648438 35.148438 46.648438 C 35.222656 46.507812 35.28125 46.402344 35.375 46.277344 C 35.402344 46.242188 35.429688 46.210938 35.453125 46.179688 C 35.484375 46.140625 35.507812 46.109375 35.539062 46.070312 C 35.78125 45.757812 36.023438 45.4375 36.257812 45.113281 C 36.535156 44.738281 36.8125 44.367188 37.101562 44 C 37.921875 42.9375 37.921875 42.9375 38.71875 41.859375 C 38.8125 41.734375 38.90625 41.617188 39 41.5 C 38.929688 41.355469 38.855469 41.230469 38.757812 41.101562 C 38.734375 41.0625 38.703125 41.027344 38.675781 40.988281 C 38.644531 40.945312 38.617188 40.90625 38.585938 40.867188 C 38.554688 40.824219 38.523438 40.78125 38.492188 40.738281 C 38.179688 40.320312 37.867188 39.910156 37.550781 39.5 C 37.164062 39 36.785156 38.5 36.417969 37.992188 C 36.175781 37.652344 35.925781 37.320312 35.667969 36.992188 C 35.226562 36.433594 34.804688 35.859375 34.382812 35.289062 C 34.101562 34.898438 33.808594 34.515625 33.511719 34.140625 C 33.273438 33.835938 33.046875 33.527344 32.820312 33.21875 C 32.5625 32.867188 32.304688 32.523438 32.039062 32.179688 C 31.820312 31.890625 31.597656 31.597656 31.378906 31.304688 C 31.203125 31.070312 31.027344 30.835938 30.851562 30.605469 C 30.59375 30.273438 30.335938 29.9375 30.09375 29.589844 C 29.882812 29.289062 29.65625 28.996094 29.425781 28.703125 C 28.984375 28.140625 28.554688 27.5625 28.132812 26.988281 C 27.847656 26.59375 27.554688 26.210938 27.257812 25.828125 C 26.8125 25.265625 26.390625 24.6875 25.964844 24.109375 C 25.664062 23.703125 25.359375 23.300781 25.050781 22.898438 C 24.878906 22.957031 24.851562 23 24.746094 23.140625 C 24.71875 23.179688 24.6875 23.21875 24.65625 23.261719 C 24.609375 23.328125 24.609375 23.328125 24.558594 23.394531 C 24.523438 23.4375 24.492188 23.484375 24.460938 23.53125 C 24.355469 23.671875 24.25 23.8125 24.148438 23.949219 C 24.035156 24.109375 23.917969 24.265625 23.804688 24.421875 C 23.773438 24.460938 23.746094 24.5 23.71875 24.539062 C 23.464844 24.882812 23.210938 25.21875 22.953125 25.554688 C 22.472656 26.179688 22 26.8125 21.535156 27.445312 C 21.285156 27.789062 21.03125 28.121094 20.773438 28.453125 C 20.203125 29.195312 20.203125 29.195312 19.648438 29.949219 C 19.414062 30.289062 19.164062 30.617188 18.914062 30.941406 C 18.4375 31.5625 17.96875 32.191406 17.503906 32.820312 C 17.1875 33.25 16.867188 33.675781 16.539062 34.101562 C 16.15625 34.601562 15.777344 35.109375 15.402344 35.621094 C 15.15625 35.960938 14.90625 36.292969 14.648438 36.625 C 14.195312 37.21875 13.746094 37.820312 13.304688 38.421875 C 13.019531 38.804688 12.734375 39.1875 12.441406 39.570312 C 12.210938 39.867188 11.984375 40.171875 11.757812 40.476562 C 11.640625 40.625 11.53125 40.777344 11.414062 40.921875 C 11.390625 40.953125 11.367188 40.976562 11.34375 41.007812 C 11.289062 41.078125 11.230469 41.148438 11.171875 41.222656 C 11.085938 41.34375 11.085938 41.34375 11.113281 41.46875 C 11.148438 41.605469 11.195312 41.6875 11.28125 41.796875 C 11.304688 41.832031 11.335938 41.867188 11.363281 41.90625 C 11.390625 41.945312 11.421875 41.984375 11.453125 42.023438 C 11.484375 42.066406 11.515625 42.109375 11.546875 42.148438 C 11.648438 42.285156 11.75 42.417969 11.851562 42.550781 C 11.882812 42.59375 11.914062 42.636719 11.949219 42.679688 C 12.085938 42.859375 12.21875 43.03125 12.351562 43.207031 C 12.71875 43.6875 13.078125 44.179688 13.4375 44.664062 C 13.523438 44.78125 13.609375 44.902344 13.695312 45.019531 C 13.734375 45.078125 13.734375 45.078125 13.78125 45.132812 C 13.941406 45.355469 14.105469 45.570312 14.273438 45.789062 C 14.328125 45.859375 14.328125 45.859375 14.382812 45.9375 C 14.453125 46.03125 14.53125 46.125 14.601562 46.21875 C 14.632812 46.257812 14.664062 46.300781 14.699219 46.34375 C 14.742188 46.398438 14.742188 46.398438 14.789062 46.457031 C 14.851562 46.550781 14.851562 46.550781 14.851562 46.648438 C 11.351562 46.648438 7.851562 46.648438 4.25 46.648438 C 4.335938 46.429688 4.398438 46.328125 4.550781 46.152344 C 4.726562 45.945312 4.890625 45.726562 5.050781 45.503906 C 5.335938 45.101562 5.632812 44.703125 5.929688 44.3125 C 6.40625 43.6875 6.875 43.0625 7.335938 42.429688 C 7.679688 41.960938 8.03125 41.496094 8.386719 41.039062 C 8.71875 40.617188 9.03125 40.183594 9.351562 39.75 C 9.722656 39.242188 10.097656 38.734375 10.488281 38.238281 C 10.820312 37.816406 11.132812 37.382812 11.449219 36.949219 C 11.820312 36.4375 12.195312 35.9375 12.585938 35.4375 C 12.917969 35.015625 13.234375 34.582031 13.550781 34.148438 C 13.921875 33.640625 14.296875 33.132812 14.6875 32.640625 C 15.015625 32.214844 15.335938 31.78125 15.648438 31.351562 C 16.023438 30.839844 16.398438 30.335938 16.789062 29.835938 C 17.117188 29.414062 17.433594 28.984375 17.75 28.550781 C 18.125 28.039062 18.5 27.53125 18.890625 27.035156 C 19.117188 26.742188 19.335938 26.445312 19.546875 26.148438 C 19.859375 25.714844 20.183594 25.296875 20.507812 24.875 C 20.828125 24.453125 21.140625 24.03125 21.449219 23.609375 C 21.761719 23.1875 22.078125 22.765625 22.398438 22.34375 C 22.898438 21.6875 23.390625 21.03125 23.882812 20.363281 C 24.234375 19.886719 24.589844 19.417969 24.949219 18.949219 Z M 24.949219 18.949219 "/>
<path style=" stroke:none;fill-rule:nonzero;fill:rgb(98.823529%,98.823529%,98.823529%);fill-opacity:1;" d="M 29.132812 4.765625 C 29.328125 4.921875 29.515625 5.085938 29.699219 5.25 C 29.734375 5.28125 29.765625 5.304688 29.796875 5.335938 C 30.859375 6.320312 31.585938 7.964844 31.660156 9.394531 C 31.664062 9.574219 31.664062 9.75 31.664062 9.929688 C 31.664062 10.039062 31.664062 10.148438 31.667969 10.257812 C 31.671875 10.914062 31.566406 11.523438 31.34375 12.144531 C 31.328125 12.1875 31.3125 12.226562 31.296875 12.273438 C 30.957031 13.191406 30.429688 13.992188 29.75 14.699219 C 29.703125 14.757812 29.703125 14.757812 29.648438 14.8125 C 28.984375 15.523438 28.054688 16.019531 27.144531 16.34375 C 27.105469 16.359375 27.070312 16.371094 27.027344 16.382812 C 26.40625 16.59375 25.796875 16.675781 25.140625 16.671875 C 25.03125 16.667969 24.917969 16.671875 24.804688 16.671875 C 24.152344 16.671875 23.519531 16.582031 22.898438 16.367188 C 22.863281 16.351562 22.828125 16.339844 22.789062 16.328125 C 21.074219 15.71875 19.75 14.46875 18.949219 12.851562 C 18.210938 11.226562 18.109375 9.40625 18.707031 7.71875 C 18.988281 6.976562 19.390625 6.308594 19.898438 5.699219 C 19.9375 5.65625 19.96875 5.613281 20.007812 5.570312 C 22.289062 2.914062 26.421875 2.609375 29.132812 4.765625 Z M 24.601562 7.148438 C 24.601562 7.164062 24.601562 7.183594 24.601562 7.199219 C 24.863281 7.199219 25.128906 7.199219 25.398438 7.199219 C 25.398438 7.183594 25.398438 7.167969 25.398438 7.148438 C 25.136719 7.148438 24.871094 7.148438 24.601562 7.148438 Z M 24.351562 7.199219 C 24.550781 7.25 24.550781 7.25 24.550781 7.25 Z M 25.449219 7.199219 C 25.648438 7.25 25.648438 7.25 25.648438 7.25 Z M 23.453125 7.6875 C 23.351562 7.75 23.265625 7.773438 23.148438 7.800781 C 23.023438 7.90625 23.023438 7.90625 22.898438 8.050781 C 22.875 8.074219 22.851562 8.097656 22.828125 8.125 C 22.28125 8.710938 22.113281 9.453125 22.136719 10.230469 C 22.171875 10.875 22.417969 11.425781 22.851562 11.898438 C 22.875 11.929688 22.898438 11.960938 22.929688 11.992188 C 22.953125 12.023438 22.976562 12.058594 23.007812 12.089844 C 23.03125 12.117188 23.054688 12.148438 23.078125 12.179688 C 23.152344 12.265625 23.152344 12.265625 23.300781 12.300781 C 23.332031 12.332031 23.367188 12.367188 23.398438 12.398438 C 23.632812 12.578125 23.867188 12.671875 24.148438 12.75 C 24.210938 12.765625 24.273438 12.785156 24.335938 12.804688 C 24.554688 12.855469 24.761719 12.867188 24.984375 12.867188 C 25.042969 12.867188 25.042969 12.867188 25.101562 12.867188 C 25.460938 12.859375 25.765625 12.78125 26.101562 12.648438 C 26.140625 12.636719 26.183594 12.621094 26.226562 12.609375 C 26.375 12.554688 26.484375 12.515625 26.601562 12.398438 C 26.699219 12.300781 26.699219 12.300781 26.789062 12.261719 C 26.945312 12.171875 27.039062 12.039062 27.148438 11.898438 C 27.1875 11.859375 27.1875 11.859375 27.222656 11.8125 C 27.769531 11.125 27.929688 10.40625 27.851562 9.550781 C 27.804688 9.320312 27.738281 9.117188 27.648438 8.898438 C 27.632812 8.855469 27.613281 8.8125 27.59375 8.765625 C 27.375 8.273438 27.003906 7.851562 26.5 7.648438 C 26.320312 7.546875 26.148438 7.445312 26 7.300781 C 25.164062 7.09375 24.171875 7.203125 23.453125 7.6875 Z M 23.453125 7.6875 "/>
<path style=" stroke:none;fill-rule:nonzero;fill:rgb(0.392157%,0.392157%,0.392157%);fill-opacity:1;" d="M 24.960938 5.390625 C 25.042969 5.390625 25.042969 5.390625 25.125 5.390625 C 25.632812 5.390625 26.078125 5.476562 26.550781 5.648438 C 26.59375 5.664062 26.640625 5.679688 26.6875 5.699219 C 27.890625 6.164062 28.765625 7.082031 29.300781 8.25 C 29.539062 8.84375 29.617188 9.40625 29.617188 10.046875 C 29.617188 10.109375 29.617188 10.164062 29.617188 10.226562 C 29.617188 10.609375 29.570312 10.9375 29.449219 11.300781 C 29.421875 11.382812 29.421875 11.382812 29.390625 11.472656 C 28.914062 12.726562 28.109375 13.65625 26.890625 14.226562 C 26.585938 14.359375 26.273438 14.460938 25.949219 14.550781 C 25.921875 14.558594 25.890625 14.566406 25.863281 14.578125 C 25.148438 14.726562 24.171875 14.667969 23.5 14.398438 C 23.414062 14.367188 23.414062 14.367188 23.320312 14.335938 C 22.125 13.859375 21.234375 12.929688 20.71875 11.765625 C 20.289062 10.703125 20.234375 9.421875 20.664062 8.34375 C 21.171875 7.148438 22.050781 6.21875 23.25 5.699219 C 23.820312 5.484375 24.351562 5.390625 24.960938 5.390625 Z M 24.601562 7.148438 C 24.601562 7.164062 24.601562 7.183594 24.601562 7.199219 C 24.863281 7.199219 25.128906 7.199219 25.398438 7.199219 C 25.398438 7.183594 25.398438 7.167969 25.398438 7.148438 C 25.136719 7.148438 24.871094 7.148438 24.601562 7.148438 Z M 24.351562 7.199219 C 24.550781 7.25 24.550781 7.25 24.550781 7.25 Z M 25.449219 7.199219 C 25.648438 7.25 25.648438 7.25 25.648438 7.25 Z M 23.453125 7.6875 C 23.351562 7.75 23.265625 7.773438 23.148438 7.800781 C 23.023438 7.90625 23.023438 7.90625 22.898438 8.050781 C 22.875 8.074219 22.851562 8.097656 22.828125 8.125 C 22.28125 8.710938 22.113281 9.453125 22.136719 10.230469 C 22.171875 10.875 22.417969 11.425781 22.851562 11.898438 C 22.875 11.929688 22.898438 11.960938 22.929688 11.992188 C 22.953125 12.023438 22.976562 12.058594 23.007812 12.089844 C 23.03125 12.117188 23.054688 12.148438 23.078125 12.179688 C 23.152344 12.265625 23.152344 12.265625 23.300781 12.300781 C 23.332031 12.332031 23.367188 12.367188 23.398438 12.398438 C 23.632812 12.578125 23.867188 12.671875 24.148438 12.75 C 24.210938 12.765625 24.273438 12.785156 24.335938 12.804688 C 24.554688 12.855469 24.761719 12.867188 24.984375 12.867188 C 25.042969 12.867188 25.042969 12.867188 25.101562 12.867188 C 25.460938 12.859375 25.765625 12.78125 26.101562 12.648438 C 26.140625 12.636719 26.183594 12.621094 26.226562 12.609375 C 26.375 12.554688 26.484375 12.515625 26.601562 12.398438 C 26.699219 12.300781 26.699219 12.300781 26.789062 12.261719 C 26.945312 12.171875 27.039062 12.039062 27.148438 11.898438 C 27.1875 11.859375 27.1875 11.859375 27.222656 11.8125 C 27.769531 11.125 27.929688 10.40625 27.851562 9.550781 C 27.804688 9.320312 27.738281 9.117188 27.648438 8.898438 C 27.632812 8.855469 27.613281 8.8125 27.59375 8.765625 C 27.375 8.273438 27.003906 7.851562 26.5 7.648438 C 26.320312 7.546875 26.148438 7.445312 26 7.300781 C 25.164062 7.09375 24.171875 7.203125 23.453125 7.6875 Z M 23.453125 7.6875 "/>
<path style=" stroke:none;fill-rule:nonzero;fill:rgb(0%,0%,0%);fill-opacity:1;" d="M 31.699219 48.449219 C 37.492188 48.449219 43.28125 48.449219 49.25 48.449219 C 49.25 48.46875 49.25 48.484375 49.25 48.5 C 43.460938 48.5 37.667969 48.5 31.699219 48.5 C 31.699219 48.484375 31.699219 48.46875 31.699219 48.449219 Z M 31.699219 48.449219 "/>
<path style=" stroke:none;fill-rule:nonzero;fill:rgb(0%,0%,0%);fill-opacity:1;" d="M 0.75 48.449219 C 6.539062 48.449219 12.332031 48.449219 18.300781 48.449219 C 18.300781 48.46875 18.300781 48.484375 18.300781 48.5 C 12.507812 48.5 6.71875 48.5 0.75 48.5 C 0.75 48.484375 0.75 48.46875 0.75 48.449219 Z M 0.75 48.449219 "/>
<path style=" stroke:none;fill-rule:nonzero;fill:rgb(0%,0%,0%);fill-opacity:1;" d="M 27.75 9.601562 C 27.765625 9.601562 27.78125 9.601562 27.800781 9.601562 C 27.800781 9.863281 27.800781 10.128906 27.800781 10.398438 C 27.78125 10.398438 27.765625 10.398438 27.75 10.398438 C 27.75 10.136719 27.75 9.871094 27.75 9.601562 Z M 27.75 9.601562 "/>
<path style=" stroke:none;fill-rule:nonzero;fill:rgb(0%,0%,0%);fill-opacity:1;" d="M 22.199219 9.601562 C 22.21875 9.601562 22.234375 9.601562 22.25 9.601562 C 22.25 9.863281 22.25 10.128906 22.25 10.398438 C 22.234375 10.398438 22.21875 10.398438 22.199219 10.398438 C 22.199219 10.136719 22.199219 9.871094 22.199219 9.601562 Z M 22.199219 9.601562 "/>
<path style=" stroke:none;fill-rule:nonzero;fill:rgb(0%,0%,0%);fill-opacity:1;" d="M 16.5 9.75 C 16.515625 9.75 16.53125 9.75 16.550781 9.75 C 16.550781 9.929688 16.550781 10.113281 16.550781 10.300781 C 16.53125 10.300781 16.515625 10.300781 16.5 10.300781 C 16.5 10.117188 16.5 9.9375 16.5 9.75 Z M 16.5 9.75 "/>
<path style=" stroke:none;fill-rule:nonzero;fill:rgb(0%,0%,0%);fill-opacity:1;" d="M 33.449219 9.75 C 33.46875 9.75 33.484375 9.75 33.5 9.75 C 33.5 9.914062 33.5 10.078125 33.5 10.25 C 33.484375 10.25 33.46875 10.25 33.449219 10.25 C 33.449219 10.085938 33.449219 9.921875 33.449219 9.75 Z M 33.449219 9.75 "/>
<path style=" stroke:none;fill-rule:nonzero;fill:rgb(0%,0%,0%);fill-opacity:1;" d="M 44.800781 42.300781 C 44.851562 42.324219 44.851562 42.324219 44.898438 42.351562 C 44.882812 42.382812 44.867188 42.414062 44.851562 42.449219 C 44.835938 42.398438 44.816406 42.351562 44.800781 42.300781 Z M 44.800781 42.300781 "/>
<path style=" stroke:none;fill-rule:nonzero;fill:rgb(0%,0%,0%);fill-opacity:1;" d="M 36.648438 41.25 C 36.699219 41.273438 36.699219 41.273438 36.75 41.300781 C 36.734375 41.332031 36.71875 41.367188 36.699219 41.398438 C 36.683594 41.351562 36.667969 41.300781 36.648438 41.25 Z M 36.648438 41.25 "/>
<path style=" stroke:none;fill-rule:nonzero;fill:rgb(0%,0%,0%);fill-opacity:1;" d="M 40.449219 36.5 C 40.5 36.523438 40.5 36.523438 40.550781 36.550781 C 40.53125 36.582031 40.515625 36.617188 40.5 36.648438 C 40.484375 36.601562 40.46875 36.550781 40.449219 36.5 Z M 40.449219 36.5 "/>
<path style=" stroke:none;fill-rule:nonzero;fill:rgb(0%,0%,0%);fill-opacity:1;" d="M 38.351562 33.699219 C 38.398438 33.726562 38.398438 33.726562 38.449219 33.75 C 38.433594 33.78125 38.417969 33.816406 38.398438 33.851562 C 38.382812 33.800781 38.367188 33.75 38.351562 33.699219 Z M 38.351562 33.699219 "/>
<path style=" stroke:none;fill-rule:nonzero;fill:rgb(0%,0%,0%);fill-opacity:1;" d="M 30.398438 32.949219 C 30.449219 32.976562 30.449219 32.976562 30.5 33 C 30.484375 33.03125 30.46875 33.066406 30.449219 33.101562 C 30.433594 33.050781 30.417969 33 30.398438 32.949219 Z M 30.398438 32.949219 "/>
<path style=" stroke:none;fill-rule:nonzero;fill:rgb(0%,0%,0%);fill-opacity:1;" d="M 34 27.898438 C 34.046875 27.921875 34.046875 27.921875 34.101562 27.949219 C 34.085938 27.984375 34.066406 28.015625 34.050781 28.050781 C 34.03125 28 34.015625 27.953125 34 27.898438 Z M 34 27.898438 "/>
<path style=" stroke:none;fill-rule:nonzero;fill:rgb(0%,0%,0%);fill-opacity:1;" d="M 27.699219 10.5 C 27.75 10.699219 27.75 10.699219 27.75 10.699219 Z M 27.699219 10.5 "/>
<path style=" stroke:none;fill-rule:nonzero;fill:rgb(0%,0%,0%);fill-opacity:1;" d="M 22.25 10.5 C 22.300781 10.699219 22.300781 10.699219 22.300781 10.699219 Z M 22.25 10.5 "/>
<path style=" stroke:none;fill-rule:nonzero;fill:rgb(0%,0%,0%);fill-opacity:1;" d="M 27.699219 9.351562 C 27.75 9.550781 27.75 9.550781 27.75 9.550781 Z M 27.699219 9.351562 "/>
<path style=" stroke:none;fill-rule:nonzero;fill:rgb(0%,0%,0%);fill-opacity:1;" d="M 27.25 18.148438 C 27.398438 18.199219 27.398438 18.199219 27.398438 18.199219 Z M 27.25 18.148438 "/>
<path style=" stroke:none;fill-rule:nonzero;fill:rgb(0%,0%,0%);fill-opacity:1;" d="M 22.601562 18.148438 C 22.75 18.199219 22.75 18.199219 22.75 18.199219 Z M 22.601562 18.148438 "/>
<path style=" stroke:none;fill-rule:nonzero;fill:rgb(0%,0%,0%);fill-opacity:1;" d="M 27.851562 17.949219 C 28 18 28 18 28 18 Z M 27.851562 17.949219 "/>
<path style=" stroke:none;fill-rule:nonzero;fill:rgb(0%,0%,0%);fill-opacity:1;" d="M 22 17.949219 C 22.148438 18 22.148438 18 22.148438 18 Z M 22 17.949219 "/>
<path style=" stroke:none;fill-rule:nonzero;fill:rgb(0%,0%,0%);fill-opacity:1;" d="M 25.851562 7.351562 C 26 7.398438 26 7.398438 26 7.398438 Z M 25.851562 7.351562 "/>
<path style=" stroke:none;fill-rule:nonzero;fill:rgb(0%,0%,0%);fill-opacity:1;" d="M 25.699219 7.300781 C 25.851562 7.351562 25.851562 7.351562 25.851562 7.351562 Z M 25.699219 7.300781 "/>
<path style=" stroke:none;fill-rule:nonzero;fill:rgb(0%,0%,0%);fill-opacity:1;" d="M 22.75 1.800781 C 22.898438 1.851562 22.898438 1.851562 22.898438 1.851562 Z M 22.75 1.800781 "/>
<path style=" stroke:none;fill-rule:nonzero;fill:rgb(0%,0%,0%);fill-opacity:1;" d="M 26.898438 18.25 C 27 18.300781 27 18.300781 27 18.300781 Z M 26.898438 18.25 "/>
<path style=" stroke:none;fill-rule:nonzero;fill:rgb(0%,0%,0%);fill-opacity:1;" d="M 23 18.25 C 23.101562 18.300781 23.101562 18.300781 23.101562 18.300781 Z M 23 18.25 "/>
<path style=" stroke:none;fill-rule:nonzero;fill:rgb(0%,0%,0%);fill-opacity:1;" d="M 27.101562 18.199219 C 27.199219 18.25 27.199219 18.25 27.199219 18.25 Z M 27.101562 18.199219 "/>
<path style=" stroke:none;fill-rule:nonzero;fill:rgb(0%,0%,0%);fill-opacity:1;" d="M 22.800781 18.199219 C 22.898438 18.25 22.898438 18.25 22.898438 18.25 Z M 22.800781 18.199219 "/>
<path style=" stroke:none;fill-rule:nonzero;fill:rgb(0%,0%,0%);fill-opacity:1;" d="M 27.449219 18.101562 C 27.550781 18.148438 27.550781 18.148438 27.550781 18.148438 Z M 27.449219 18.101562 "/>
<path style=" stroke:none;fill-rule:nonzero;fill:rgb(0%,0%,0%);fill-opacity:1;" d="M 22.449219 18.101562 C 22.550781 18.148438 22.550781 18.148438 22.550781 18.148438 Z M 22.449219 18.101562 "/>
<path style=" stroke:none;fill-rule:nonzero;fill:rgb(0%,0%,0%);fill-opacity:1;" d="M 27.601562 18.050781 C 27.699219 18.101562 27.699219 18.101562 27.699219 18.101562 Z M 27.601562 18.050781 "/>
<path style=" stroke:none;fill-rule:nonzero;fill:rgb(0%,0%,0%);fill-opacity:1;" d="M 22.300781 18.050781 C 22.398438 18.101562 22.398438 18.101562 22.398438 18.101562 Z M 22.300781 18.050781 "/>
<path style=" stroke:none;fill-rule:nonzero;fill:rgb(0%,0%,0%);fill-opacity:1;" d="M 27.75 18 C 27.851562 18.050781 27.851562 18.050781 27.851562 18.050781 Z M 27.75 18 "/>
<path style=" stroke:none;fill-rule:nonzero;fill:rgb(0%,0%,0%);fill-opacity:1;" d="M 22.148438 18 C 22.25 18.050781 22.25 18.050781 22.25 18.050781 Z M 22.148438 18 "/>
<path style=" stroke:none;fill-rule:nonzero;fill:rgb(0%,0%,0%);fill-opacity:1;" d="M 28 17.898438 C 28.101562 17.949219 28.101562 17.949219 28.101562 17.949219 Z M 28 17.898438 "/>
<path style=" stroke:none;fill-rule:nonzero;fill:rgb(0%,0%,0%);fill-opacity:1;" d="M 21.898438 17.898438 C 22 17.949219 22 17.949219 22 17.949219 Z M 21.898438 17.898438 "/>
<path style=" stroke:none;fill-rule:nonzero;fill:rgb(0%,0%,0%);fill-opacity:1;" d="M 28.25 17.800781 C 28.351562 17.851562 28.351562 17.851562 28.351562 17.851562 Z M 28.25 17.800781 "/>
<path style=" stroke:none;fill-rule:nonzero;fill:rgb(0%,0%,0%);fill-opacity:1;" d="M 28.351562 17.75 C 28.449219 17.800781 28.449219 17.800781 28.449219 17.800781 Z M 28.351562 17.75 "/>
<path style=" stroke:none;fill-rule:nonzero;fill:rgb(0%,0%,0%);fill-opacity:1;" d="M 21.550781 17.75 C 21.648438 17.800781 21.648438 17.800781 21.648438 17.800781 Z M 21.550781 17.75 "/>
<path style=" stroke:none;fill-rule:nonzero;fill:rgb(0%,0%,0%);fill-opacity:1;" d="M 21.449219 17.699219 C 21.550781 17.75 21.550781 17.75 21.550781 17.75 Z M 21.449219 17.699219 "/>
<path style=" stroke:none;fill-rule:nonzero;fill:rgb(0%,0%,0%);fill-opacity:1;" d="M 29.050781 17.398438 C 29.148438 17.449219 29.148438 17.449219 29.148438 17.449219 Z M 29.050781 17.398438 "/>
<path style=" stroke:none;fill-rule:nonzero;fill:rgb(0%,0%,0%);fill-opacity:1;" d="M 20.851562 17.398438 C 20.949219 17.449219 20.949219 17.449219 20.949219 17.449219 Z M 20.851562 17.398438 "/>
</g>
</svg>
